<svg width="25" height="25" viewBox="0 0 25 25" fill="none" xmlns="http://www.w3.org/2000/svg">
<path d="M0 12.5C0 10.0277 0.733112 7.61099 2.10663 5.55538C3.48015 3.49976 5.43238 1.89761 7.71645 0.951511C10.0005 0.00541607 12.5139 -0.242126 14.9386 0.24019C17.3634 0.722505 19.5907 1.91301 21.3388 3.66117C23.087 5.40933 24.2775 7.63661 24.7598 10.0614C25.2421 12.4861 24.9946 14.9995 24.0485 17.2835C23.1024 19.5676 21.5002 21.5199 19.4446 22.8934C17.389 24.2669 14.9723 25 12.5 25C9.18592 24.9963 6.00863 23.6782 3.66522 21.3348C1.32182 18.9914 0.00367618 15.8141 0 12.5H0ZM12.5 23.0778C15.1122 23.0802 17.6322 22.112 19.5708 20.3611C19.0282 19.9298 18.4097 19.6038 17.7472 19.4C17.6083 19.3472 17.4528 19.2958 17.2639 19.2319L16.7694 19.0653C14.9806 18.4611 14.175 17.9736 13.8292 16.8319C13.7998 16.7381 13.7761 16.6426 13.7583 16.5458C13.6359 15.9443 13.6978 15.3199 13.9361 14.7542C14.104 14.3595 14.3629 14.0102 14.6917 13.7347C15.1277 13.3817 15.4754 12.9319 15.7074 12.421C15.9393 11.9102 16.049 11.3523 16.0278 10.7917C16.0422 10.3143 15.9624 9.83881 15.7928 9.39236C15.6232 8.94591 15.3673 8.53728 15.0396 8.18987C14.7119 7.84245 14.319 7.56307 13.8832 7.36772C13.4474 7.17236 12.9774 7.06487 12.5 7.05139C12.0211 7.05987 11.5488 7.164 11.1108 7.35766C10.6727 7.55131 10.2778 7.83059 9.9493 8.17906C9.62075 8.52753 9.36519 8.93818 9.19763 9.38684C9.03008 9.83551 8.95391 10.3131 8.97361 10.7917C8.95267 11.3433 9.0573 11.8924 9.27961 12.3977C9.50193 12.903 9.83611 13.3511 10.2569 13.7083C10.5574 13.954 10.8057 14.2571 10.9875 14.6C11.3065 15.205 11.3968 15.9047 11.2417 16.5708C11.2282 16.6449 11.2092 16.7178 11.1847 16.7889C10.8819 17.9139 10.0986 18.3958 8.38055 18.9833L7.80972 19.1764C7.5875 19.2514 7.41389 19.3153 7.25416 19.3722C6.59037 19.5843 5.97259 19.9198 5.43333 20.3611C7.37094 22.1109 9.88921 23.079 12.5 23.0778ZM17.9486 10.7917C17.9685 11.6271 17.7992 12.4563 17.4533 13.217C17.1074 13.9778 16.594 14.6505 15.9514 15.1847C15.8432 15.2717 15.7579 15.3837 15.7028 15.5111C15.6193 15.726 15.6 15.9605 15.6472 16.1861C15.6513 16.21 15.6569 16.2337 15.6639 16.2569C15.7625 16.5819 16.1861 16.8375 17.3833 17.2431L17.8764 17.4069C18.0792 17.475 18.2417 17.5319 18.3986 17.5875C19.3073 17.8725 20.1507 18.3341 20.8806 18.9458C22.0859 17.3803 22.8287 15.5085 23.0248 13.5425C23.2209 11.5764 22.8625 9.59479 21.9901 7.82204C21.1177 6.04928 19.7662 4.5563 18.0888 3.51226C16.4114 2.46821 14.4751 1.91484 12.4993 1.91484C10.5235 1.91484 8.58722 2.46821 6.9098 3.51226C5.23239 4.5563 3.88092 6.04928 3.00852 7.82204C2.13611 9.59479 1.77766 11.5764 1.97376 13.5425C2.16986 15.5085 2.91268 17.3803 4.11805 18.9458C4.84146 18.3297 5.6785 17.8612 6.58194 17.5667C6.76528 17.4986 6.95416 17.4278 7.19028 17.3528L7.75833 17.1611C8.86944 16.7819 9.25972 16.5403 9.35416 16.2042C9.35416 16.2125 9.35416 16.1972 9.3625 16.1611C9.4163 15.937 9.38976 15.701 9.2875 15.4944C9.2104 15.3595 9.10696 15.2414 8.98333 15.1472C8.35933 14.6092 7.8624 13.9395 7.52833 13.1864C7.19426 12.4332 7.03137 11.6153 7.05139 10.7917C7.03144 10.0606 7.15717 9.33283 7.42126 8.65081C7.68535 7.9688 8.08251 7.34615 8.58961 6.81914C9.09671 6.29213 9.70361 5.8713 10.375 5.58116C11.0463 5.29102 11.7687 5.13738 12.5 5.12917C13.2296 5.14308 13.9493 5.30059 14.618 5.59272C15.2868 5.88484 15.8914 6.30584 16.3974 6.83168C16.9033 7.35752 17.3007 7.97789 17.5669 8.65736C17.8331 9.33682 17.9628 10.0621 17.9486 10.7917Z" fill="#141124"/>
</svg>
