<svg width="23" height="19" viewBox="0 0 23 19" fill="none" xmlns="http://www.w3.org/2000/svg">
<path d="M13 18.7422C17.9834 18.7422 22.0879 14.6289 22.0879 9.6543C22.0879 4.67969 17.9658 0.566406 12.9912 0.566406C8.36816 0.566406 4.50098 4.1084 3.98242 8.59961C4.52734 8.47656 5.24805 8.44141 5.82812 8.53809C6.34668 5.04004 9.33496 2.38574 12.9912 2.38574C17.0254 2.38574 20.2773 5.62012 20.2773 9.6543C20.2773 11.5791 19.5391 13.3193 18.3174 14.6113C17.4121 13.6094 15.4961 12.6953 12.9912 12.6953C12.209 12.6953 11.4795 12.7832 10.8203 12.9414C10.9258 13.3633 10.9785 13.8027 10.9785 14.251C10.9785 15.6836 10.4248 17.0107 9.52832 18.0391C10.6006 18.4873 11.7783 18.7422 13 18.7422ZM12.9912 11.2539C14.6963 11.2627 16.0234 9.8125 16.0234 7.93164C16.0234 6.15625 14.6875 4.6709 12.9912 4.6709C11.3037 4.6709 9.9502 6.15625 9.96777 7.93164C9.97656 9.8125 11.2861 11.2363 12.9912 11.2539ZM5.19531 18.7861C7.65625 18.7861 9.72168 16.7295 9.72168 14.251C9.72168 11.7725 7.68262 9.72461 5.19531 9.72461C2.7168 9.72461 0.668945 11.7725 0.668945 14.251C0.668945 16.7383 2.7168 18.7861 5.19531 18.7861ZM2.32129 14.251C2.32129 13.8906 2.56738 13.6533 2.92773 13.6533H4.58887V11.9922C4.58887 11.6318 4.82617 11.3857 5.19531 11.3857C5.56445 11.3857 5.80176 11.6318 5.80176 11.9922V13.6533H7.46289C7.82324 13.6533 8.06934 13.8906 8.06934 14.251C8.06934 14.6201 7.82324 14.8574 7.46289 14.8574H5.80176V16.5273C5.80176 16.8877 5.56445 17.1338 5.19531 17.1338C4.82617 17.1338 4.58887 16.8877 4.58887 16.5273V14.8574H2.92773C2.56738 14.8574 2.33008 14.6201 2.32129 14.251Z" fill="#1C1C1E"/>
</svg>
