<svg width="138" height="138" viewBox="0 0 138 138" fill="none" xmlns="http://www.w3.org/2000/svg">
<g clip-path="url(#clip0_206_361)">
<rect width="138" height="138" rx="69" fill="white"/>
<circle cx="69" cy="69" r="69" fill="#DEF4FF"/>
<path d="M55.5456 18.4926C55.5456 18.4926 38.889 22.0944 40.1034 43.9674C41.3178 65.8404 37.4124 72.009 37.4124 72.009L41.6904 70.8222L55.5318 80.3028L92.8469 72.8369L98.6982 74.5758L100.506 70.491C100.506 70.491 102.562 72.699 104.605 72.8232C104.605 72.8232 102.7 62.9976 103.059 58.6092C103.818 49.4184 99.4019 36.0462 99.4019 36.0462L55.518 18.4926H55.5456Z" fill="#441D39"/>
<path d="M123.911 121.165C114.499 118.005 93.5097 107.434 86.3751 103.791C85.8231 103.515 85.3677 103.266 84.9951 103.087C84.3327 102.742 83.9463 102.549 83.9463 102.549H55.5597C55.5597 102.549 55.1871 102.742 54.5109 103.087C54.1383 103.28 53.6691 103.515 53.1309 103.791C52.0821 104.329 50.7435 105.005 49.1841 105.792C40.0899 110.373 23.6265 118.474 15.5949 121.165C4.16846 125.015 4.16846 144.528 4.16846 144.528H135.337C135.337 144.528 135.337 125.015 123.911 121.165Z" fill="#FDEBD9"/>
<path d="M82.1654 89.037H57.1598L55.5452 102.533C55.5452 105.183 61.907 107.336 69.7454 107.336C77.5838 107.336 83.9456 105.183 83.9456 102.533L82.1792 89.037H82.1654Z" fill="#C1735C"/>
<path d="M46.2433 42.2273C46.2433 42.2273 47.1541 34.8029 53.4469 33.4229C53.4469 33.4229 97.7035 33.4229 88.8301 33.4229C88.8301 33.4229 94.5847 33.4229 95.7853 41.7029C95.9647 42.9449 97.8001 55.6823 97.6897 60.6917C97.6207 63.9071 98.8765 62.2097 98.8765 62.2097C98.8765 62.2097 100.229 57.0761 100.45 50.3417C100.864 37.5077 99.1939 15.4415 72.1321 15.4415C45.0703 15.4415 42.5725 31.6841 42.5725 52.6325L43.5661 62.9411C43.6075 63.3551 43.9525 63.6587 44.3665 63.6587C45.1531 63.6587 46.2295 42.2273 46.2295 42.2273H46.2433Z" fill="#C1735C"/>
<path d="M94.8477 39.5499C95.3736 39.5499 95.7999 39.1236 95.7999 38.5977C95.7999 38.0718 95.3736 37.6455 94.8477 37.6455C94.3218 37.6455 93.8955 38.0718 93.8955 38.5977C93.8955 39.1236 94.3218 39.5499 94.8477 39.5499Z" fill="#FF9988"/>
<path d="M56.0828 98.0619C56.0828 98.0619 75.4718 99.8421 82.3028 91.3413V81.5709L57.725 83.9307L56.0828 98.0619Z" fill="#A5503C"/>
<path fill-rule="evenodd" clip-rule="evenodd" d="M71.7847 92.9568C84.9077 92.9568 95.9448 81.5569 99.1495 66.0921C99.7462 65.9303 100.018 65.7974 100.018 65.7974C102.916 64.2541 104.476 60.6854 104.034 56.0419C103.73 52.8374 101.309 52.1265 99.8373 51.9936C97.9862 34.3265 86.1321 20.7001 71.7847 20.7001C57.1413 20.7001 45.0952 34.8945 43.6304 53.092C42.9355 53.0795 38.8024 53.1855 38.6508 57.4632C38.4852 62.1343 40.2654 65.5928 43.2462 66.9569C43.2462 66.9569 43.694 67.1416 44.6878 67.2987C48.2042 82.1462 59.0054 92.9568 71.7847 92.9568Z" fill="#C1735C"/>
<path d="M84.2623 59.6699C85.1845 59.6699 85.9321 58.3724 85.9321 56.7719C85.9321 55.1714 85.1845 53.8739 84.2623 53.8739C83.3401 53.8739 82.5925 55.1714 82.5925 56.7719C82.5925 58.3724 83.3401 59.6699 84.2623 59.6699Z" fill="#441D39"/>
<path d="M59.2162 59.077C60.1384 59.077 60.886 57.7795 60.886 56.179C60.886 54.5785 60.1384 53.281 59.2162 53.281C58.294 53.281 57.5464 54.5785 57.5464 56.179C57.5464 57.7795 58.294 59.077 59.2162 59.077Z" fill="#441D39"/>
<path d="M72.8505 69.7995H70.2147C69.0417 69.7995 68.0067 69.3441 67.4547 68.5989C67.0545 68.0607 66.9441 67.4259 67.1373 66.8049C67.7307 64.8729 68.5449 59.6289 68.5587 59.5737C68.6139 59.2011 68.9727 58.9527 69.3453 58.9941C69.7179 59.0493 69.9801 59.4081 69.9249 59.7807C69.8973 60.0015 69.0831 65.1903 68.4621 67.2051C68.4069 67.3983 68.4345 67.5915 68.5725 67.7847C68.8623 68.1849 69.5109 68.4333 70.2285 68.4333H72.8643C73.2507 68.4333 73.5543 68.7369 73.5543 69.1233C73.5543 69.5097 73.2507 69.8133 72.8643 69.8133L72.8505 69.7995Z" fill="#A5503C"/>
<path d="M85.7391 64.2111C88.399 64.2111 90.5553 63.7168 90.5553 63.1071C90.5553 62.4973 88.399 62.0031 85.7391 62.0031C83.0791 62.0031 80.9229 62.4973 80.9229 63.1071C80.9229 63.7168 83.0791 64.2111 85.7391 64.2111Z" fill="#AF5D4E"/>
<path d="M57.6297 64.2111C60.2896 64.2111 62.4459 63.7168 62.4459 63.1071C62.4459 62.4973 60.2896 62.0031 57.6297 62.0031C54.9698 62.0031 52.8135 62.4973 52.8135 63.1071C52.8135 63.7168 54.9698 64.2111 57.6297 64.2111Z" fill="#AF5D4E"/>
<path d="M90.1975 49.7218C85.5331 48.6592 82.0693 49.7218 79.9579 50.1358C79.0609 50.3152 78.7849 49.1974 78.7849 49.1974C78.5641 48.4522 79.5439 47.8588 80.2615 47.6932C82.6489 47.0998 85.7125 46.6858 90.3769 47.9968C91.2739 48.2452 91.3705 48.9904 91.3705 48.9904C91.3153 49.8184 90.8047 49.8736 90.1975 49.7218Z" fill="#441D39"/>
<path d="M52.9926 49.5272C57.6984 48.644 61.1208 49.8584 63.2184 50.3414C64.1154 50.5484 64.419 49.4582 64.419 49.4582C64.6674 48.7268 63.7152 48.092 63.0114 47.885C60.6516 47.2088 57.6018 46.6706 52.8822 47.7884C51.9714 48.0092 51.8472 48.7406 51.8472 48.7406C51.861 49.5686 52.3716 49.6376 52.9926 49.5272Z" fill="#441D39"/>
<path d="M70.7533 80.2876C67.4827 80.2876 64.9021 79.5976 64.7227 79.5562C64.3501 79.4596 64.1431 79.0732 64.2397 78.7144C64.3363 78.3418 64.7227 78.1348 65.0815 78.2314C65.1505 78.2452 71.4985 79.9288 76.6183 77.9278C76.9771 77.7898 77.3773 77.9692 77.5153 78.3142C77.6533 78.673 77.4739 79.0732 77.1289 79.2112C75.0175 80.0392 72.7543 80.3014 70.7533 80.3014V80.2876Z" fill="#A5503C"/>
<path d="M91.26 17.7892C72.3264 2.81623 55.5456 18.493 55.5456 18.493C38.9442 21.529 41.304 46.0378 41.7042 48.6598C42.1044 51.268 42.615 53.0758 42.615 53.0758C42.9738 53.0896 43.305 53.0758 43.6224 53.0068L45.03 63.1084C45.1266 63.4672 45.6648 63.4948 45.789 63.1084C45.9132 62.9704 46.2996 57.064 46.6722 50.8954C49.8186 46.2448 49.6806 35.3566 55.5456 30.4852C58.416 28.0978 62.4456 29.9746 62.4456 29.9746C62.4456 29.9746 65.454 24.6616 72.6162 27.7528C79.0608 30.5266 86.982 48.0112 95.7174 52.165C96.0624 57.8506 96.4074 62.9842 96.5178 63.1222C96.642 63.5086 97.1802 63.481 97.2768 63.1222L98.6844 53.0344L102.686 50.9506C102.686 50.9506 104.494 26.0554 91.2324 17.803L91.26 17.7892Z" fill="#441D39"/>
<path d="M123.91 121.165C118.942 119.496 110.745 115.756 103.058 112.071L81.6132 119.675V140.196H80.2332V120.158L75.7896 121.731V144.515H135.337C135.337 144.515 135.337 125.002 123.91 121.152V121.165Z" fill="#4598C4"/>
<path d="M92.7912 104.053C86.0016 101.721 75.7896 121.731 75.7896 121.731L80.2332 120.158V140.195H81.6132V119.675L103.058 112.071L103.141 112.043C103.141 112.043 99.5946 106.385 92.805 104.053H92.7912Z" fill="#2B7FA5"/>
<path d="M59.6299 120.252L56.4421 139.642L55.0759 139.421L58.3051 119.783L36.4735 112.042C28.7731 115.74 20.5483 119.494 15.5665 121.163C4.14014 125.014 4.14014 144.527 4.14014 144.527H63.5215L63.8251 121.743L59.6299 120.252Z" fill="#4598C4"/>
<path d="M46.8242 104.053C40.0484 106.371 36.5018 112.015 36.488 112.043L58.3196 119.785L55.0904 139.422L56.4566 139.643L59.6444 120.254L63.8396 121.744C63.8396 121.744 53.6138 101.734 46.838 104.066L46.8242 104.053Z" fill="#2B7FA5"/>
</g>
<defs>
<clipPath id="clip0_206_361">
<rect width="138" height="138" rx="69" fill="white"/>
</clipPath>
</defs>
</svg>
