<svg width="138" height="138" viewBox="0 0 138 138" fill="none" xmlns="http://www.w3.org/2000/svg">
<g clip-path="url(#clip0_206_391)">
<rect width="138" height="138" rx="69" fill="white"/>
<circle cx="69" cy="69" r="69" fill="#DEF4FF"/>
<path d="M69.1791 17.3592C70.0485 17.5662 70.9179 17.6628 71.8011 17.58C76.1619 17.2074 90.9969 17.0418 97.4001 31.173C104.935 47.8434 109.034 52.356 103.776 71.7312C98.5179 91.1064 102.713 90.375 105.432 100.242L105.515 100.532C106.977 105.845 102.672 110.978 97.1655 110.523L86.6361 109.626C85.8771 109.557 85.1043 109.612 84.3591 109.764C78.3699 111.006 49.7625 116.678 38.7915 113.807C35.0379 112.828 31.8225 111.641 29.1453 110.454C24.5637 108.425 23.1285 102.712 25.9713 98.586C27.1719 96.861 28.1103 94.9704 28.3035 93.1626C28.8831 87.5874 25.0053 82.5642 26.5371 73.1112C29.0901 57.2826 33.9339 58.7454 34.7895 48.8646C35.2863 43.2066 43.8009 11.301 69.1653 17.3592H69.1791Z" fill="#EB3F3A"/>
<path d="M69.1791 17.3592C70.0485 17.5662 70.9179 17.6628 71.8011 17.58C76.1619 17.2074 90.9969 17.0418 97.4001 31.173C104.935 47.8434 109.034 52.356 103.776 71.7312C98.5179 91.1064 102.713 90.375 105.432 100.242L105.515 100.532C106.977 105.845 102.672 110.978 97.1655 110.523L86.6361 109.626C85.8771 109.557 85.1043 109.612 84.3591 109.764C78.3699 111.006 49.7625 116.678 38.7915 113.807C35.0379 112.828 31.8225 111.641 29.1453 110.454C24.5637 108.425 23.1285 102.712 25.9713 98.586C27.1719 96.861 28.1103 94.9704 28.3035 93.1626C28.8831 87.5874 25.0053 82.5642 26.5371 73.1112C29.0901 57.2826 33.9339 58.7454 34.7895 48.8646C35.2863 43.2066 43.8009 11.301 69.1653 17.3592H69.1791Z" fill="#EB3F3A"/>
<path d="M123.91 121.163C112.484 117.313 83.9317 102.533 83.9317 102.533L82.1653 89.0369H57.1597L55.5451 102.533C55.5451 102.533 27.0067 117.313 15.5665 121.163C4.12634 125.013 4.14014 144.527 4.14014 144.527H135.351C135.351 144.527 135.351 125.013 123.924 121.163H123.91Z" fill="#FFB69F"/>
<path d="M69.7454 106.799C77.5879 106.799 83.9456 104.89 83.9456 102.535C83.9456 100.18 77.5879 98.271 69.7454 98.271C61.9028 98.271 55.5452 100.18 55.5452 102.535C55.5452 104.89 61.9028 106.799 69.7454 106.799Z" fill="#FFB69F"/>
<path d="M56.0828 98.0618C56.0828 98.0618 75.4718 99.842 82.3028 91.3412V81.5708L57.725 83.9306L56.0828 98.0618Z" fill="#FF9988"/>
<path d="M70.9046 92.9566C86.5364 92.9566 99.2084 76.7566 99.2084 56.773C99.2084 36.7893 86.5364 20.5894 70.9046 20.5894C55.2729 20.5894 42.6008 36.7893 42.6008 56.773C42.6008 76.7566 55.2729 92.9566 70.9046 92.9566Z" fill="#FFB69F"/>
<path d="M98.3112 53.3081C98.3112 53.3081 103.196 52.7147 103.638 57.3653C104.08 62.0159 102.52 65.5901 99.6222 67.1357C99.6222 67.1357 99.0012 67.4393 97.5798 67.6877L98.3112 53.3219V53.3081Z" fill="#FFB69F"/>
<path d="M43.1664 53.3081C43.1664 53.3081 38.2812 52.7147 37.8396 57.3653C37.398 62.0159 38.9574 65.5901 41.8554 67.1357C41.8554 67.1357 42.4764 67.4393 43.8978 67.6877L43.1664 53.3219V53.3081Z" fill="#FFB69F"/>
<path d="M42.6006 53.6407C42.6006 53.6407 40.5443 20.3275 70.9043 20.7277V55.5865L42.6006 53.6407Z" fill="#FFB69F"/>
<path d="M99.1944 53.6407C99.1944 53.6407 101.251 20.3275 70.8906 20.7277V55.5865L99.1944 53.6407Z" fill="#FFB69F"/>
<path d="M51.5015 49.5152C56.1659 48.6734 60.2921 49.3358 62.3897 49.736C63.0245 49.8602 63.6593 49.5566 63.8525 49.0322C64.0733 48.4388 63.6593 47.8316 62.9417 47.6936C60.5543 47.2382 56.2625 46.5482 51.7637 48.1214C51.0737 48.3698 49.8455 49.046 50.2181 49.5842C50.4251 49.7774 50.8805 49.6118 51.5015 49.5014V49.5152Z" fill="#EB3F3A"/>
<path d="M90.5975 49.5295C85.9331 48.6877 81.8069 49.3501 79.7093 49.7503C79.0745 49.8745 78.4397 49.5571 78.2465 49.0327C78.0257 48.4393 78.4397 47.8183 79.1573 47.6803C81.5447 47.2111 85.8365 46.5211 90.3353 48.1219C91.0253 48.3703 92.2535 49.0465 91.8809 49.5985C91.6739 49.7917 91.2185 49.6261 90.5975 49.5157V49.5295Z" fill="#EB3F3A"/>
<path d="M84.2772 59.6698C85.1994 59.6698 85.947 58.3723 85.947 56.7718C85.947 55.1713 85.1994 53.8738 84.2772 53.8738C83.355 53.8738 82.6074 55.1713 82.6074 56.7718C82.6074 58.3723 83.355 59.6698 84.2772 59.6698Z" fill="#441D39"/>
<path d="M59.2296 59.0769C60.1518 59.0769 60.8994 57.7794 60.8994 56.1789C60.8994 54.5784 60.1518 53.2809 59.2296 53.2809C58.3074 53.2809 57.5598 54.5784 57.5598 56.1789C57.5598 57.7794 58.3074 59.0769 59.2296 59.0769Z" fill="#441D39"/>
<path d="M72.8505 69.8001H70.2147C69.0417 69.8001 68.0067 69.3447 67.4547 68.5857C67.0545 68.0475 66.9441 67.4127 67.1373 66.7917C67.7445 64.8045 68.2551 62.9139 68.2551 62.9139C68.3517 62.5413 68.7381 62.3343 69.0969 62.4309C69.4695 62.5275 69.6903 62.9139 69.5799 63.2727C69.5799 63.2727 69.0693 65.1909 68.4483 67.1919C68.3931 67.3989 68.4207 67.5783 68.5587 67.7715C68.8485 68.1579 69.4971 68.4201 70.2147 68.4201H72.8505C73.2369 68.4201 73.5405 68.7237 73.5405 69.1101C73.5405 69.4965 73.2369 69.8001 72.8505 69.8001Z" fill="#FF9988"/>
<path d="M66.8607 78.7835C65.5773 78.7835 64.7355 78.7145 64.6389 78.7007C64.2663 78.6731 63.9765 78.3281 64.0179 77.9555C64.0455 77.5691 64.3905 77.3069 64.7631 77.3207C64.8459 77.3207 72.6291 77.9555 78.3975 75.1127C78.7425 74.9471 79.1565 75.0851 79.3221 75.4301C79.4877 75.7751 79.3497 76.1891 79.0047 76.3547C74.7819 78.4385 69.7173 78.7697 66.8745 78.7697L66.8607 78.7835Z" fill="#FF9988"/>
<path d="M85.6568 64.2109C88.3167 64.2109 90.473 63.7167 90.473 63.1069C90.473 62.4972 88.3167 62.0029 85.6568 62.0029C82.9969 62.0029 80.8406 62.4972 80.8406 63.1069C80.8406 63.7167 82.9969 64.2109 85.6568 64.2109Z" fill="#FF9988"/>
<path d="M57.5596 64.2109C60.2195 64.2109 62.3758 63.7167 62.3758 63.1069C62.3758 62.4972 60.2195 62.0029 57.5596 62.0029C54.8997 62.0029 52.7434 62.4972 52.7434 63.1069C52.7434 63.7167 54.8997 64.2109 57.5596 64.2109Z" fill="#FF9988"/>
<path d="M83.9448 102.535C83.9448 102.535 83.5446 97.8984 83.2962 97.6086C77.0724 99.582 65.3286 99.3612 56.1792 97.236C56.1792 97.236 55.3926 100.327 43.8972 108.428L26.9508 116.501L25.3914 144.529H112.525L109.627 115.286L83.9586 102.535H83.9448Z" fill="#1C2642"/>
<path d="M80.33 19.528C80.2886 19.459 80.261 19.3762 80.2196 19.321C79.3226 17.8306 65.5088 17.2234 64.3634 17.5822C63.4388 17.872 51.5294 24.7306 47.003 27.3526C45.8852 28.0012 45.0296 29.0086 44.588 30.223L35.3972 55.1458C35.1764 55.7392 35.066 56.374 35.0522 57.0226L34.6934 107.282C34.6796 110.125 33.1478 112.002 35.9768 112.292L48.4244 113.713C51.143 113.989 53.6408 112.25 54.3308 109.614L55.2968 104.136C55.628 102.866 55.2416 101.873 55.3934 100.327C55.9178 95.1658 47.4998 83.2564 48.7004 79.6408C50.1908 75.142 52.2332 70.3258 52.592 64.2262C52.9508 58.1266 49.004 47.3626 54.5654 34.2802C59.0366 23.7646 69.4142 25.8622 73.3058 27.0904C73.5956 27.187 73.8992 27.2422 74.2028 27.2836C74.2028 27.2836 96.5588 34.2112 97.1384 59.0788C97.1384 59.0788 98.0492 60.4864 98.6288 58.8304C102.617 47.335 97.442 21.9982 80.3162 19.5418L80.33 19.528Z" fill="#EB3F3A"/>
<path d="M99.1664 65.6047C99.6847 65.6047 100.105 65.1846 100.105 64.6663C100.105 64.148 99.6847 63.7279 99.1664 63.7279C98.6482 63.7279 98.228 64.148 98.228 64.6663C98.228 65.1846 98.6482 65.6047 99.1664 65.6047Z" fill="white"/>
</g>
<defs>
<clipPath id="clip0_206_391">
<rect width="138" height="138" rx="69" fill="white"/>
</clipPath>
</defs>
</svg>
