<svg width="20" height="15" viewBox="0 0 20 15" fill="none" xmlns="http://www.w3.org/2000/svg">
<path d="M1.25 2.21169C2.35625 1.78815 3.9425 1.33142 5.485 1.18948C7.1475 1.03609 8.5575 1.2616 9.375 2.05029V13.2064C8.20625 12.5997 6.725 12.5162 5.35875 12.6421C3.88375 12.7795 2.39625 13.1698 1.25 13.5704V2.21169ZM10.625 2.05029C11.4425 1.2616 12.8525 1.03609 14.515 1.18948C16.0575 1.33142 17.6437 1.78815 18.75 2.21169V13.5704C17.6025 13.1698 16.1163 12.7783 14.6413 12.6432C13.2738 12.5162 11.7938 12.5986 10.625 13.2064V2.05029ZM10 1.01549C8.76875 0.045935 6.98375 -0.0982958 5.35875 0.0505138C3.46625 0.225651 1.55625 0.819745 0.36625 1.3154C0.257061 1.36087 0.164469 1.43416 0.0995263 1.52651C0.0345834 1.61887 3.32143e-05 1.72638 0 1.83623L0 14.4278C2.89525e-05 14.5236 0.0262964 14.6178 0.0763964 14.7019C0.126496 14.7859 0.198827 14.8571 0.286764 14.9089C0.3747 14.9608 0.475431 14.9916 0.579729 14.9985C0.684028 15.0054 0.78856 14.9883 0.88375 14.9486C1.98625 14.4908 3.7625 13.9402 5.48375 13.7811C7.245 13.6185 8.72125 13.8807 9.5125 14.785C9.57106 14.8518 9.64527 14.9058 9.72965 14.9428C9.81403 14.9799 9.90642 14.9991 10 14.9991C10.0936 14.9991 10.186 14.9799 10.2704 14.9428C10.3547 14.9058 10.4289 14.8518 10.4875 14.785C11.2788 13.8807 12.755 13.6185 14.515 13.7811C16.2375 13.9402 18.015 14.4908 19.1163 14.9486C19.2114 14.9883 19.316 15.0054 19.4203 14.9985C19.5246 14.9916 19.6253 14.9608 19.7132 14.9089C19.8012 14.8571 19.8735 14.7859 19.9236 14.7019C19.9737 14.6178 20 14.5236 20 14.4278V1.83623C20 1.72638 19.9654 1.61887 19.9005 1.52651C19.8355 1.43416 19.7429 1.36087 19.6337 1.3154C18.4437 0.819745 16.5338 0.225651 14.6413 0.0505138C13.0163 -0.0994405 11.2313 0.045935 10 1.01549Z" fill="black"/>
</svg>
