<svg width="30" height="30" viewBox="0 0 30 30" fill="none" xmlns="http://www.w3.org/2000/svg">
<path d="M14.9973 30C14.587 30 14.1804 29.9867 13.79 29.9583C12.9311 29.8852 12.1251 29.5432 11.5061 28.9893C10.887 28.4354 10.492 27.7028 10.3868 26.9133L10.2585 26.095C10.196 25.8392 10.0709 25.6 9.89259 25.3958C9.71433 25.1915 9.4877 25.0276 9.23009 24.9167C9.00598 24.805 8.78368 24.6867 8.57042 24.5633C8.24114 24.3657 7.85889 24.2561 7.46614 24.2467C7.28941 24.2448 7.11395 24.2742 6.94924 24.3333L6.11425 24.64C5.63674 24.8145 5.12781 24.9044 4.61417 24.905C4.0138 24.9142 3.42033 24.7861 2.88672 24.5322C2.35312 24.2783 1.89599 23.9065 1.55616 23.45C1.101 22.833 0.69625 22.1857 0.345247 21.5133C-0.0150307 20.791 -0.0962055 19.9766 0.11523 19.2058C0.326666 18.435 0.817962 17.7542 1.50736 17.2767L2.21403 16.76C2.42339 16.5832 2.58589 16.3644 2.68899 16.1205C2.79209 15.8766 2.83302 15.6141 2.80864 15.3533C2.80864 15.2483 2.80864 15.1317 2.80864 15C2.80864 14.8683 2.80864 14.7517 2.80864 14.6467C2.83302 14.3859 2.79209 14.1234 2.68899 13.8795C2.58589 13.6356 2.42339 13.4168 2.21403 13.24L1.50736 12.7233C0.818231 12.2456 0.327143 11.5648 0.115729 10.7941C-0.0956854 10.0233 -0.0146918 9.20908 0.345247 8.48667C0.695947 7.81417 1.10071 7.1668 1.55616 6.55C1.89599 6.0935 2.35312 5.72171 2.88672 5.46783C3.42033 5.21394 4.0138 5.08585 4.61417 5.095C5.12781 5.09557 5.63674 5.18547 6.11425 5.36L6.94924 5.66667C7.11395 5.72576 7.28941 5.75517 7.46614 5.75333C7.85889 5.74393 8.24114 5.63431 8.57042 5.43667C8.78368 5.31333 9.00598 5.19333 9.23009 5.08333C9.48786 4.9726 9.71462 4.80877 9.89292 4.60448C10.0712 4.40019 10.1963 4.16088 10.2585 3.905L10.3868 3.08833C10.4919 2.29846 10.8867 1.56548 11.5057 1.01101C12.1248 0.45654 12.9308 0.11392 13.79 0.04C14.1876 0.0133333 14.5924 0 14.9973 0C15.4021 0 15.8088 0.0133333 16.2064 0.04C17.0653 0.113614 17.871 0.455959 18.4897 1.01017C19.1085 1.56439 19.503 2.29712 19.6078 3.08667L19.7379 3.90333C19.7993 4.1593 19.9238 4.39877 20.1019 4.60314C20.2799 4.8075 20.5067 4.97125 20.7645 5.08167C20.9796 5.18667 21.1964 5.30333 21.426 5.435C21.7553 5.63265 22.1375 5.74226 22.5303 5.75167C22.7076 5.7536 22.8836 5.72418 23.049 5.665L23.8821 5.35833C24.3597 5.18392 24.8686 5.09402 25.3822 5.09333C25.9826 5.08433 26.576 5.21248 27.1096 5.46636C27.6431 5.72024 28.1003 6.09194 28.4402 6.54833C28.8969 7.16503 29.3029 7.8124 29.6548 8.485C30.0147 9.20741 30.0957 10.0217 29.8843 10.7924C29.6729 11.5632 29.1818 12.244 28.4926 12.7217L27.7842 13.2383C27.5749 13.4151 27.4126 13.634 27.3098 13.8779C27.207 14.1218 27.1665 14.3843 27.1914 14.645C27.1914 14.7617 27.1914 14.88 27.1914 14.9983C27.1914 15.1167 27.1914 15.235 27.1914 15.3517C27.1665 15.6124 27.207 15.8748 27.3098 16.1188C27.4126 16.3627 27.5749 16.5815 27.7842 16.7583L28.4926 17.275C29.182 17.7525 29.6733 18.4333 29.8848 19.2041C30.0962 19.975 30.015 20.7893 29.6548 21.5117C29.3026 22.1841 28.8966 22.8315 28.4402 23.4483C28.1003 23.9047 27.6431 24.2764 27.1096 24.5303C26.576 24.7842 25.9826 24.9123 25.3822 24.9033C24.8686 24.9026 24.3597 24.8127 23.8821 24.6383L23.049 24.3317C22.8836 24.2725 22.7076 24.2431 22.5303 24.245C22.1375 24.2544 21.7553 24.364 21.426 24.5617C21.1946 24.695 20.9796 24.81 20.7645 24.915C20.5069 25.0257 20.2804 25.1896 20.1024 25.3939C19.9244 25.5982 19.7997 25.8375 19.7379 26.0933L19.6078 26.9117C19.5033 27.7011 19.1088 28.4338 18.4899 28.9878C17.8711 29.5418 17.0652 29.8837 16.2064 29.9567C15.816 29.9867 15.4094 30 14.9973 30ZM7.45529 21.7433C8.35679 21.7558 9.23717 21.9968 10 22.44C10.2042 22.555 10.3615 22.64 10.5133 22.7133C11.1473 23.0056 11.6976 23.4317 12.1194 23.9571C12.5411 24.4824 12.8225 25.0921 12.9405 25.7367L13.0689 26.5533C13.0873 26.7789 13.1882 26.992 13.3549 27.1579C13.5217 27.3238 13.7445 27.4326 13.987 27.4667C14.3123 27.4883 14.6521 27.5 14.9973 27.5C15.3425 27.5 15.6823 27.4883 16.0076 27.4667C16.2501 27.4326 16.4729 27.3238 16.6397 27.1579C16.8064 26.992 16.9072 26.7789 16.9257 26.5533L17.054 25.7367C17.1724 25.092 17.4541 24.4822 17.8762 23.9569C18.2983 23.4316 18.8488 23.0055 19.4831 22.7133C19.6476 22.6317 19.8084 22.5467 19.9982 22.44C20.7603 21.9967 21.6401 21.7557 22.5411 21.7433C23.0585 21.7419 23.5713 21.8319 24.052 22.0083L24.8852 22.315C25.0424 22.3744 25.2105 22.4055 25.3804 22.4067C25.5394 22.4115 25.6973 22.3806 25.8406 22.3167C25.9838 22.2529 26.1081 22.1579 26.2027 22.04C26.5826 21.5262 26.9203 20.9869 27.213 20.4267C27.3045 20.2171 27.3148 19.9849 27.2424 19.7691C27.17 19.5533 27.0192 19.367 26.8154 19.2417L26.107 18.7233C25.5601 18.308 25.1275 17.7792 24.8448 17.1801C24.5621 16.5811 24.4372 15.9288 24.4804 15.2767V15V14.7233C24.4374 14.071 24.5623 13.4185 24.845 12.8192C25.1277 12.2199 25.5601 11.6907 26.107 11.275L26.8154 10.7583C27.0194 10.6327 27.1702 10.4462 27.2426 10.2301C27.315 10.014 27.3046 9.7815 27.213 9.57167C26.9203 9.01143 26.5826 8.47214 26.2027 7.95833C26.108 7.83998 25.9835 7.74463 25.8399 7.68047C25.6964 7.61631 25.5381 7.58526 25.3786 7.59C25.2093 7.59132 25.0418 7.62243 24.8852 7.68167L24.052 7.99C23.5707 8.16633 23.0572 8.25627 22.5393 8.255C21.6389 8.24295 20.7595 8.00187 19.9982 7.55833C19.8355 7.46833 19.6602 7.37333 19.4831 7.28333C18.8489 6.99193 18.2983 6.5665 17.8762 6.0417C17.4541 5.51689 17.1724 4.90756 17.054 4.26333L16.9257 3.44667C16.9091 3.2207 16.8089 3.00684 16.6417 2.84089C16.4746 2.67493 16.2507 2.56695 16.0076 2.535C15.6823 2.51333 15.3425 2.50167 14.9973 2.50167C14.6521 2.50167 14.3123 2.51333 13.987 2.535C13.7438 2.56695 13.52 2.67493 13.3528 2.84089C13.1857 3.00684 13.0855 3.2207 13.0689 3.44667L12.9405 4.26333C12.823 4.90758 12.542 5.5171 12.1205 6.0422C11.699 6.5673 11.1489 6.99314 10.5151 7.285C10.3615 7.36 10.1988 7.45167 10.0018 7.56C9.23978 8.00343 8.35989 8.24449 7.45891 8.25667C6.94147 8.25703 6.4287 8.16653 5.94798 7.99L5.1166 7.68167C4.95992 7.62255 4.79248 7.59144 4.6232 7.59C4.46373 7.58512 4.30537 7.6161 4.16178 7.68027C4.0182 7.74444 3.89371 7.83988 3.79906 7.95833C3.41862 8.47213 3.08031 9.01141 2.78695 9.57167C2.69645 9.78161 2.68654 10.0138 2.75886 10.2297C2.83119 10.4455 2.98141 10.6321 3.18457 10.7583L3.89304 11.275C4.4401 11.6906 4.87268 12.2197 5.1554 12.819C5.43812 13.4184 5.56294 14.071 5.51964 14.7233V15V15.2767C5.56309 15.9288 5.43833 16.5812 5.15559 17.1803C4.87285 17.7794 4.44018 18.3082 3.89304 18.7233L3.18457 19.2417C2.98129 19.3674 2.83093 19.5537 2.75857 19.7693C2.68621 19.985 2.69623 20.217 2.78695 20.4267C3.08001 20.9871 3.41834 21.5264 3.79906 22.04C3.89362 22.158 4.01789 22.2531 4.16115 22.3169C4.30441 22.3808 4.46236 22.4116 4.62139 22.4067C4.79128 22.4054 4.95933 22.3742 5.1166 22.315L5.94798 22.0083C6.42759 21.8325 6.93916 21.7425 7.45529 21.7433ZM14.9973 21.2433C13.6565 21.2433 12.3459 20.8766 11.2312 20.1896C10.1165 19.5025 9.24777 18.526 8.73501 17.3836C8.22225 16.2411 8.08846 14.9841 8.35055 13.7716C8.61265 12.559 9.25886 11.4454 10.2074 10.5716C11.156 9.69775 12.3643 9.10302 13.6795 8.86261C14.9947 8.62221 16.3576 8.74693 17.5959 9.221C18.8342 9.69507 19.8922 10.4972 20.6361 11.5259C21.3799 12.5546 21.7762 13.7636 21.7748 15C21.7729 16.6571 21.0582 18.2457 19.7876 19.4175C18.517 20.5892 16.7942 21.2482 14.9973 21.25V21.2433ZM14.9973 11.2433C14.1933 11.2433 13.4074 11.4631 12.7388 11.8749C12.0702 12.2866 11.549 12.8719 11.241 13.5567C10.933 14.2416 10.8521 14.9952 11.0084 15.7225C11.1647 16.4497 11.5513 17.1179 12.1193 17.6426C12.6873 18.1673 13.4112 18.525 14.1995 18.6705C14.9879 18.8159 15.8053 18.7426 16.5485 18.4598C17.2916 18.177 17.9272 17.6974 18.3749 17.0816C18.8226 16.4658 19.0624 15.7414 19.0638 15C19.0624 14.0058 18.6335 13.0528 17.8712 12.3498C17.1088 11.6468 16.0754 11.2513 14.9973 11.25V11.2433Z" fill="black"/>
</svg>
