<svg width="25" height="25" viewBox="0 0 25 25" fill="none" xmlns="http://www.w3.org/2000/svg">
<path d="M18.7507 25H6.25095C5.42249 24.9988 4.62826 24.6314 4.04245 23.9782C3.45663 23.325 3.12707 22.4395 3.12602 21.5158V9.64886L1.655 10.8416C1.47753 10.9866 1.2632 11.0647 1.04317 11.0646C0.822966 11.0648 0.608344 10.9873 0.430107 10.8431C0.251871 10.6989 0.119182 10.4955 0.0510824 10.262C-0.0170175 10.0285 -0.0170277 9.77694 0.0510531 9.54344C0.119134 9.30994 0.251806 9.10649 0.430031 8.96229L10.6587 0.666158C11.193 0.233201 11.8364 0 12.4969 0C13.1573 0 13.8008 0.233201 14.335 0.666158L24.5703 8.96229C24.6811 9.05187 24.7749 9.16493 24.8464 9.295C24.918 9.42508 24.9658 9.5696 24.9872 9.72031C25.0086 9.87103 25.0031 10.025 24.9711 10.1733C24.9391 10.3216 24.8811 10.4615 24.8005 10.5848C24.7032 10.7324 24.5762 10.8525 24.4297 10.9356C24.2833 11.0186 24.1214 11.0623 23.9571 11.0631C23.7371 11.0635 23.5226 10.9854 23.3453 10.8401L21.8743 9.6474V21.5128C21.8739 22.4368 21.5449 23.3229 20.9592 23.9767C20.3736 24.6304 19.5794 24.9984 18.7507 25ZM11.4587 12.225H13.5416C14.3699 12.2258 15.1641 12.5929 15.75 13.2458C16.3358 13.8988 16.6655 14.7842 16.6665 15.7078V22.6762H18.7507C19.0269 22.6758 19.2918 22.5533 19.4871 22.3355C19.6825 22.1176 19.7924 21.8223 19.7927 21.5143V7.9603L13.114 2.54251C12.9357 2.39818 12.7211 2.32044 12.5008 2.32044C12.2805 2.32044 12.0659 2.39818 11.8877 2.54251L5.20887 7.9603V21.5143C5.20922 21.8223 5.31912 22.1176 5.51447 22.3355C5.70983 22.5533 5.97468 22.6758 6.25095 22.6762H8.3338V15.7078C8.33484 14.7842 8.66445 13.8988 9.2503 13.2458C9.83615 12.5929 10.6304 12.2258 11.4587 12.225ZM11.4587 14.5473C11.1826 14.5473 10.9177 14.6695 10.7223 14.8871C10.5269 15.1047 10.417 15.3998 10.4166 15.7078V22.6762H14.5837V15.7078C14.5833 15.3998 14.4734 15.1047 14.278 14.8871C14.0826 14.6695 13.8177 14.5473 13.5416 14.5473H11.4587Z" fill="black"/>
</svg>
