<svg width="251" height="208" viewBox="0 0 251 208" fill="none" xmlns="http://www.w3.org/2000/svg">
<g clip-path="url(#clip0_107_175)">
<path d="M13.8699 207.892C15.2363 207.383 16.5053 206.531 17.5998 205.39C18.6942 204.249 19.5912 202.841 20.2361 201.254C20.881 199.666 21.2604 197.931 21.3512 196.154C21.4419 194.378 21.2421 192.597 20.764 190.92C19.7554 187.366 17.4696 184.746 16.107 181.435C14.7722 178.187 14.4605 174.432 15.2333 170.91C16.006 167.389 17.8072 164.357 20.282 162.411C20.5662 162.186 20.8578 161.977 21.1568 161.784C21.4391 161.601 21.1894 161.068 20.9072 161.251C18.3538 162.906 16.351 165.634 15.2526 168.953C14.1542 172.273 14.0309 175.97 14.9045 179.392C15.3863 181.168 16.0833 182.841 16.9712 184.354C17.8239 185.876 18.7566 187.336 19.4934 188.955C20.2502 190.6 20.7049 192.435 20.8248 194.327C20.9446 196.218 20.7265 198.12 20.1862 199.893C19.6863 201.458 18.9411 202.882 17.9944 204.082C17.0477 205.282 15.9185 206.235 14.6731 206.883C14.3675 207.041 14.0551 207.177 13.7385 207.297C13.6773 207.321 13.626 207.374 13.5953 207.444C13.5646 207.514 13.5569 207.597 13.574 207.674C13.591 207.751 13.6314 207.817 13.6866 207.858C13.7418 207.898 13.8075 207.911 13.8699 207.892L13.8699 207.892Z" fill="#F0F0F0"/>
<path d="M21.0457 167.545C23.7472 167.545 25.9373 164.811 25.9373 161.439C25.9373 158.066 23.7472 155.332 21.0457 155.332C18.3441 155.332 16.1541 158.066 16.1541 161.439C16.1541 164.811 18.3441 167.545 21.0457 167.545Z" fill="#F0F0F0"/>
<path d="M18.2941 182.811C19.9826 182.811 21.3514 181.102 21.3514 178.994C21.3514 176.887 19.9826 175.178 18.2941 175.178C16.6057 175.178 15.2369 176.887 15.2369 178.994C15.2369 181.102 16.6057 182.811 18.2941 182.811Z" fill="#F0F0F0"/>
<path d="M170.995 112.098C169.628 111.588 168.359 110.737 167.265 109.596C166.171 108.454 165.274 107.047 164.629 105.459C163.984 103.872 163.604 102.137 163.514 100.36C163.423 98.5834 163.623 96.8024 164.101 95.1252C165.109 91.5713 167.395 88.9517 168.758 85.6408C170.092 82.3922 170.404 78.6372 169.631 75.1159C168.859 71.5946 167.058 68.5623 164.583 66.6164C164.299 66.3917 164.007 66.1827 163.708 65.9896C163.426 65.8061 163.675 65.2733 163.957 65.4567C166.511 67.1114 168.514 69.8394 169.612 73.1588C170.711 76.4782 170.834 80.1754 169.96 83.5973C169.478 85.3734 168.781 87.0468 167.894 88.5592C167.041 90.0819 166.108 91.5416 165.371 93.1605C164.615 94.806 164.16 96.6408 164.04 98.5324C163.92 100.424 164.138 102.325 164.679 104.099C165.178 105.663 165.924 107.087 166.87 108.288C167.817 109.488 168.946 110.44 170.192 111.088C170.497 111.247 170.81 111.383 171.126 111.503C171.187 111.527 171.239 111.579 171.269 111.649C171.3 111.72 171.308 111.802 171.291 111.879C171.274 111.957 171.233 112.022 171.178 112.063C171.123 112.104 171.057 112.116 170.995 112.098H170.995Z" fill="#F0F0F0"/>
<path d="M163.819 71.7504C166.521 71.7504 168.711 69.0165 168.711 65.644C168.711 62.2715 166.521 59.5376 163.819 59.5376C161.118 59.5376 158.928 62.2715 158.928 65.644C158.928 69.0165 161.118 71.7504 163.819 71.7504Z" fill="#F0F0F0"/>
<path d="M166.571 87.0166C168.259 87.0166 169.628 85.3079 169.628 83.2001C169.628 81.0923 168.259 79.3835 166.571 79.3835C164.882 79.3835 163.513 81.0923 163.513 83.2001C163.513 85.3079 164.882 87.0166 166.571 87.0166Z" fill="#F0F0F0"/>
<path d="M126.61 49.2188H125.698V18.0434C125.698 15.6739 125.324 13.3277 124.598 11.1385C123.871 8.94939 122.807 6.9603 121.465 5.28481C120.123 3.60932 118.529 2.28025 116.776 1.37348C115.022 0.466712 113.142 2.0048e-06 111.244 0H58.3351C54.5017 -9.1098e-06 50.8253 1.90098 48.1147 5.28477C45.4041 8.66856 43.8813 13.258 43.8812 18.0434V189.074C43.8812 191.443 44.2551 193.789 44.9815 195.979C45.7078 198.168 46.7725 200.157 48.1147 201.832C49.4568 203.508 51.0502 204.837 52.8038 205.744C54.5574 206.65 56.437 207.117 58.3351 207.117H111.244C115.078 207.117 118.754 205.216 121.465 201.832C124.175 198.449 125.698 193.859 125.698 189.074V71.4099H126.61V49.2188Z" fill="#CACACA"/>
<path d="M111.827 4.69423H104.921C105.239 5.66628 105.36 6.72092 105.274 7.76524C105.188 8.80956 104.898 9.81151 104.429 10.6828C103.96 11.5541 103.326 12.2681 102.584 12.7618C101.842 13.2554 101.014 13.5137 100.173 13.5138H69.8621C69.0211 13.5137 68.1931 13.2554 67.4509 12.7618C66.7088 12.2681 66.0752 11.5542 65.6062 10.6828C65.1371 9.81151 64.8469 8.80956 64.761 7.76523C64.6752 6.72091 64.7965 5.66627 65.1141 4.69421H58.6635C57.246 4.69421 55.8424 5.04274 54.5328 5.71991C53.2232 6.39707 52.0333 7.3896 51.031 8.64084C50.0287 9.89207 49.2336 11.3775 48.6912 13.0123C48.1487 14.6471 47.8695 16.3993 47.8695 18.1688V188.948C47.8695 190.718 48.1487 192.47 48.6912 194.105C49.2336 195.739 50.0287 197.225 51.031 198.476C52.0333 199.727 53.2232 200.72 54.5328 201.397C55.8424 202.074 57.246 202.423 58.6635 202.423H111.827C113.245 202.423 114.649 202.074 115.958 201.397C117.268 200.72 118.458 199.727 119.46 198.476C120.462 197.225 121.257 195.74 121.8 194.105C122.342 192.47 122.621 190.718 122.621 188.948V188.948V18.1688C122.621 16.3993 122.342 14.6471 121.8 13.0123C121.257 11.3775 120.462 9.89208 119.46 8.64084C118.458 7.38961 117.268 6.39708 115.958 5.71991C114.649 5.04275 113.245 4.69422 111.827 4.69423V4.69423Z" fill="white"/>
<path d="M106.456 148.632C97.2298 148.425 97.2312 131.309 106.456 131.105C115.681 131.311 115.68 148.427 106.456 148.632Z" fill="white"/>
<path d="M106.456 148.632C97.2298 148.425 97.2312 131.309 106.456 131.105C115.681 131.311 115.68 148.427 106.456 148.632ZM106.456 131.636C97.7889 131.83 97.7903 147.908 106.456 148.101C115.122 147.906 115.121 131.828 106.456 131.636V131.636Z" fill="#E6E6E6"/>
<path d="M107.955 135.376C106.224 135.438 102.859 134.666 102.857 137.997C102.907 140.157 102.288 144.358 104.956 144.36C106.687 144.299 110.053 145.071 110.054 141.74C110.005 139.579 110.623 135.378 107.955 135.376Z" fill="#CACACA"/>
<path d="M108.405 137.996C108.288 137.992 108.177 137.931 108.096 137.826C108.014 137.721 107.969 137.581 107.969 137.435C107.969 137.289 108.015 137.149 108.097 137.044C108.179 136.94 108.29 136.879 108.407 136.876C108.524 136.88 108.635 136.941 108.716 137.046C108.798 137.151 108.843 137.291 108.843 137.437C108.842 137.583 108.797 137.723 108.715 137.828C108.633 137.932 108.522 137.993 108.405 137.996V137.996Z" fill="white"/>
<path d="M106.456 138.371C108.012 138.342 108.012 141.395 106.456 141.366C104.899 141.394 104.899 138.342 106.456 138.371ZM106.456 137.622C104.121 137.579 104.121 142.157 106.456 142.114C108.79 142.157 108.79 137.579 106.456 137.622Z" fill="white"/>
<path d="M63.9789 148.632C54.753 148.425 54.7544 131.309 63.9792 131.105C73.2047 131.311 73.2033 148.427 63.9789 148.632Z" fill="white"/>
<path d="M63.9789 148.632C54.753 148.425 54.7544 131.309 63.9792 131.105C73.2047 131.311 73.2033 148.427 63.9789 148.632ZM63.9789 131.636C55.3121 131.83 55.3135 147.908 63.9791 148.101C72.6456 147.906 72.6442 131.828 63.9789 131.636V131.636Z" fill="#E6E6E6"/>
<path d="M67.7904 137.657C67.5719 137.975 67.3344 138.271 67.0798 138.544C66.7649 142.822 64.6254 143.793 62.9076 143.793C61.6726 143.793 60.6549 143.291 60.6887 143.153C62.5211 143.207 62.6772 142.268 62.6772 142.268C61.6127 142.071 61.3993 141.204 61.3993 141.204C61.4947 141.266 61.6054 141.283 61.7101 141.25C61.8148 141.218 61.9061 141.138 61.9667 141.027C61.6544 140.937 61.3798 140.706 61.1963 140.378C61.0127 140.051 60.9334 139.649 60.9737 139.252C61.1785 139.437 61.4177 139.554 61.6686 139.59C61.5411 139.395 60.4662 137.787 61.113 136.954C61.4532 137.556 61.9077 138.045 62.4359 138.375C62.9641 138.705 63.5496 138.866 64.14 138.845C64.0957 138.573 64.1 138.293 64.1528 138.023C64.2056 137.754 64.3055 137.503 64.4454 137.288C64.5853 137.072 64.7616 136.898 64.9617 136.778C65.1618 136.658 65.3807 136.595 65.6028 136.593C66.597 136.593 66.8105 137.303 66.8105 137.303L67.5211 136.77C67.5067 136.77 67.4351 137.657 67.0799 137.834L67.7904 137.657Z" fill="#CACACA"/>
<path d="M85.2172 148.632C75.9914 148.425 75.9928 131.309 85.2176 131.105C94.4431 131.311 94.4417 148.427 85.2172 148.632Z" fill="white"/>
<path d="M85.2173 148.632C75.9914 148.425 75.9929 131.309 85.2176 131.105C94.4431 131.311 94.4416 148.427 85.2173 148.632ZM85.2173 131.636C76.5505 131.83 76.5519 147.908 85.2175 148.101C93.884 147.906 93.8826 131.828 85.2173 131.636V131.636Z" fill="#E6E6E6"/>
<path d="M89.0853 139.897C89.0855 141.056 88.7542 142.178 88.1511 143.059C87.5481 143.941 86.7127 144.525 85.7954 144.707V141.305H86.7037L86.8768 139.897H85.7954C85.759 138.724 85.7225 138.066 86.9224 138.223V137.026C85.1252 136.532 84.3755 137.669 84.5773 139.897H83.5869V141.305H84.5773V144.705C79.9157 143.81 80.4636 135.007 85.185 135.029C86.2193 135.029 87.2112 135.542 87.9426 136.454C88.6741 137.367 89.0851 138.605 89.0853 139.896V139.897Z" fill="#CACACA"/>
<path d="M112.126 97.3366H58.365C58.0335 97.3362 57.7158 97.1716 57.4814 96.879C57.247 96.5864 57.1151 96.1897 57.1148 95.7759V54.2599C57.1151 53.8461 57.247 53.4494 57.4814 53.1568C57.7158 52.8642 58.0335 52.6996 58.365 52.6991H112.126C112.457 52.6996 112.775 52.8642 113.01 53.1568C113.244 53.4494 113.376 53.8461 113.376 54.2599V95.7759C113.376 96.1897 113.244 96.5864 113.01 96.879C112.775 97.1716 112.457 97.3362 112.126 97.3366V97.3366Z" fill="white"/>
<path d="M112.126 97.3366H58.365C58.0335 97.3362 57.7158 97.1716 57.4814 96.879C57.247 96.5864 57.1151 96.1897 57.1148 95.7759V54.2599C57.1151 53.8461 57.247 53.4494 57.4814 53.1568C57.7158 52.8642 58.0335 52.6996 58.365 52.6991H112.126C112.457 52.6996 112.775 52.8642 113.01 53.1568C113.244 53.4494 113.376 53.8461 113.376 54.2599V95.7759C113.376 96.1897 113.244 96.5864 113.01 96.879C112.775 97.1716 112.457 97.3362 112.126 97.3366V97.3366ZM58.365 53.3234C58.1661 53.3237 57.9755 53.4224 57.8348 53.598C57.6942 53.7736 57.6151 54.0116 57.6149 54.2599V95.7759C57.6151 96.0242 57.6942 96.2622 57.8348 96.4378C57.9755 96.6133 58.1661 96.7121 58.365 96.7123H112.126C112.325 96.7121 112.515 96.6133 112.656 96.4378C112.797 96.2622 112.876 96.0242 112.876 95.7759V54.2599C112.876 54.0116 112.797 53.7736 112.656 53.598C112.515 53.4224 112.325 53.3237 112.126 53.3234H58.365Z" fill="#CACACA"/>
<path d="M101.499 71.5843H68.9922C68.6944 71.583 68.4091 71.4345 68.1989 71.1712C67.9887 70.9079 67.8706 70.5513 67.8706 70.1796C67.8706 69.8078 67.9887 69.4513 68.1989 69.188C68.4091 68.9247 68.6944 68.7761 68.9922 68.7749H101.499C101.647 68.7743 101.794 68.8102 101.93 68.8805C102.067 68.9508 102.192 69.0542 102.297 69.1847C102.402 69.3152 102.485 69.4702 102.542 69.641C102.598 69.8117 102.628 69.9947 102.628 70.1796C102.628 70.3644 102.598 70.5475 102.542 70.7182C102.485 70.8889 102.402 71.044 102.297 71.1745C102.192 71.305 102.067 71.4083 101.93 71.4787C101.794 71.549 101.647 71.5849 101.499 71.5843Z" fill="#FFC33E"/>
<path d="M101.499 81.261H68.9922C68.6944 81.2598 68.4091 81.1112 68.1989 80.8479C67.9887 80.5847 67.8706 80.2281 67.8706 79.8563C67.8706 79.4846 67.9887 79.128 68.1989 78.8647C68.4091 78.6014 68.6944 78.4529 68.9922 78.4517H101.499C101.647 78.4511 101.794 78.4869 101.93 78.5573C102.067 78.6276 102.192 78.731 102.297 78.8614C102.402 78.9919 102.485 79.147 102.542 79.3177C102.598 79.4884 102.628 79.6715 102.628 79.8563C102.628 80.0412 102.598 80.2242 102.542 80.3949C102.485 80.5657 102.402 80.7207 102.297 80.8512C102.192 80.9817 102.067 81.0851 101.93 81.1554C101.794 81.2257 101.647 81.2616 101.499 81.261Z" fill="#FFC33E"/>
<path d="M168.988 132.81C168.936 133.049 168.9 133.293 168.879 133.539L153.156 143.847L149.505 140.976L145.315 147.288L151.383 153.153C151.873 153.627 152.473 153.89 153.093 153.902C153.713 153.913 154.319 153.674 154.82 153.219L171.167 138.395C171.872 138.761 172.649 138.85 173.395 138.651C174.142 138.452 174.822 137.974 175.346 137.281C175.869 136.587 176.211 135.711 176.327 134.769C176.442 133.827 176.324 132.864 175.99 132.007C175.656 131.15 175.12 130.441 174.455 129.973C173.79 129.506 173.027 129.302 172.267 129.389C171.506 129.476 170.786 129.85 170.2 130.461C169.614 131.073 169.191 131.892 168.988 132.81V132.81Z" fill="#FFB6B6"/>
<path d="M187.944 202.657L191.097 200.126L184.777 183.742L180.124 187.477L187.944 202.657Z" fill="#FFB6B6"/>
<path d="M186.478 202.017L192.686 197.033L192.687 197.033C193.736 196.191 195.01 195.903 196.23 196.234C197.449 196.564 198.513 197.486 199.188 198.796L199.27 198.956L189.105 207.117L186.478 202.017Z" fill="#2F2E41"/>
<path d="M142.524 174.514L166.723 155.173C166.723 155.173 171.17 154.637 173.838 161.203L189.955 190.103L183.079 195.911L165.195 172.729L152.923 187.88C152.923 187.88 171.004 184.179 170.392 199.063C169.907 210.875 145.161 206.823 134.966 204.648C133.03 204.253 131.187 203.332 129.568 201.948C127.949 200.565 126.594 198.753 125.599 196.642C124.505 194.275 123.918 191.587 124.836 189.046C127.285 182.27 142.524 174.514 142.524 174.514Z" fill="#2F2E41"/>
<path d="M130.528 190.679L123.554 188.917L125.541 146.189L133.566 133.919L138.346 132.863C139.772 132.54 141.242 132.898 142.466 133.865C143.69 134.831 144.578 136.337 144.955 138.083L147.062 147.693C150.637 155.25 145.629 164.013 145.167 164.791L145.427 178.044L130.528 190.679Z" fill="#FFC33E"/>
<path d="M137.021 135.593L137.464 133.639C137.464 133.639 142.265 129.221 149.603 140.67L146.087 148.494L138.444 148.113L137.021 135.593Z" fill="#FFC33E"/>
<path d="M148.067 120.387C149.428 127.349 144.065 127.866 137.705 129.803C131.344 131.74 126.393 134.363 125.033 127.401C123.673 120.44 123.78 107.333 132.779 104.593C142.087 101.759 146.707 113.426 148.067 120.387Z" fill="#2F2E41"/>
<path d="M135.773 130.087C140.179 130.087 143.751 125.628 143.751 120.128C143.751 114.629 140.179 110.17 135.773 110.17C131.368 110.17 127.796 114.629 127.796 120.128C127.796 125.628 131.368 130.087 135.773 130.087Z" fill="#FFB6B6"/>
<path d="M126.634 121.906L129.699 120.972L130.128 115.834L131.322 120.478L132.787 120.032L133.037 117.035L133.733 119.744L144.619 116.429C144.357 115.084 143.884 113.817 143.229 112.7C142.574 111.583 141.749 110.638 140.801 109.919C139.854 109.2 138.802 108.721 137.706 108.509C136.61 108.298 135.492 108.358 134.414 108.686L132.836 109.166C131.759 109.494 130.744 110.084 129.849 110.902C128.955 111.72 128.198 112.749 127.622 113.932C127.046 115.115 126.662 116.428 126.492 117.797C126.323 119.165 126.371 120.561 126.634 121.906V121.906Z" fill="#2F2E41"/>
<path d="M226.188 134.042H172.427C172.095 134.042 171.778 133.877 171.543 133.585C171.309 133.292 171.177 132.895 171.177 132.482V90.9655C171.177 90.5517 171.309 90.155 171.543 89.8624C171.778 89.5699 172.095 89.4053 172.427 89.4048H226.188C226.519 89.4053 226.837 89.5699 227.071 89.8624C227.306 90.155 227.438 90.5517 227.438 90.9655V132.482C227.438 132.895 227.306 133.292 227.071 133.585C226.837 133.877 226.519 134.042 226.188 134.042Z" fill="white"/>
<path d="M226.188 134.042H172.427C172.095 134.042 171.778 133.877 171.543 133.585C171.309 133.292 171.177 132.895 171.177 132.482V90.9655C171.177 90.5517 171.309 90.155 171.543 89.8624C171.778 89.5699 172.095 89.4053 172.427 89.4048H226.188C226.519 89.4053 226.837 89.5699 227.071 89.8624C227.306 90.155 227.438 90.5517 227.438 90.9655V132.482C227.438 132.895 227.306 133.292 227.071 133.585C226.837 133.877 226.519 134.042 226.188 134.042ZM172.427 90.0291C172.228 90.0294 172.037 90.1281 171.897 90.3037C171.756 90.4792 171.677 90.7173 171.677 90.9656V132.482C171.677 132.73 171.756 132.968 171.897 133.143C172.037 133.319 172.228 133.418 172.427 133.418H226.188C226.387 133.418 226.577 133.319 226.718 133.143C226.859 132.968 226.938 132.73 226.938 132.482V90.9656C226.938 90.7173 226.859 90.4792 226.718 90.3037C226.577 90.1281 226.387 90.0294 226.188 90.0291H172.427Z" fill="#CACACA"/>
<path d="M215.561 108.29H183.054C182.906 108.29 182.76 108.254 182.623 108.184C182.486 108.113 182.362 108.01 182.257 107.879C182.152 107.749 182.069 107.594 182.013 107.423C181.956 107.253 181.927 107.07 181.927 106.885C181.927 106.7 181.956 106.518 182.013 106.347C182.069 106.176 182.152 106.022 182.257 105.891C182.362 105.761 182.486 105.657 182.623 105.587C182.76 105.516 182.906 105.48 183.054 105.48H215.561C215.859 105.48 216.145 105.628 216.356 105.892C216.567 106.155 216.686 106.513 216.686 106.885C216.686 107.258 216.567 107.615 216.356 107.878C216.145 108.142 215.859 108.29 215.561 108.29V108.29Z" fill="#FFC33E"/>
<path d="M215.561 117.967H183.054C182.906 117.967 182.759 117.932 182.622 117.861C182.485 117.791 182.36 117.688 182.255 117.557C182.15 117.427 182.067 117.272 182.01 117.101C181.953 116.93 181.924 116.747 181.924 116.562C181.924 116.377 181.953 116.194 182.01 116.023C182.067 115.852 182.15 115.697 182.255 115.567C182.36 115.436 182.485 115.333 182.622 115.263C182.759 115.192 182.906 115.156 183.054 115.157H215.561C215.858 115.159 216.143 115.307 216.353 115.571C216.563 115.834 216.681 116.19 216.681 116.562C216.681 116.933 216.563 117.29 216.353 117.553C216.143 117.816 215.858 117.965 215.561 117.967V117.967Z" fill="#FFC33E"/>
<path d="M149.435 169.372C149.243 169.435 149.056 169.516 148.874 169.615L133.909 157.68L134.096 152.299L127.627 150.885L126.555 160.371C126.468 161.137 126.583 161.918 126.882 162.596C127.181 163.274 127.648 163.812 128.213 164.131L146.63 174.503C146.725 175.449 147.048 176.336 147.557 177.047C148.065 177.757 148.735 178.258 149.477 178.482C150.219 178.706 150.998 178.642 151.71 178.3C152.423 177.958 153.035 177.353 153.465 176.566C153.895 175.779 154.124 174.847 154.119 173.894C154.115 172.941 153.878 172.012 153.441 171.231C153.003 170.45 152.386 169.854 151.67 169.522C150.955 169.19 150.175 169.138 149.435 169.372H149.435Z" fill="#FFB6B6"/>
<path d="M134.776 135.87L133.648 134.095C133.648 134.095 129.119 132.274 126.674 139.907C124.228 147.54 126.521 154.982 126.521 154.982L137.221 156.127L137.985 143.724L134.776 135.87Z" fill="#FFC33E"/>
<path d="M250.694 208H0.305725C0.224641 208 0.146879 207.96 0.0895445 207.888C0.03221 207.817 0 207.72 0 207.618C0 207.517 0.03221 207.42 0.0895445 207.348C0.146879 207.277 0.224641 207.237 0.305725 207.237H250.694C250.775 207.237 250.853 207.277 250.91 207.348C250.968 207.42 251 207.517 251 207.618C251 207.72 250.968 207.817 250.91 207.888C250.853 207.96 250.775 208 250.694 208Z" fill="#CACACA"/>
</g>
<defs>
<clipPath id="clip0_107_175">
<rect width="251" height="208" fill="white"/>
</clipPath>
</defs>
</svg>
