<svg width="288" height="238" viewBox="0 0 288 238" fill="none" xmlns="http://www.w3.org/2000/svg">
<g clip-path="url(#clip0_107_264)">
<path d="M59.7887 156.548C46.7677 142.937 41.2683 128.737 44.303 116.565C48.1975 100.945 65.4988 90.1443 91.7707 86.9336L91.8677 87.8296C65.9616 90.9954 48.9242 101.553 45.124 116.796C42.1706 128.642 47.5902 142.531 60.3846 155.906L59.7887 156.548Z" fill="#F0F0F0"/>
<path d="M185.419 204.863C169.168 204.863 151.508 202.298 133.968 197.367C112.276 191.27 92.3868 182.066 76.4508 170.75L76.9227 170.001C92.782 181.261 112.583 190.423 134.185 196.496C153.706 201.984 173.374 204.526 191.055 203.855L191.085 204.756C189.218 204.827 187.329 204.863 185.419 204.863Z" fill="#F0F0F0"/>
<path d="M222.701 199.192L222.429 198.338C236.963 193.12 246.054 184.714 248.718 174.029C252.104 160.445 244.747 144.682 228.001 129.643C211.169 114.528 186.898 101.987 159.657 94.3292L159.874 93.4574C187.234 101.149 211.624 113.755 228.549 128.955C245.56 144.231 253.014 160.321 249.539 174.259C246.798 185.251 237.518 193.873 222.701 199.192Z" fill="#F0F0F0"/>
<path d="M89.2422 205.24C57.3101 190.201 32.7039 170.691 19.9568 150.303L20.6642 149.804C33.3232 170.051 57.8002 189.446 89.5864 204.415L89.2422 205.24Z" fill="#F0F0F0"/>
<path d="M201.513 231.292C198.22 231.292 194.87 231.214 191.464 231.058L191.5 230.157C216.919 231.326 239.347 228.096 256.363 220.814L256.681 221.651C241.837 228.002 222.918 231.292 201.513 231.292Z" fill="#F0F0F0"/>
<path d="M182.986 87.7422C177.708 85.9176 172.279 84.2187 166.851 82.6926C135.61 73.9107 104.901 70.7927 78.0406 73.6773L77.9552 72.78C104.915 69.8859 135.73 73.0114 167.068 81.8208C172.512 83.3513 177.956 85.0551 183.249 86.885L182.986 87.7422Z" fill="#F0F0F0"/>
<path d="M39.8319 157.901C26.8109 144.29 21.3115 130.09 24.3462 117.918C28.2407 102.297 45.542 91.497 71.8138 88.2863L71.9109 89.1823C46.0047 92.3481 28.9674 102.906 25.1672 118.148C22.2138 129.994 27.6334 143.884 40.4277 157.258L39.8319 157.901Z" fill="#F0F0F0"/>
<path d="M165.462 206.215C149.211 206.215 131.552 203.651 114.011 198.72C92.319 192.622 72.43 183.418 56.494 172.103L56.9659 171.354C72.8252 182.614 92.6261 191.776 114.228 197.848C133.749 203.336 153.417 205.879 171.098 205.208L171.129 206.109C169.261 206.18 167.373 206.216 165.462 206.215Z" fill="#F0F0F0"/>
<path d="M202.744 200.545L202.472 199.69C217.006 194.472 226.097 186.067 228.761 175.381C232.148 161.798 224.79 146.035 208.044 130.996C191.213 115.881 166.941 103.339 139.7 95.6819L139.918 94.8101C167.278 102.501 191.667 115.108 208.592 130.308C225.603 145.584 233.057 161.673 229.582 175.612C226.842 186.604 217.561 195.225 202.744 200.545Z" fill="#F0F0F0"/>
<path d="M69.2854 206.592C37.3533 191.554 12.7471 172.044 0 151.655L0.707416 151.156C13.3664 171.404 37.8434 190.798 69.6296 205.768L69.2854 206.592Z" fill="#F0F0F0"/>
<path d="M181.556 232.645C178.263 232.645 174.913 232.567 171.507 232.41L171.543 231.51C196.962 232.678 219.39 229.448 236.406 222.167L236.724 223.003C221.88 229.354 202.961 232.645 181.556 232.645Z" fill="#F0F0F0"/>
<path d="M163.029 89.0949C157.751 87.2703 152.323 85.5714 146.894 84.0453C115.653 75.2634 84.9439 72.1453 58.0838 75.03L57.9984 74.1326C84.9586 71.2385 115.773 74.364 147.111 83.1734C152.555 84.704 157.999 86.4077 163.292 88.2376L163.029 89.0949Z" fill="#F0F0F0"/>
<path d="M14.4746 133.748C20.5773 126.482 30.312 122.054 39.1339 124.705C30.9953 130.821 25.1563 139.796 22.6499 150.043C21.6967 153.999 21.0245 158.503 17.9265 160.922C15.9988 162.427 13.4446 162.786 11.074 162.444C8.70329 162.101 6.46171 161.122 4.25038 160.152L3.65533 160.207C5.36614 150.642 8.37196 141.013 14.4746 133.748Z" fill="#F2F2F2"/>
<path d="M39.1069 124.907C31.7312 126.804 25.1057 131.119 20.1715 137.242C19.0873 138.54 18.2025 140.011 17.5497 141.602C16.961 143.173 16.7792 144.883 17.0233 146.554C17.2214 148.117 17.5946 149.691 17.4314 151.278C17.3366 152.089 17.0814 152.869 16.6825 153.568C16.2837 154.267 15.7502 154.869 15.1171 155.333C13.5679 156.534 11.7047 157.073 9.86534 157.532C7.82311 158.042 5.69427 158.538 4.02953 159.979C3.82782 160.153 3.58445 159.811 3.78585 159.636C6.68222 157.129 10.7075 157.451 13.9121 155.63C15.4074 154.78 16.6705 153.447 16.9777 151.617C17.2462 150.017 16.8628 148.393 16.6493 146.812C16.3887 145.186 16.507 143.516 16.9941 141.95C17.5685 140.329 18.3984 138.824 19.4484 137.499C21.7674 134.476 24.5196 131.859 27.6042 129.744C31.112 127.309 34.9862 125.529 39.0592 124.481C39.3113 124.417 39.3574 124.843 39.1069 124.907L39.1069 124.907Z" fill="white"/>
<path d="M21.651 135.171C20.7961 134.153 20.3099 132.845 20.2793 131.481C20.2487 130.117 20.6758 128.785 21.4841 127.725C21.6484 127.511 21.9693 127.772 21.8048 127.986C21.0503 128.972 20.6527 130.212 20.6836 131.482C20.7145 132.752 21.1719 133.969 21.9734 134.912C22.1473 135.118 21.824 135.375 21.651 135.171H21.651Z" fill="white"/>
<path d="M16.8246 145.775C19.4454 145.96 22.0356 145.089 24.0786 143.336C24.2809 143.163 24.5243 143.505 24.3223 143.679C22.193 145.499 19.4958 146.399 16.7689 146.2C16.509 146.181 16.5661 145.756 16.8246 145.775Z" fill="white"/>
<path d="M31.2028 127.869C31.4563 128.337 31.8151 128.73 32.247 129.013C32.6789 129.297 33.1704 129.462 33.6773 129.494C33.9373 129.51 33.88 129.935 33.6217 129.919C33.0618 129.881 32.5192 129.698 32.0413 129.386C31.5635 129.073 31.1649 128.642 30.8805 128.128C30.8498 128.082 30.8368 128.025 30.8442 127.97C30.8515 127.914 30.8785 127.863 30.9198 127.828C30.9626 127.794 31.0164 127.779 31.0694 127.787C31.1224 127.795 31.1703 127.824 31.2028 127.869V127.869Z" fill="white"/>
<path d="M51.6567 154.866C51.4941 154.861 51.3315 154.856 51.1668 154.854C48.9803 154.801 46.7933 154.937 44.6275 155.26C44.4596 155.282 44.2899 155.307 44.123 155.334C38.9128 156.171 33.8942 158.028 29.3224 160.81C27.5041 161.919 25.7679 163.173 24.1288 164.562C21.8652 166.48 19.5547 168.75 16.9046 169.733C16.6293 169.839 16.348 169.927 16.0624 169.995L3.76438 160.973C3.74612 160.938 3.7258 160.905 3.7074 160.87L3.20087 160.533C3.28069 160.455 3.36506 160.377 3.44488 160.299C3.49101 160.253 3.53989 160.21 3.586 160.165C3.61762 160.135 3.64939 160.105 3.67633 160.077C3.68682 160.067 3.69745 160.057 3.70601 160.05C3.73295 160.021 3.76083 159.998 3.78583 159.972C4.25627 159.529 4.73046 159.089 5.2084 158.652C5.21034 158.649 5.21034 158.649 5.21502 158.648C8.86469 155.326 12.8076 152.299 17.0579 150.003C17.1858 149.934 17.3155 149.862 17.449 149.797C19.3702 148.774 21.3671 147.919 23.4195 147.24C24.5445 146.873 25.6862 146.566 26.8404 146.321C29.8238 145.695 32.8815 145.57 35.9013 145.953C41.9211 146.716 47.6441 149.515 51.3751 154.483C51.4705 154.611 51.5633 154.736 51.6567 154.866Z" fill="#F2F2F2"/>
<path d="M51.5212 155.012C44.5569 151.81 36.8198 151.021 29.4087 152.754C27.8071 153.098 26.2663 153.707 24.8433 154.559C23.4823 155.437 22.3677 156.687 21.6151 158.177C20.8871 159.551 20.2924 161.047 19.2624 162.21C18.7269 162.796 18.0805 163.257 17.3658 163.56C16.6511 163.863 15.8841 164.002 15.1152 163.968C13.1972 163.937 11.4042 163.175 9.67512 162.366C7.75534 161.468 5.77467 160.502 3.62834 160.589C3.36828 160.599 3.36819 160.17 3.62785 160.16C7.3621 160.009 10.3935 162.84 13.9848 163.434C15.6606 163.712 17.4252 163.455 18.7079 162.19C19.8296 161.084 20.4441 159.543 21.1699 158.144C21.884 156.679 22.9251 155.422 24.2022 154.482C25.5798 153.555 27.0959 152.884 28.6855 152.497C32.2511 151.566 35.9325 151.236 39.5948 151.519C43.7761 151.818 47.8786 152.873 51.7247 154.641C51.9627 154.75 51.7576 155.12 51.5212 155.012V155.012Z" fill="white"/>
<path d="M31.7641 152.047C31.659 150.687 32.0124 149.332 32.7614 148.223C33.5104 147.115 34.6061 146.325 35.8529 145.995C36.1054 145.929 36.2136 146.343 35.9608 146.408C34.7992 146.713 33.7786 147.449 33.0832 148.483C32.3877 149.517 32.0632 150.781 32.1682 152.046C32.1907 152.321 31.7865 152.32 31.7641 152.047Z" fill="white"/>
<path d="M21.8978 157.428C23.8856 159.251 26.4475 160.212 29.0726 160.118C29.3327 160.109 29.3329 160.538 29.0731 160.547C26.3412 160.639 23.677 159.634 21.6124 157.732C21.4157 157.551 21.7022 157.248 21.8978 157.428V157.428Z" fill="white"/>
<path d="M43.5307 152.323C43.4682 152.859 43.5318 153.402 43.7158 153.904C43.8998 154.407 44.1986 154.853 44.5851 155.203C44.7839 155.382 44.4972 155.684 44.2997 155.507C43.8743 155.118 43.545 154.625 43.3405 154.07C43.136 153.515 43.0626 152.916 43.1267 152.324C43.1283 152.268 43.1501 152.214 43.1875 152.174C43.225 152.134 43.2754 152.111 43.3284 152.109C43.3819 152.109 43.4332 152.132 43.4711 152.172C43.509 152.212 43.5304 152.267 43.5307 152.323H43.5307Z" fill="white"/>
<path d="M253.598 193.307C250.15 184.286 242.383 176.641 233.236 175.989C238.965 184.654 241.623 195.191 240.741 205.736C240.386 209.802 239.593 214.284 241.746 217.668C243.085 219.773 245.377 221.023 247.718 221.547C250.059 222.07 252.48 221.948 254.87 221.823L255.413 222.087C256.829 212.469 257.046 202.327 253.598 193.307Z" fill="#F2F2F2"/>
<path d="M233.197 176.189C239.543 180.608 244.417 187.037 247.127 194.564C247.737 196.173 248.105 197.875 248.216 199.606C248.273 201.296 247.903 202.971 247.144 204.458C246.463 205.859 245.613 207.209 245.265 208.761C245.097 209.559 245.09 210.385 245.245 211.186C245.399 211.986 245.711 212.743 246.161 213.407C247.24 215.091 248.824 216.263 250.411 217.352C252.173 218.561 254.021 219.788 255.133 221.739C255.267 221.975 255.605 221.74 255.471 221.504C253.536 218.108 249.643 216.975 247.202 214.116C246.062 212.782 245.295 211.075 245.585 209.243C245.838 207.64 246.713 206.247 247.415 204.835C248.175 203.396 248.592 201.781 248.629 200.132C248.601 198.401 248.296 196.687 247.726 195.064C246.499 191.389 244.735 187.942 242.5 184.849C239.967 181.304 236.881 178.245 233.377 175.805C233.16 175.654 232.981 176.039 233.197 176.189V176.189Z" fill="white"/>
<path d="M246.389 192.086C247.516 191.432 248.388 190.373 248.849 189.099C249.309 187.826 249.328 186.42 248.903 185.132C248.816 184.872 248.431 185.003 248.518 185.264C248.916 186.462 248.898 187.772 248.467 188.957C248.036 190.142 247.22 191.124 246.167 191.727C245.938 191.858 246.161 192.216 246.389 192.086V192.086Z" fill="white"/>
<path d="M247.578 203.796C245.051 203.034 242.887 201.29 241.518 198.91C241.382 198.674 241.045 198.909 241.18 199.145C242.609 201.619 244.864 203.43 247.496 204.216C247.746 204.29 247.827 203.87 247.578 203.796V203.796Z" fill="white"/>
<path d="M239.704 181.8C239.317 182.15 238.855 182.392 238.358 182.505C237.862 182.618 237.346 182.598 236.859 182.447C236.609 182.369 236.528 182.79 236.777 182.867C237.316 183.031 237.885 183.052 238.434 182.929C238.983 182.805 239.495 182.541 239.925 182.159C239.969 182.126 239.999 182.077 240.01 182.022C240.021 181.967 240.011 181.91 239.983 181.862C239.954 181.814 239.908 181.781 239.855 181.77C239.803 181.758 239.749 181.769 239.704 181.8V181.8Z" fill="white"/>
<path d="M211.895 199.926C212.049 199.98 212.204 200.033 212.36 200.09C214.436 200.82 216.453 201.729 218.39 202.806C218.541 202.886 218.693 202.971 218.842 203.056C223.484 205.703 227.623 209.243 231.048 213.495C232.41 215.189 233.648 216.989 234.752 218.882C236.277 221.496 237.734 224.46 239.919 226.331C240.145 226.529 240.382 226.712 240.629 226.879L255.068 222.77C255.096 222.743 255.126 222.72 255.154 222.693L255.738 222.557C255.687 222.455 255.633 222.351 255.582 222.249C255.553 222.19 255.521 222.132 255.492 222.072C255.471 222.033 255.451 221.994 255.434 221.957C255.428 221.944 255.421 221.931 255.415 221.922C255.399 221.885 255.38 221.853 255.364 221.82C255.061 221.235 254.754 220.651 254.442 220.069C254.441 220.065 254.442 220.065 254.437 220.063C252.051 215.632 249.296 211.373 246.02 207.694C245.921 207.584 245.822 207.469 245.717 207.361C244.231 205.711 242.621 204.193 240.903 202.822C239.96 202.074 238.981 201.378 237.972 200.735C235.36 199.08 232.52 197.872 229.555 197.154C223.644 195.725 217.368 196.318 212.281 199.666C212.151 199.752 212.024 199.837 211.895 199.926Z" fill="#F2F2F2"/>
<path d="M211.976 200.112C219.549 199.582 227.086 201.599 233.517 205.877C234.917 206.772 236.175 207.896 237.245 209.207C238.249 210.519 238.903 212.094 239.141 213.766C239.391 215.32 239.478 216.941 240.08 218.404C240.399 219.148 240.862 219.811 241.439 220.352C242.016 220.892 242.694 221.297 243.429 221.54C245.246 222.195 247.175 222.118 249.06 221.973C251.152 221.812 253.323 221.609 255.317 222.457C255.559 222.559 255.695 222.155 255.454 222.053C251.984 220.579 248.233 222.163 244.663 221.441C242.997 221.104 241.416 220.232 240.608 218.583C239.902 217.141 239.811 215.47 239.57 213.894C239.361 212.259 238.779 210.703 237.873 209.363C236.869 207.998 235.654 206.825 234.279 205.894C231.216 203.744 227.853 202.119 224.314 201.079C220.282 199.868 216.084 199.398 211.902 199.69C211.643 199.708 211.719 200.13 211.976 200.112V200.112Z" fill="white"/>
<path d="M231.522 204.371C232.052 203.127 232.148 201.725 231.793 200.413C231.439 199.102 230.657 197.967 229.587 197.211C229.37 197.059 229.137 197.41 229.354 197.562C230.352 198.264 231.08 199.321 231.408 200.543C231.736 201.765 231.641 203.071 231.142 204.226C231.034 204.477 231.415 204.62 231.522 204.371H231.522Z" fill="white"/>
<path d="M239.111 212.96C236.662 213.968 233.945 213.958 231.502 212.933C231.26 212.831 231.124 213.235 231.366 213.337C233.91 214.399 236.737 214.402 239.284 213.348C239.527 213.247 239.353 212.86 239.111 212.96V212.96Z" fill="white"/>
<path d="M220.353 200.432C220.242 200.958 220.01 201.447 219.678 201.855C219.345 202.262 218.923 202.576 218.448 202.767C218.204 202.865 218.379 203.252 218.621 203.155C219.144 202.941 219.611 202.594 219.979 202.145C220.347 201.695 220.606 201.157 220.733 200.576C220.749 200.523 220.746 200.464 220.723 200.413C220.7 200.362 220.66 200.323 220.611 200.302C220.56 200.283 220.505 200.286 220.457 200.31C220.408 200.335 220.371 200.378 220.353 200.432V200.432Z" fill="white"/>
<path d="M186.705 224.023C188.582 224.023 190.102 222.408 190.102 220.416C190.102 218.424 188.582 216.809 186.705 216.809C184.829 216.809 183.309 218.424 183.309 220.416C183.309 222.408 184.829 224.023 186.705 224.023Z" fill="#FD6584"/>
<path d="M198.738 162.588C200.614 162.588 202.135 160.973 202.135 158.981C202.135 156.989 200.614 155.374 198.738 155.374C196.862 155.374 195.341 156.989 195.341 158.981C195.341 160.973 196.862 162.588 198.738 162.588Z" fill="#E6E6E6"/>
<path d="M135.53 62.5375C137.406 62.5375 138.927 60.9226 138.927 58.9305C138.927 56.9384 137.406 55.3235 135.53 55.3235C133.654 55.3235 132.133 56.9384 132.133 58.9305C132.133 60.9226 133.654 62.5375 135.53 62.5375Z" fill="#E6E6E6"/>
<path d="M64.3458 197.294C64.3458 198.212 64.3743 199.13 64.4348 200.041C64.4988 201.129 64.6091 202.21 64.7586 203.283C65.2609 206.896 66.2208 210.421 67.6125 213.761C67.6836 213.927 67.7548 214.093 67.826 214.26L67.9327 214.509C67.9683 214.592 68.0074 214.675 68.043 214.755C68.0928 214.864 68.1391 214.97 68.1889 215.076C68.2494 215.208 68.3099 215.34 68.374 215.472C68.3811 215.488 68.3882 215.506 68.3989 215.525C68.4522 215.639 68.5021 215.748 68.559 215.862C68.5695 215.886 68.5814 215.91 68.5946 215.933C68.6551 216.062 68.7191 216.194 68.7832 216.323C68.8544 216.459 68.922 216.598 68.9931 216.735C69.1639 217.071 69.3419 217.403 69.5233 217.736C69.5767 217.834 69.6301 217.932 69.687 218.031C69.7368 218.121 69.7867 218.212 69.84 218.303C69.8756 218.363 69.9112 218.427 69.9468 218.488C70.0037 218.59 70.0607 218.688 70.1212 218.79C70.2528 219.013 70.388 219.236 70.5197 219.459H70.5233C70.5838 219.561 70.6478 219.663 70.7119 219.761V219.765C70.9005 220.067 71.0962 220.369 71.2919 220.668C71.2924 220.668 71.2928 220.668 71.2933 220.668C71.2937 220.668 71.2941 220.669 71.2944 220.669C71.2948 220.669 71.295 220.67 71.2952 220.67C71.2954 220.671 71.2955 220.671 71.2954 220.672C71.452 220.914 71.6157 221.148 71.7758 221.382V221.386C71.8826 221.533 71.9858 221.684 72.0925 221.832C72.1779 221.953 72.2669 222.077 72.3559 222.198C72.3737 222.225 72.395 222.247 72.4128 222.274V222.278C72.4377 222.312 72.4626 222.342 72.4875 222.376C72.8647 222.89 73.2538 223.392 73.6547 223.883L73.7187 223.963C73.7401 223.989 73.765 224.016 73.7864 224.046C73.8219 224.088 73.854 224.129 73.8895 224.171C73.9216 224.212 73.9572 224.254 73.9927 224.295C76.0826 226.795 78.4523 229.014 81.0492 230.904C81.3943 231.157 81.7466 231.403 82.0989 231.641C82.1879 231.701 82.2768 231.762 82.3658 231.818C82.3907 231.837 82.4191 231.856 82.4441 231.875C82.4939 231.905 82.5401 231.935 82.59 231.97C82.6362 232 82.6825 232.03 82.7323 232.06C82.9209 232.185 83.1131 232.306 83.3052 232.427C83.3515 232.457 83.4013 232.487 83.4511 232.517C83.4974 232.544 83.5472 232.574 83.597 232.604C83.597 232.608 83.597 232.608 83.6006 232.608H83.6041V232.612H83.6077C83.8461 232.759 84.0881 232.903 84.3336 233.043C84.4653 233.118 84.6005 233.198 84.7357 233.269C85.0417 233.447 85.3513 233.617 85.6609 233.779C85.7712 233.836 85.8851 233.893 85.9954 233.953C86.0879 233.999 86.1804 234.048 86.273 234.093C86.3014 234.108 86.3263 234.119 86.3512 234.135C86.4295 234.172 86.5042 234.21 86.5825 234.248C86.6679 234.29 86.7533 234.331 86.8352 234.373C86.9313 234.418 87.0238 234.463 87.1199 234.505C87.4757 234.675 87.8351 234.837 88.1945 234.992C89.4825 235.553 90.7988 236.037 92.1373 236.443C92.1978 236.462 92.2618 236.481 92.3259 236.5C92.8988 236.67 93.4753 236.825 94.0553 236.965C95.0695 237.214 96.0931 237.418 97.1262 237.577H97.1333C97.2579 237.596 97.3789 237.615 97.5034 237.634C97.5141 237.634 97.5248 237.637 97.539 237.637C97.539 237.641 97.539 237.641 97.5426 237.637C97.6778 237.656 97.8166 237.675 97.9518 237.694C97.961 237.697 97.9706 237.698 97.9803 237.698C98.1084 237.717 98.24 237.732 98.3681 237.747C98.5069 237.762 98.6457 237.777 98.7845 237.792C98.8912 237.804 98.998 237.815 99.1047 237.826C99.1139 237.83 99.1236 237.831 99.1332 237.83C99.2293 237.838 99.3254 237.849 99.4214 237.856H99.4357C99.5175 237.864 99.6029 237.872 99.6847 237.879C100.678 237.962 101.674 238 102.685 238C103.777 238 104.862 237.955 105.933 237.856H105.944C106.175 237.834 106.403 237.811 106.631 237.788C106.691 237.781 106.748 237.777 106.809 237.77C106.819 237.77 106.834 237.766 106.844 237.766C106.862 237.762 106.88 237.762 106.901 237.758C106.911 237.759 106.921 237.757 106.93 237.754C107.008 237.747 107.086 237.736 107.168 237.728L107.435 237.694C107.524 237.683 107.613 237.668 107.702 237.656C107.723 237.652 107.741 237.652 107.762 237.649C107.826 237.641 107.891 237.63 107.955 237.618C107.987 237.615 108.019 237.611 108.047 237.607C108.111 237.596 108.172 237.588 108.236 237.577H108.239C110.192 237.278 112.119 236.817 114.004 236.198C114.104 236.164 114.203 236.133 114.303 236.099C114.306 236.099 114.31 236.096 114.314 236.096C114.342 236.084 114.374 236.077 114.402 236.065C114.669 235.975 114.933 235.88 115.196 235.782C115.559 235.654 115.918 235.514 116.278 235.37C116.374 235.329 116.47 235.291 116.566 235.249C116.762 235.17 116.954 235.087 117.146 235.004C117.473 234.864 117.801 234.717 118.125 234.565C118.427 234.422 118.726 234.278 119.025 234.127C119.032 234.123 119.043 234.123 119.05 234.116C119.117 234.082 119.185 234.048 119.249 234.014H119.253C120.891 233.179 122.472 232.22 123.982 231.146C124.466 230.802 124.943 230.447 125.412 230.08C125.79 229.782 126.16 229.479 126.53 229.17C128.355 227.628 130.046 225.913 131.579 224.046V224.042C131.689 223.914 131.793 223.781 131.899 223.649C131.917 223.63 131.931 223.611 131.946 223.596C132.013 223.509 132.077 223.426 132.145 223.343V223.339C132.234 223.23 132.323 223.116 132.408 223.003C132.43 222.977 132.447 222.954 132.465 222.931V222.928C132.536 222.837 132.604 222.746 132.675 222.652C132.711 222.606 132.743 222.561 132.778 222.516V222.512C132.988 222.232 133.191 221.953 133.394 221.665C133.447 221.59 133.501 221.511 133.558 221.431C133.814 221.065 134.063 220.691 134.305 220.317V220.313C134.397 220.173 134.486 220.029 134.579 219.89C134.668 219.746 134.757 219.602 134.846 219.459C134.935 219.308 135.027 219.16 135.116 219.009L135.127 218.987C135.216 218.843 135.305 218.692 135.39 218.544C135.458 218.424 135.525 218.306 135.593 218.189C135.636 218.11 135.682 218.031 135.725 217.947C135.741 217.922 135.757 217.895 135.771 217.868C135.871 217.683 135.97 217.498 136.07 217.313C136.187 217.097 136.301 216.878 136.415 216.659C136.458 216.568 136.504 216.478 136.55 216.387C136.568 216.357 136.582 216.326 136.597 216.296C136.65 216.19 136.703 216.081 136.753 215.971C136.806 215.865 136.86 215.756 136.913 215.646C136.963 215.541 137.016 215.431 137.066 215.321C137.105 215.238 137.141 215.155 137.18 215.072C137.183 215.065 137.186 215.059 137.191 215.053C137.209 215.012 137.226 214.974 137.241 214.936C137.245 214.93 137.249 214.924 137.251 214.917C137.29 214.834 137.326 214.747 137.365 214.664C137.415 214.554 137.461 214.441 137.511 214.331C137.543 214.256 137.579 214.176 137.611 214.097C137.657 213.988 137.707 213.878 137.749 213.765C137.799 213.651 137.846 213.538 137.892 213.421C137.905 213.393 137.917 213.364 137.927 213.334C137.952 213.281 137.97 213.228 137.991 213.175C138.048 213.035 138.105 212.892 138.159 212.752C138.223 212.593 138.283 212.431 138.34 212.272C138.397 212.125 138.45 211.974 138.504 211.822L138.525 211.77C139.354 209.451 139.983 207.057 140.404 204.617V204.613C140.641 203.22 140.811 201.815 140.913 200.404C140.916 200.324 140.924 200.249 140.927 200.173C140.991 199.217 141.02 198.258 141.02 197.294C141.02 196.867 141.013 196.444 141.002 196.021C140.753 187.17 137.781 178.649 132.54 171.763C132.426 171.611 132.312 171.46 132.195 171.309C132.077 171.158 131.956 171.011 131.839 170.863C127.938 166.012 123.018 162.203 117.476 159.741C111.934 157.28 105.925 156.236 99.9337 156.693C93.942 157.15 88.1352 159.095 82.9815 162.372C77.8278 165.65 73.4714 170.167 70.2635 175.56C70.0891 175.855 69.9148 176.153 69.7475 176.452C69.5767 176.754 69.413 177.056 69.2494 177.362C66.0256 183.447 64.3366 190.313 64.3458 197.294Z" fill="#F2F2F2"/>
<path d="M101.161 170.668C107.465 172.386 113.925 173.376 120.429 173.621C121.413 173.678 122.399 173.671 123.381 173.6C125.541 173.407 127.391 172.686 129.451 172.292C130.441 172.103 131.545 171.965 132.542 171.761C132.311 171.458 132.077 171.158 131.838 170.862C129.688 171.055 127.505 171.686 125.329 171.98C121.63 172.479 117.486 171.922 114.682 170.547C113.321 169.88 112.279 169.048 110.923 168.378C110.739 168.277 110.539 168.212 110.334 168.186C109.943 168.174 109.557 168.28 109.221 168.493C106.946 169.712 103.644 170.703 100.579 170.157C100.351 170.347 100.785 170.563 101.161 170.668Z" fill="white"/>
<path d="M87.5978 174.959C87.5698 174.953 87.5417 174.949 87.5137 174.944C87.6315 174.866 87.7423 174.778 87.845 174.679L87.5978 174.959Z" fill="white"/>
<path d="M69.2501 177.364C70.5302 177.472 71.817 177.553 73.1105 177.606C74.094 177.663 75.0799 177.656 76.0626 177.585C78.2222 177.391 80.0721 176.672 82.1323 176.278C84.0204 175.917 86.3149 175.744 87.5137 174.944C84.4153 174.374 81.205 175.534 78.01 175.965C75.4256 176.302 72.8059 176.165 70.2654 175.559C69.9116 176.15 69.5732 176.751 69.2501 177.364Z" fill="white"/>
<path d="M84.7357 233.269C85.0417 233.447 85.3513 233.617 85.6609 233.779C85.7712 233.836 85.8851 233.893 85.9954 233.953C86.0879 233.999 86.1804 234.048 86.2729 234.093C86.3014 234.108 86.3263 234.12 86.3512 234.135C86.4295 234.172 86.5042 234.21 86.5825 234.248C86.6679 234.29 86.7533 234.331 86.8352 234.373C86.9313 234.418 87.0238 234.463 87.1199 234.505C87.4757 234.675 87.8351 234.837 88.1945 234.992C89.4825 235.553 90.7988 236.037 92.1373 236.443C92.1978 236.462 92.2618 236.481 92.3259 236.5C92.8988 236.67 93.4753 236.825 94.0553 236.965C95.0694 237.214 96.0931 237.418 97.1262 237.577H97.1333C97.2579 237.596 97.3789 237.615 97.5034 237.634C97.5141 237.634 97.5248 237.637 97.539 237.637C97.539 237.641 97.539 237.641 97.5426 237.637C97.6778 237.656 97.8166 237.675 97.9518 237.694C97.961 237.697 97.9706 237.698 97.9802 237.698C98.1084 237.717 98.24 237.732 98.3681 237.747C98.5069 237.762 98.6457 237.777 98.7845 237.792C98.8912 237.804 98.998 237.815 99.1047 237.826C99.1139 237.83 99.1235 237.831 99.1332 237.83C99.2293 237.838 99.3253 237.849 99.4214 237.857H99.4357C99.5175 237.864 99.6029 237.872 99.6847 237.879C100.678 237.962 101.674 238 102.685 238C103.777 238 104.862 237.955 105.933 237.857H105.944C106.175 237.834 106.403 237.811 106.631 237.788C106.691 237.781 106.748 237.777 106.809 237.77C106.819 237.77 106.834 237.766 106.844 237.766C106.862 237.762 106.88 237.762 106.901 237.758C106.911 237.759 106.921 237.757 106.93 237.754C107.008 237.747 107.086 237.736 107.168 237.728L107.435 237.694C107.524 237.683 107.613 237.668 107.702 237.656C107.723 237.652 107.741 237.652 107.762 237.649C107.826 237.641 107.891 237.63 107.955 237.618C107.987 237.615 108.019 237.611 108.047 237.607C108.111 237.596 108.172 237.588 108.236 237.577H108.239C110.192 237.278 112.119 236.817 114.004 236.198C114.104 236.164 114.203 236.133 114.303 236.1C113.843 233.824 112.897 231.692 111.538 229.866C110.179 228.041 108.443 226.572 106.464 225.573C106.953 225.077 107.291 224.438 107.435 223.736C107.527 223.284 107.535 222.817 107.457 222.362C107.378 221.906 107.216 221.472 106.98 221.084C106.518 220.331 105.793 219.803 104.965 219.618L99.6919 218.446C98.8429 218.271 97.963 218.458 97.2433 218.967C96.5237 219.477 96.0225 220.267 95.8487 221.167C95.7949 221.443 95.7711 221.724 95.7776 222.006C90.6997 225.595 87.0451 229.317 84.7357 233.269Z" fill="#FFC33E"/>
<path d="M100.307 216.234C106.375 216.234 111.294 211.011 111.294 204.568C111.294 198.125 106.375 192.902 100.307 192.902C94.2392 192.902 89.3202 198.125 89.3202 204.568C89.3202 211.011 94.2392 216.234 100.307 216.234Z" fill="#FFB8B8"/>
<path d="M93.4588 214.626C92.2871 213.776 91.0907 212.143 90.2919 210.919C89.2335 209.311 88.5052 207.484 88.1543 205.557C87.8034 203.63 87.8376 201.646 88.2548 199.735C88.3879 198.97 88.7149 198.259 89.2006 197.677C89.7181 197.133 90.5632 196.876 91.1948 197.26C91.0225 196.77 90.9465 196.248 90.9717 195.725C90.9969 195.203 91.1227 194.691 91.3412 194.222C91.7852 193.286 92.4284 192.473 93.2199 191.846C94.7336 190.609 96.5347 189.829 98.432 189.591C100.329 189.352 102.252 189.664 103.996 190.492C104.682 190.829 103.555 188.221 104.274 188.473C104.987 188.766 105.78 188.752 106.484 188.432C107.16 188.071 109.399 190.216 109.14 189.462C109.653 189.709 110.098 190.09 110.435 190.569C110.771 191.048 110.988 191.61 111.066 192.202C111.143 192.795 111.077 193.398 110.876 193.956C110.674 194.515 110.343 195.01 109.913 195.395C109.346 195.903 108.638 196.196 108.017 196.628C106.929 197.44 106.159 198.648 105.852 200.022C105.545 201.396 105.723 202.842 106.352 204.087C105.699 203.641 104.982 203.31 104.229 203.107C103.852 203.009 103.458 203.009 103.08 203.105C102.702 203.202 102.351 203.393 102.057 203.662C101.811 203.961 101.625 204.31 101.511 204.688C101.397 205.066 101.356 205.464 101.393 205.86C101.417 206.651 101.594 207.431 101.614 208.223C101.673 210.547 102.845 214.964 101.148 216.199C99.8093 217.174 95.0585 215.787 93.4588 214.626Z" fill="#2F2E41"/>
<path d="M287.639 14.0938H0.360662C0.264295 14.0915 0.172596 14.0493 0.105197 13.9761C0.0377991 13.9029 6.10352e-05 13.8046 6.10352e-05 13.7023C6.10352e-05 13.5999 0.0377991 13.5017 0.105197 13.4285C0.172596 13.3553 0.264295 13.3131 0.360662 13.3108H287.639C287.736 13.3131 287.827 13.3553 287.895 13.4285C287.962 13.5017 288 13.5999 288 13.7023C288 13.8046 287.962 13.9029 287.895 13.9761C287.827 14.0493 287.736 14.0915 287.639 14.0938V14.0938Z" fill="#CACACA"/>
<path d="M8.47826 8.6129C10.6693 8.6129 12.4455 6.68483 12.4455 4.30645C12.4455 1.92806 10.6693 0 8.47826 0C6.28723 0 4.51105 1.92806 4.51105 4.30645C4.51105 6.68483 6.28723 8.6129 8.47826 8.6129Z" fill="#3F3D56"/>
<path d="M22.1832 8.6129C24.3742 8.6129 26.1504 6.68483 26.1504 4.30645C26.1504 1.92806 24.3742 0 22.1832 0C19.9921 0 18.2159 1.92806 18.2159 4.30645C18.2159 6.68483 19.9921 8.6129 22.1832 8.6129Z" fill="#3F3D56"/>
<path d="M35.888 8.6129C38.0791 8.6129 39.8553 6.68483 39.8553 4.30645C39.8553 1.92806 38.0791 0 35.888 0C33.697 0 31.9208 1.92806 31.9208 4.30645C31.9208 6.68483 33.697 8.6129 35.888 8.6129Z" fill="#3F3D56"/>
<path d="M279.428 2.6341H269.69C269.498 2.62958 269.314 2.5451 269.179 2.39875C269.045 2.2524 268.969 2.05582 268.969 1.8511C268.969 1.64638 269.045 1.44981 269.179 1.30346C269.314 1.15711 269.498 1.07263 269.69 1.06812H279.428C279.621 1.07263 279.804 1.15711 279.939 1.30346C280.074 1.44981 280.149 1.64638 280.149 1.8511C280.149 2.05582 280.074 2.2524 279.939 2.39875C279.804 2.5451 279.621 2.62958 279.428 2.6341V2.6341Z" fill="#3F3D56"/>
<path d="M279.428 5.57038H269.69C269.498 5.56588 269.314 5.48141 269.179 5.33506C269.044 5.18871 268.969 4.99211 268.969 4.78738C268.969 4.58265 269.044 4.38606 269.179 4.23971C269.314 4.09336 269.498 4.00889 269.69 4.00439H279.428C279.621 4.00889 279.804 4.09336 279.939 4.23971C280.074 4.38606 280.149 4.58265 280.149 4.78738C280.149 4.99211 280.074 5.18871 279.939 5.33506C279.804 5.48141 279.621 5.56588 279.428 5.57038Z" fill="#3F3D56"/>
<path d="M279.428 8.50653H269.69C269.498 8.50204 269.314 8.41757 269.179 8.27122C269.044 8.12487 268.969 7.92827 268.969 7.72354C268.969 7.51881 269.044 7.32222 269.179 7.17587C269.314 7.02952 269.498 6.94505 269.69 6.94055H279.428C279.621 6.94505 279.804 7.02952 279.939 7.17587C280.074 7.32222 280.149 7.51881 280.149 7.72354C280.149 7.92827 280.074 8.12487 279.939 8.27122C279.804 8.41757 279.621 8.50204 279.428 8.50653Z" fill="#3F3D56"/>
<path d="M107.861 146.174C107.63 146.174 107.401 146.125 107.188 146.03C106.869 145.894 106.597 145.659 106.406 145.356C106.215 145.053 106.115 144.696 106.119 144.331V142.485C106.118 142.097 105.973 141.726 105.715 141.452C105.457 141.178 105.108 141.024 104.743 141.024C104.284 141.023 103.844 140.829 103.519 140.484C103.194 140.14 103.012 139.672 103.011 139.185V113.886C103.012 113.398 103.194 112.931 103.519 112.586C103.843 112.241 104.284 112.047 104.743 112.047H183.679C184.138 112.047 184.578 112.241 184.903 112.586C185.227 112.931 185.41 113.398 185.41 113.886V139.185C185.41 139.672 185.227 140.14 184.903 140.484C184.578 140.829 184.138 141.023 183.679 141.024H113.984C113.804 141.023 113.625 141.061 113.458 141.134C113.291 141.208 113.139 141.315 113.011 141.452L109.075 145.631C108.917 145.803 108.728 145.939 108.52 146.032C108.311 146.125 108.088 146.174 107.861 146.174V146.174Z" fill="white"/>
<path d="M107.861 146.552C107.583 146.552 107.308 146.493 107.051 146.379C106.667 146.215 106.339 145.932 106.109 145.567C105.879 145.201 105.759 144.771 105.763 144.331V142.485C105.763 142.198 105.655 141.922 105.464 141.719C105.273 141.516 105.013 141.402 104.743 141.402C104.189 141.401 103.659 141.167 103.267 140.751C102.876 140.336 102.656 139.772 102.655 139.185V113.886C102.656 113.298 102.876 112.735 103.267 112.319C103.659 111.903 104.189 111.67 104.743 111.669H183.679C184.232 111.67 184.763 111.903 185.154 112.319C185.545 112.735 185.766 113.298 185.766 113.886V139.185C185.766 139.772 185.545 140.336 185.154 140.751C184.763 141.167 184.232 141.401 183.679 141.402H113.984C113.85 141.401 113.718 141.429 113.594 141.483C113.47 141.538 113.358 141.618 113.263 141.719L109.327 145.899C109.135 146.105 108.907 146.269 108.656 146.381C108.404 146.494 108.134 146.552 107.861 146.552V146.552ZM104.743 112.425C104.378 112.425 104.028 112.579 103.77 112.853C103.512 113.127 103.367 113.498 103.367 113.886V139.185C103.367 139.572 103.512 139.943 103.77 140.217C104.028 140.491 104.378 140.645 104.743 140.646C105.202 140.646 105.642 140.84 105.967 141.185C106.291 141.53 106.474 141.997 106.475 142.485V144.331C106.475 144.62 106.555 144.903 106.707 145.143C106.858 145.383 107.073 145.57 107.324 145.681C107.575 145.791 107.852 145.82 108.119 145.764C108.386 145.708 108.631 145.569 108.823 145.364L112.76 141.185C112.92 141.013 113.111 140.877 113.321 140.785C113.532 140.692 113.757 140.645 113.984 140.646H183.679C184.043 140.645 184.393 140.491 184.651 140.217C184.909 139.943 185.054 139.572 185.055 139.185V113.886C185.054 113.498 184.909 113.127 184.651 112.853C184.393 112.579 184.043 112.425 183.679 112.425L104.743 112.425Z" fill="#3F3D56"/>
<path d="M176.895 123.5H112.887C112.642 123.5 112.408 123.397 112.235 123.214C112.062 123.03 111.965 122.781 111.965 122.521C111.965 122.262 112.062 122.013 112.235 121.829C112.408 121.646 112.642 121.542 112.887 121.542H176.895C177.14 121.542 177.374 121.646 177.547 121.829C177.72 122.013 177.817 122.262 177.817 122.521C177.817 122.781 177.72 123.03 177.547 123.214C177.374 123.397 177.14 123.5 176.895 123.5Z" fill="#FFC33E"/>
<path d="M176.778 127.659H112.887C112.642 127.659 112.408 127.556 112.235 127.373C112.062 127.189 111.965 126.94 111.965 126.68C111.965 126.421 112.062 126.172 112.235 125.988C112.408 125.805 112.642 125.701 112.887 125.701H176.778C177.022 125.701 177.257 125.805 177.43 125.988C177.603 126.172 177.7 126.421 177.7 126.68C177.7 126.94 177.603 127.189 177.43 127.373C177.257 127.556 177.022 127.659 176.778 127.659V127.659Z" fill="#E6E6E6"/>
<path d="M176.714 131.818H112.887C112.642 131.818 112.408 131.715 112.235 131.531C112.062 131.348 111.965 131.099 111.965 130.839C111.965 130.58 112.062 130.331 112.235 130.147C112.408 129.963 112.642 129.86 112.887 129.86H176.714C176.959 129.86 177.193 129.963 177.366 130.147C177.539 130.331 177.636 130.58 177.636 130.839C177.636 131.099 177.539 131.348 177.366 131.531C177.193 131.715 176.959 131.818 176.714 131.818V131.818Z" fill="#E6E6E6"/>
<path d="M277.696 108.121C277.696 109.039 277.668 109.957 277.607 110.868C277.543 111.956 277.433 113.037 277.283 114.11C276.781 117.723 275.821 121.248 274.429 124.588C274.358 124.754 274.287 124.92 274.216 125.086L274.109 125.336C274.074 125.419 274.034 125.502 273.999 125.581C273.949 125.691 273.903 125.797 273.853 125.903C273.792 126.035 273.732 126.167 273.668 126.299C273.661 126.314 273.654 126.333 273.643 126.352C273.59 126.466 273.54 126.575 273.483 126.688C273.472 126.713 273.46 126.737 273.447 126.76C273.387 126.889 273.323 127.021 273.259 127.149C273.187 127.285 273.12 127.425 273.049 127.561C272.878 127.898 272.7 128.23 272.518 128.563C272.465 128.661 272.412 128.759 272.355 128.857C272.305 128.948 272.255 129.039 272.202 129.129C272.166 129.19 272.131 129.254 272.095 129.315C272.038 129.417 271.981 129.515 271.921 129.617C271.789 129.84 271.654 130.063 271.522 130.286H271.519C271.458 130.388 271.394 130.49 271.33 130.588V130.592C271.141 130.894 270.946 131.196 270.75 131.495C270.749 131.495 270.749 131.495 270.749 131.495C270.748 131.495 270.748 131.495 270.747 131.496C270.747 131.496 270.747 131.497 270.747 131.497C270.746 131.498 270.746 131.498 270.746 131.499C270.59 131.74 270.426 131.975 270.266 132.209V132.213C270.159 132.36 270.056 132.511 269.949 132.659C269.864 132.779 269.775 132.904 269.686 133.025C269.668 133.051 269.647 133.074 269.629 133.101V133.104C269.604 133.138 269.579 133.169 269.554 133.203C269.177 133.717 268.788 134.219 268.387 134.71L268.323 134.79C268.302 134.816 268.277 134.843 268.255 134.873C268.22 134.914 268.188 134.956 268.152 134.997C268.12 135.039 268.085 135.081 268.049 135.122C265.959 137.622 263.589 139.841 260.993 141.731C260.647 141.984 260.295 142.23 259.943 142.468C259.854 142.528 259.765 142.588 259.676 142.645C259.651 142.664 259.623 142.683 259.598 142.702C259.548 142.732 259.502 142.762 259.452 142.796C259.406 142.827 259.359 142.857 259.31 142.887C259.121 143.012 258.929 143.133 258.737 143.253C258.69 143.284 258.641 143.314 258.591 143.344C258.544 143.371 258.495 143.401 258.445 143.431C258.445 143.435 258.445 143.435 258.441 143.435H258.438V143.439H258.434C258.196 143.586 257.954 143.73 257.708 143.869C257.577 143.945 257.441 144.024 257.306 144.096C257 144.274 256.691 144.444 256.381 144.606C256.271 144.663 256.157 144.72 256.046 144.78C255.954 144.825 255.861 144.874 255.769 144.92C255.74 144.935 255.716 144.946 255.691 144.961C255.612 144.999 255.538 145.037 255.459 145.075C255.374 145.116 255.288 145.158 255.207 145.199C255.111 145.245 255.018 145.29 254.922 145.332C254.566 145.502 254.207 145.664 253.847 145.819C252.559 146.38 251.243 146.864 249.905 147.27C249.844 147.289 249.78 147.308 249.716 147.327C249.143 147.497 248.567 147.652 247.987 147.791C246.972 148.041 245.949 148.245 244.916 148.404H244.908C244.784 148.423 244.663 148.441 244.538 148.46C244.528 148.46 244.517 148.464 244.503 148.464C244.503 148.468 244.503 148.468 244.499 148.464C244.364 148.483 244.225 148.502 244.09 148.521C244.081 148.524 244.071 148.525 244.062 148.525C243.933 148.543 243.802 148.559 243.674 148.574C243.535 148.589 243.396 148.604 243.257 148.619C243.151 148.63 243.044 148.642 242.937 148.653C242.928 148.656 242.918 148.658 242.909 148.657C242.813 148.664 242.716 148.676 242.62 148.683H242.606C242.524 148.691 242.439 148.698 242.357 148.706C241.364 148.789 240.368 148.827 239.357 148.827C238.265 148.827 237.18 148.781 236.108 148.683H236.098C235.866 148.661 235.639 148.638 235.411 148.615C235.35 148.608 235.294 148.604 235.233 148.596C235.222 148.596 235.208 148.593 235.197 148.593C235.18 148.589 235.162 148.589 235.141 148.585C235.131 148.585 235.121 148.584 235.112 148.581C235.034 148.574 234.956 148.562 234.874 148.555L234.607 148.521C234.518 148.509 234.429 148.494 234.34 148.483C234.319 148.479 234.301 148.479 234.279 148.475C234.215 148.468 234.151 148.457 234.087 148.445C234.055 148.441 234.023 148.438 233.995 148.434C233.931 148.423 233.87 148.415 233.806 148.404H233.803C231.85 148.105 229.922 147.644 228.038 147.024C227.938 146.99 227.839 146.96 227.739 146.926C227.735 146.926 227.732 146.922 227.728 146.922C227.7 146.911 227.668 146.904 227.639 146.892C227.372 146.802 227.109 146.707 226.846 146.609C226.483 146.48 226.123 146.341 225.764 146.197C225.668 146.155 225.572 146.118 225.476 146.076C225.28 145.997 225.088 145.914 224.896 145.83C224.568 145.691 224.241 145.543 223.917 145.392C223.615 145.249 223.316 145.105 223.017 144.954C223.01 144.95 222.999 144.95 222.992 144.943C222.924 144.909 222.857 144.874 222.793 144.84H222.789C221.15 144.005 219.57 143.047 218.06 141.973C217.576 141.629 217.099 141.274 216.629 140.907C216.252 140.609 215.882 140.306 215.512 139.996C213.686 138.454 211.996 136.739 210.463 134.873V134.869C210.352 134.741 210.249 134.608 210.142 134.476C210.125 134.457 210.11 134.438 210.096 134.423C210.029 134.336 209.965 134.253 209.897 134.17V134.166C209.808 134.057 209.719 133.943 209.634 133.83C209.612 133.803 209.594 133.781 209.577 133.758V133.754C209.505 133.664 209.438 133.573 209.367 133.478C209.331 133.433 209.299 133.388 209.264 133.342V133.339C209.054 133.059 208.851 132.779 208.648 132.492C208.595 132.417 208.541 132.337 208.484 132.258C208.228 131.891 207.979 131.517 207.737 131.143V131.14C207.644 131 207.555 130.856 207.463 130.716C207.374 130.573 207.285 130.429 207.196 130.286C207.107 130.135 207.015 129.987 206.926 129.836L206.915 129.813C206.826 129.67 206.737 129.519 206.652 129.371C206.584 129.25 206.516 129.133 206.449 129.016C206.406 128.937 206.36 128.857 206.317 128.774C206.3 128.749 206.285 128.722 206.271 128.695C206.171 128.51 206.072 128.325 205.972 128.139C205.855 127.924 205.741 127.705 205.627 127.486C205.584 127.395 205.538 127.304 205.492 127.214C205.474 127.183 205.46 127.153 205.445 127.123C205.392 127.017 205.339 126.908 205.289 126.798C205.235 126.692 205.182 126.583 205.129 126.473C205.079 126.367 205.025 126.258 204.976 126.148C204.936 126.065 204.901 125.982 204.862 125.899C204.859 125.892 204.855 125.886 204.851 125.88C204.833 125.838 204.815 125.801 204.801 125.763C204.797 125.757 204.793 125.751 204.791 125.744C204.751 125.661 204.716 125.574 204.677 125.491C204.627 125.381 204.581 125.268 204.531 125.158C204.499 125.083 204.463 125.003 204.431 124.924C204.385 124.814 204.335 124.705 204.292 124.591C204.243 124.478 204.196 124.365 204.15 124.248C204.137 124.219 204.125 124.19 204.114 124.161C204.09 124.108 204.072 124.055 204.05 124.002C203.993 123.862 203.937 123.719 203.883 123.579C203.819 123.42 203.759 123.258 203.702 123.099C203.645 122.952 203.591 122.8 203.538 122.649L203.517 122.596C202.688 120.277 202.059 117.883 201.638 115.444V115.44C201.4 114.047 201.231 112.642 201.129 111.231C201.125 111.151 201.118 111.076 201.115 111C201.051 110.044 201.022 109.084 201.022 108.121C201.022 107.694 201.029 107.271 201.04 106.847C201.288 97.9968 204.261 89.4762 209.502 82.5893C209.616 82.4382 209.73 82.287 209.847 82.1359C209.965 81.9848 210.086 81.8374 210.203 81.69C214.104 76.8392 219.024 73.0296 224.565 70.5681C230.107 68.1067 236.116 67.0624 242.108 67.5194C248.1 67.9765 253.907 69.922 259.06 73.1992C264.214 76.4765 268.57 80.9937 271.778 86.3867C271.953 86.6815 272.127 86.98 272.294 87.2785C272.465 87.5808 272.629 87.8831 272.792 88.1891C276.016 94.2738 277.705 101.139 277.696 108.121V108.121Z" fill="#F2F2F2"/>
<path d="M240.881 81.4949C234.577 83.2126 228.117 84.2027 221.613 84.448C220.629 84.5049 219.643 84.4977 218.661 84.4267C216.501 84.2338 214.651 83.513 212.591 83.1192C211.6 82.9303 210.497 82.7923 209.5 82.5882C209.731 82.2847 209.965 81.9849 210.204 81.6888C212.354 81.8817 214.537 82.5131 216.713 82.8065C220.412 83.3059 224.556 82.7486 227.36 81.3741C228.721 80.7072 229.763 79.8748 231.118 79.2048C231.303 79.1043 231.502 79.0393 231.708 79.0129C232.099 79.0005 232.485 79.1068 232.821 79.3195C235.095 80.5387 238.397 81.5295 241.462 80.9843C241.691 81.1742 241.257 81.3904 240.881 81.4949Z" fill="white"/>
<path d="M254.444 85.7854C254.472 85.78 254.5 85.7758 254.528 85.7706C254.41 85.6931 254.299 85.6044 254.197 85.5056L254.444 85.7854Z" fill="white"/>
<path d="M272.792 88.1908C271.512 88.2994 270.225 88.3803 268.931 88.4334C267.948 88.4898 266.962 88.4827 265.979 88.4121C263.82 88.2182 261.97 87.4984 259.91 87.1046C258.021 86.7442 255.727 86.5706 254.528 85.7707C257.627 85.2012 260.837 86.3605 264.032 86.7919C266.616 87.1293 269.236 86.992 271.776 86.3859C272.13 86.9767 272.469 87.5783 272.792 88.1908Z" fill="white"/>
<path d="M235.035 125.933C241.395 125.933 246.55 120.337 246.55 113.434C246.55 106.531 241.395 100.935 235.035 100.935C228.676 100.935 223.521 106.531 223.521 113.434C223.521 120.337 228.676 125.933 235.035 125.933Z" fill="#FFB6B6"/>
<path d="M257.306 144.096C257 144.274 256.691 144.444 256.381 144.606C256.271 144.663 256.157 144.72 256.046 144.78C255.954 144.825 255.861 144.875 255.769 144.92C255.74 144.935 255.715 144.946 255.691 144.961C255.612 144.999 255.538 145.037 255.459 145.075C255.374 145.116 255.288 145.158 255.207 145.199C255.111 145.245 255.018 145.29 254.922 145.332C254.566 145.502 254.207 145.664 253.847 145.819C252.559 146.38 251.243 146.864 249.905 147.27C249.844 147.289 249.78 147.308 249.716 147.327C249.143 147.497 248.567 147.652 247.987 147.792C246.972 148.041 245.949 148.245 244.916 148.404H244.908C244.784 148.423 244.663 148.441 244.538 148.46C244.528 148.46 244.517 148.464 244.503 148.464C244.503 148.468 244.503 148.468 244.499 148.464C244.364 148.483 244.225 148.502 244.09 148.521C244.081 148.524 244.071 148.525 244.062 148.525C243.933 148.543 243.802 148.559 243.674 148.574C243.535 148.589 243.396 148.604 243.257 148.619C243.151 148.63 243.044 148.642 242.937 148.653C242.928 148.656 242.918 148.658 242.909 148.657C242.813 148.664 242.716 148.676 242.62 148.683H242.606C242.524 148.691 242.439 148.698 242.357 148.706C241.364 148.789 240.368 148.827 239.357 148.827C238.265 148.827 237.18 148.782 236.108 148.683H236.098C235.866 148.661 235.639 148.638 235.411 148.615C235.35 148.608 235.294 148.604 235.233 148.596C235.222 148.596 235.208 148.593 235.197 148.593C235.18 148.589 235.162 148.589 235.141 148.585C235.131 148.585 235.121 148.584 235.112 148.581C235.034 148.574 234.955 148.562 234.874 148.555L234.607 148.521C234.518 148.509 234.429 148.494 234.34 148.483C234.319 148.479 234.301 148.479 234.279 148.475C234.215 148.468 234.151 148.457 234.087 148.445C234.055 148.441 234.023 148.438 233.995 148.434C233.931 148.423 233.87 148.415 233.806 148.404H233.803C231.85 148.105 229.922 147.644 228.038 147.025C227.938 146.991 227.839 146.96 227.739 146.926C228.198 144.651 229.144 142.518 230.504 140.693C231.863 138.868 233.599 137.399 235.578 136.399C235.089 135.904 234.75 135.264 234.607 134.563C234.514 134.111 234.507 133.644 234.585 133.188C234.663 132.733 234.826 132.299 235.062 131.91C235.524 131.158 236.248 130.63 237.076 130.444L242.35 129.273C243.199 129.097 244.079 129.284 244.798 129.794C245.518 130.303 246.019 131.094 246.193 131.994C246.247 132.269 246.271 132.551 246.264 132.832C251.342 136.422 254.997 140.144 257.306 144.096Z" fill="#FFC33E"/>
<path d="M265.847 108.013C263.89 105.59 262.96 102.374 261.395 99.6219C259.83 96.8698 257.107 94.4066 254.231 95.047C252.248 95.4886 250.716 97.3465 249.94 99.4179C249.164 101.489 249.019 103.774 248.883 106.011C248.931 101.413 246.077 96.9543 242.147 95.4868C238.216 94.0194 233.512 95.6562 231.043 99.3509C229.965 98.2901 228.558 97.6861 227.089 97.6534C225.619 97.6206 224.19 98.1614 223.071 99.1732C220.862 101.27 220.373 105.26 221.998 107.935C223.622 110.609 227.141 111.605 229.723 110.122L230.636 111.014C230.122 112.922 231.118 115.176 232.793 115.894C234.151 116.477 236.069 116.38 236.577 117.893C236.932 118.951 236.269 120.08 235.562 120.892C234.856 121.705 234.018 122.544 233.933 123.668C233.805 125.365 235.456 126.554 236.957 126.912C240.577 127.775 244.593 125.995 246.679 122.603C246.719 122.538 246.763 122.473 246.81 122.407C247.98 120.818 248.833 118.992 249.317 117.04C249.8 115.089 249.904 113.054 249.621 111.059C249.504 110.275 249.622 109.692 250.131 109.506C252.331 108.704 258.495 110.388 260.361 111.91C262.226 113.432 263.72 115.446 265.517 117.067C267.314 118.687 269.604 119.937 271.885 119.496C273.712 119.142 275.267 117.734 276.312 116.035C277.358 114.336 277.96 112.355 278.499 110.387C274.458 112.865 268.928 111.828 265.847 108.013Z" fill="#2F2E41"/>
<path d="M29.473 82.8048C29.473 83.7229 29.5015 84.6411 29.562 85.5517C29.626 86.64 29.7363 87.7206 29.8858 88.7937C30.3881 92.4069 31.348 95.9315 32.7397 99.2716C32.8108 99.4378 32.882 99.6041 32.9532 99.7703L33.0599 100.02C33.0955 100.103 33.1346 100.186 33.1702 100.265C33.22 100.375 33.2663 100.481 33.3161 100.586C33.3766 100.719 33.4371 100.851 33.5012 100.983C33.5083 100.998 33.5154 101.017 33.5261 101.036C33.5794 101.149 33.6293 101.259 33.6862 101.372C33.6967 101.397 33.7085 101.421 33.7218 101.444C33.7823 101.573 33.8463 101.705 33.9104 101.833C33.9816 101.969 34.0492 102.109 34.1203 102.245C34.2911 102.582 34.4691 102.914 34.6505 103.247C34.7039 103.345 34.7573 103.443 34.8142 103.541C34.864 103.632 34.9139 103.723 34.9672 103.813C35.0028 103.874 35.0384 103.938 35.074 103.998C35.1309 104.101 35.1879 104.199 35.2484 104.301C35.38 104.524 35.5152 104.747 35.6469 104.97H35.6505C35.711 105.072 35.775 105.174 35.8391 105.272V105.276C36.0277 105.578 36.2234 105.88 36.4191 106.179C36.4196 106.179 36.42 106.179 36.4205 106.179C36.4209 106.179 36.4213 106.179 36.4216 106.18C36.422 106.18 36.4222 106.181 36.4224 106.181C36.4226 106.181 36.4227 106.182 36.4226 106.182C36.5792 106.424 36.7429 106.659 36.903 106.893V106.897C37.0098 107.044 37.113 107.195 37.2197 107.342C37.3051 107.463 37.3941 107.588 37.4831 107.709C37.5008 107.735 37.5222 107.758 37.54 107.785V107.788C37.5649 107.822 37.5898 107.853 37.6147 107.887C37.9919 108.4 38.381 108.903 38.7819 109.394L38.8459 109.474C38.8673 109.5 38.8922 109.526 38.9136 109.557C38.9491 109.598 38.9812 109.64 39.0167 109.681C39.0488 109.723 39.0844 109.764 39.1199 109.806C41.2098 112.306 43.5795 114.525 46.1763 116.415C46.5215 116.668 46.8738 116.913 47.2261 117.152C47.315 117.212 47.404 117.272 47.493 117.329C47.5179 117.348 47.5463 117.367 47.5713 117.386C47.6211 117.416 47.6673 117.446 47.7172 117.48C47.7634 117.51 47.8097 117.541 47.8595 117.571C48.0481 117.696 48.2402 117.817 48.4324 117.937C48.4787 117.968 48.5285 117.998 48.5783 118.028C48.6246 118.055 48.6744 118.085 48.7242 118.115C48.7242 118.119 48.7242 118.119 48.7277 118.119H48.7313V118.123H48.7349C48.9733 118.27 49.2153 118.414 49.4608 118.553C49.5925 118.629 49.7277 118.708 49.8629 118.78C50.1689 118.958 50.4785 119.128 50.7881 119.29C50.8984 119.347 51.0123 119.404 51.1226 119.464C51.2151 119.509 51.3076 119.558 51.4001 119.604C51.4286 119.619 51.4535 119.63 51.4784 119.645C51.5567 119.683 51.6314 119.721 51.7097 119.759C51.7951 119.8 51.8805 119.842 51.9624 119.883C52.0585 119.929 52.151 119.974 52.2471 120.016C52.6029 120.186 52.9623 120.348 53.3217 120.503C54.6097 121.064 55.926 121.548 57.2645 121.954C57.325 121.973 57.389 121.992 57.4531 122.011C58.026 122.181 58.6025 122.336 59.1825 122.475C60.1966 122.725 61.2203 122.929 62.2534 123.088H62.2605C62.3851 123.106 62.5061 123.125 62.6306 123.144C62.6413 123.144 62.652 123.148 62.6662 123.148C62.6662 123.152 62.6662 123.152 62.6698 123.148C62.805 123.167 62.9438 123.186 63.079 123.205C63.0882 123.208 63.0978 123.209 63.1075 123.208C63.2356 123.227 63.3672 123.243 63.4953 123.258C63.6341 123.273 63.7729 123.288 63.9117 123.303C64.0184 123.314 64.1252 123.326 64.2319 123.337C64.2411 123.34 64.2508 123.342 64.2604 123.341C64.3565 123.348 64.4525 123.36 64.5486 123.367H64.5629C64.6447 123.375 64.7301 123.382 64.8119 123.39C65.8048 123.473 66.8011 123.511 67.8117 123.511C68.9042 123.511 69.9895 123.465 71.0606 123.367H71.0713C71.3025 123.345 71.5303 123.322 71.758 123.299C71.8185 123.292 71.8755 123.288 71.936 123.28C71.9466 123.28 71.9609 123.277 71.9715 123.277C71.9893 123.273 72.0071 123.273 72.0285 123.269C72.0381 123.269 72.0477 123.268 72.0569 123.265C72.1352 123.258 72.2135 123.246 72.2954 123.239L72.5622 123.205C72.6512 123.193 72.7402 123.178 72.8291 123.167C72.8505 123.163 72.8683 123.163 72.8896 123.159C72.9537 123.152 73.0177 123.14 73.0818 123.129C73.1138 123.125 73.1458 123.122 73.1743 123.118C73.2383 123.106 73.2988 123.099 73.3629 123.088H73.3665C75.3191 122.789 77.2466 122.328 79.1311 121.708C79.2308 121.674 79.3304 121.644 79.43 121.61C79.4336 121.61 79.4372 121.606 79.4407 121.606C79.4692 121.595 79.5012 121.588 79.5297 121.576C79.7966 121.486 80.0599 121.391 80.3232 121.293C80.6862 121.164 81.0456 121.025 81.405 120.881C81.5011 120.839 81.5971 120.802 81.6932 120.76C81.8889 120.681 82.0811 120.598 82.2732 120.514C82.6006 120.375 82.928 120.227 83.2518 120.076C83.5543 119.933 83.8532 119.789 84.1521 119.638C84.1592 119.634 84.1699 119.634 84.177 119.626C84.2446 119.592 84.3122 119.558 84.3763 119.524H84.3799C86.0186 118.689 87.599 117.731 89.109 116.657C89.593 116.313 90.0698 115.958 90.5395 115.591C90.9167 115.293 91.2868 114.99 91.6569 114.68C93.4826 113.138 95.1727 111.423 96.7063 109.557V109.553C96.8166 109.424 96.9198 109.292 97.0266 109.16C97.0444 109.141 97.0586 109.122 97.0728 109.107C97.1404 109.02 97.2045 108.937 97.2721 108.854V108.85C97.3611 108.741 97.45 108.627 97.5354 108.514C97.5568 108.487 97.5746 108.465 97.5924 108.442V108.438C97.6635 108.348 97.7311 108.257 97.8023 108.162C97.8379 108.117 97.8699 108.072 97.9055 108.026V108.023C98.1154 107.743 98.3183 107.463 98.5211 107.176C98.5745 107.101 98.6279 107.021 98.6848 106.942C98.941 106.575 99.1901 106.201 99.4321 105.827V105.824C99.5246 105.684 99.6136 105.54 99.7061 105.4C99.795 105.257 99.884 105.113 99.973 104.97C100.062 104.818 100.154 104.671 100.243 104.52L100.254 104.497C100.343 104.354 100.432 104.203 100.517 104.055C100.585 103.934 100.653 103.817 100.72 103.7C100.763 103.621 100.809 103.541 100.852 103.458C100.869 103.433 100.884 103.406 100.898 103.379C100.998 103.194 101.097 103.009 101.197 102.823C101.314 102.608 101.428 102.389 101.542 102.17C101.585 102.079 101.631 101.988 101.677 101.898C101.695 101.867 101.709 101.837 101.724 101.807C101.777 101.701 101.83 101.592 101.88 101.482C101.934 101.376 101.987 101.267 102.04 101.157C102.09 101.051 102.144 100.942 102.193 100.832C102.233 100.749 102.268 100.666 102.307 100.583C102.31 100.576 102.314 100.57 102.318 100.564C102.336 100.522 102.354 100.484 102.368 100.447C102.372 100.441 102.376 100.435 102.378 100.428C102.418 100.345 102.453 100.258 102.492 100.175C102.542 100.065 102.588 99.9517 102.638 99.8421C102.67 99.7666 102.706 99.6872 102.738 99.6079C102.784 99.4983 102.834 99.3887 102.877 99.2754C102.926 99.162 102.973 99.0486 103.019 98.9315C103.032 98.9033 103.044 98.8742 103.055 98.8446C103.079 98.7917 103.097 98.7388 103.119 98.6859C103.176 98.5461 103.233 98.4025 103.286 98.2627C103.35 98.104 103.41 97.9415 103.467 97.7828C103.524 97.6355 103.578 97.4843 103.631 97.3332L103.652 97.2803C104.482 94.9614 105.11 92.5673 105.531 90.1276V90.1238C105.769 88.7309 105.938 87.3259 106.04 85.9145C106.044 85.8351 106.051 85.7596 106.054 85.684C106.118 84.728 106.147 83.7683 106.147 82.8048C106.147 82.3778 106.14 81.9546 106.129 81.5314C105.881 72.6807 102.908 64.1602 97.6671 57.2733C97.5532 57.1221 97.4393 56.971 97.3219 56.8199C97.2045 56.6687 97.0835 56.5214 96.9661 56.374C93.0652 51.5232 88.1455 47.7135 82.6036 45.2521C77.0617 42.7907 71.0526 41.7464 65.0609 42.2034C59.0692 42.6604 53.2624 44.606 48.1087 47.8832C42.955 51.1604 38.5986 55.6777 35.3907 61.0707C35.2163 61.3654 35.042 61.6639 34.8747 61.9625C34.7039 62.2647 34.5402 62.567 34.3765 62.8731C31.1528 68.9577 29.4638 75.8233 29.473 82.8048V82.8048Z" fill="#F2F2F2"/>
<path d="M66.2879 56.1788C72.592 57.8964 79.0522 58.8865 85.5563 59.1318C86.5398 59.1887 87.5257 59.1816 88.5085 59.1105C90.6681 58.9176 92.518 58.1969 94.5782 57.803C95.5686 57.6142 96.6718 57.4761 97.6689 57.2721C97.4385 56.9686 97.204 56.6688 96.9653 56.3727C94.8152 56.5656 92.6317 57.197 90.4558 57.4903C86.757 57.9898 82.6127 57.4325 79.8088 56.058C78.4484 55.391 77.4063 54.5586 76.0507 53.8886C75.8663 53.7881 75.6666 53.7232 75.4609 53.6968C75.07 53.6843 74.6839 53.7907 74.3481 54.0033C72.0737 55.2225 68.7717 56.2133 65.7067 55.6682C65.4782 55.858 65.9122 56.0742 66.2879 56.1788Z" fill="white"/>
<path d="M52.725 60.4693C52.697 60.4638 52.669 60.4596 52.641 60.4544C52.7587 60.377 52.8696 60.2883 52.9722 60.1895L52.725 60.4693Z" fill="white"/>
<path d="M34.3773 62.8746C35.6574 62.9832 36.9442 63.0641 38.2377 63.1172C39.2212 63.1736 40.2071 63.1665 41.1898 63.0959C43.3495 62.902 45.1993 62.1823 47.2595 61.7884C49.1477 61.428 51.4421 61.2545 52.6409 60.4545C49.5425 59.885 46.3322 61.0443 43.1372 61.4757C40.5529 61.8132 37.9331 61.6758 35.3926 61.0697C35.0389 61.6605 34.7005 62.2621 34.3773 62.8746Z" fill="white"/>
<path d="M49.8629 118.78C50.1689 118.958 50.4785 119.128 50.7881 119.29C50.8984 119.347 51.0123 119.403 51.1226 119.464C51.2151 119.509 51.3076 119.558 51.4002 119.604C51.4286 119.619 51.4535 119.63 51.4785 119.645C51.5567 119.683 51.6315 119.721 51.7097 119.759C51.7952 119.8 51.8806 119.842 51.9624 119.883C52.0585 119.929 52.151 119.974 52.2471 120.016C52.6029 120.186 52.9623 120.348 53.3217 120.503C54.6097 121.064 55.926 121.548 57.2645 121.954C57.325 121.973 57.389 121.992 57.4531 122.011C58.026 122.181 58.6025 122.336 59.1825 122.475C60.1967 122.725 61.2203 122.929 62.2535 123.088H62.2606C62.3851 123.106 62.5061 123.125 62.6306 123.144C62.6413 123.144 62.652 123.148 62.6662 123.148C62.6662 123.152 62.6662 123.152 62.6698 123.148C62.805 123.167 62.9438 123.186 63.079 123.205C63.0882 123.208 63.0979 123.209 63.1075 123.208C63.2356 123.227 63.3672 123.242 63.4953 123.258C63.6341 123.273 63.7729 123.288 63.9117 123.303C64.0184 123.314 64.1252 123.326 64.2319 123.337C64.2411 123.34 64.2508 123.342 64.2604 123.341C64.3565 123.348 64.4526 123.36 64.5486 123.367H64.5629C64.6447 123.375 64.7301 123.382 64.812 123.39C65.8048 123.473 66.8011 123.511 67.8117 123.511C68.9042 123.511 69.9895 123.465 71.0606 123.367H71.0713C71.3026 123.344 71.5303 123.322 71.7581 123.299C71.8186 123.292 71.8755 123.288 71.936 123.28C71.9467 123.28 71.9609 123.276 71.9716 123.276C71.9894 123.273 72.0072 123.273 72.0285 123.269C72.0381 123.269 72.0477 123.268 72.057 123.265C72.1353 123.258 72.2135 123.246 72.2954 123.239L72.5623 123.205C72.6512 123.193 72.7402 123.178 72.8292 123.167C72.8505 123.163 72.8683 123.163 72.8896 123.159C72.9537 123.152 73.0177 123.14 73.0818 123.129C73.1138 123.125 73.1459 123.122 73.1743 123.118C73.2384 123.106 73.2989 123.099 73.3629 123.088H73.3665C75.3191 122.789 77.2466 122.328 79.1312 121.708C79.2308 121.674 79.3304 121.644 79.4301 121.61C78.9706 119.335 78.0247 117.202 76.6654 115.377C75.3062 113.552 73.5699 112.083 71.5908 111.083C72.0803 110.588 72.4187 109.948 72.5623 109.247C72.6547 108.795 72.662 108.327 72.5838 107.872C72.5056 107.417 72.3435 106.983 72.1068 106.594C71.645 105.841 70.9206 105.314 70.0927 105.128L64.8191 103.957C63.9702 103.781 63.0902 103.968 62.3705 104.478C61.6509 104.987 61.1497 105.778 60.976 106.677C60.9222 106.953 60.8983 107.235 60.9048 107.516C55.8269 111.106 52.1723 114.828 49.8629 118.78Z" fill="#FFC33E"/>
<path d="M70.7256 100.177C77.8149 100.177 83.562 94.0744 83.562 86.5466C83.562 79.0188 77.8149 72.9163 70.7256 72.9163C63.6362 72.9163 57.8891 79.0188 57.8891 86.5466C57.8891 94.0744 63.6362 100.177 70.7256 100.177Z" fill="#9E616A"/>
<path d="M68.9015 99.4484C65.6879 100.37 62.145 99.1447 59.6371 96.8205C57.1292 94.4963 55.5604 91.203 54.6565 87.8012C53.9945 85.3098 53.6806 82.5442 54.7253 80.2053C55.77 77.8664 58.5816 76.2883 60.7508 77.4698C59.4126 75.8143 60.0812 73.0762 61.644 71.66C63.2069 70.2439 65.3529 69.8378 67.3969 69.6159C70.3632 69.2938 73.4272 69.2577 76.2498 70.2781C79.0725 71.2985 81.6372 73.5295 82.5206 76.5535C83.4228 76.9996 84.4389 77.1153 85.4097 76.8826C86.3806 76.6498 87.2513 76.0818 87.8855 75.2673C88.049 76.2027 87.9177 77.1692 87.5118 78.0174C87.1059 78.8655 86.4481 79.548 85.6402 79.9592L89.965 78.4703C90.7088 80.142 89.4055 82.211 87.7389 82.7464C86.0723 83.2817 84.2732 82.6966 82.6917 81.9232C81.1101 81.1497 79.5775 80.1719 77.8596 79.8703C76.1417 79.5687 74.1238 80.1548 73.3292 81.7999C72.913 82.6616 72.8913 83.6708 72.6497 84.6045C72.408 85.5383 71.7959 86.5064 70.8868 86.5829C70.3124 86.6311 69.75 86.3063 69.1772 86.3727C68.8257 86.4462 68.502 86.6269 68.2458 86.8928C67.9895 87.1586 67.8118 87.4981 67.7345 87.8695C67.5919 88.6149 67.5901 89.383 67.7294 90.1291L68.8279 99.0456L68.9015 99.4484Z" fill="#2F2E41"/>
</g>
<defs>
<clipPath id="clip0_107_264">
<rect width="288" height="238" fill="white"/>
</clipPath>
</defs>
</svg>
