<svg width="234" height="226" viewBox="0 0 234 226" fill="none" xmlns="http://www.w3.org/2000/svg">
<g clip-path="url(#clip0_108_333)">
<path d="M164.218 225.237C163.973 225.494 163.718 225.747 163.461 226H134.076C133.835 225.753 133.596 225.5 133.358 225.237C133.348 225.228 133.339 225.215 133.329 225.205C130.137 221.686 128.127 216.571 126.874 211.176C126.793 210.849 126.722 210.519 126.651 210.186C126.323 208.67 126.055 207.138 125.836 205.619C125.798 205.356 125.759 205.093 125.727 204.83C125.43 202.648 125.231 200.5 125.102 198.484C125.086 198.224 125.07 197.971 125.054 197.718C124.818 193.704 124.815 189.681 125.047 185.667C125.047 185.667 125.086 185.667 125.16 185.67C125.376 185.68 125.894 185.702 126.658 185.747C128.761 185.875 132.73 186.196 137.397 186.952C137.652 186.994 137.91 187.039 138.167 187.083C142.115 187.732 146.01 188.671 149.819 189.891C150.057 189.971 150.292 190.051 150.531 190.131L150.534 190.148L153.456 204.734L154.667 191.75C155.63 192.183 156.567 192.644 157.466 193.138C157.717 193.276 157.962 193.414 158.204 193.555C160.258 194.713 162.123 196.176 163.735 197.894C173.318 208.462 171.266 217.907 164.218 225.237Z" fill="#F2F2F2"/>
<path d="M151.938 206.741L152.448 207.303C158.336 213.86 161.85 219.946 162.933 225.482C162.95 225.562 162.962 225.642 162.979 225.723L162.602 225.794L162.239 225.858C161.134 219.822 157.02 213.583 151.886 207.863C151.722 207.677 151.556 207.488 151.384 207.304C149.189 204.902 146.829 202.597 144.443 200.442C144.26 200.273 144.071 200.104 143.883 199.936C140.718 197.107 137.535 194.549 134.695 192.392C134.495 192.238 134.293 192.087 134.092 191.939C129.272 188.308 125.531 185.901 124.698 185.374C124.597 185.307 124.54 185.273 124.527 185.264L124.725 184.951L124.725 184.945L124.925 184.629C124.938 184.638 125.129 184.754 125.475 184.978C126.772 185.81 130.26 188.101 134.599 191.358C134.794 191.506 134.997 191.657 135.197 191.81C137.503 193.558 140.025 195.561 142.572 197.753C143.212 198.303 143.837 198.852 144.446 199.4C144.637 199.566 144.826 199.735 145.009 199.903C147.589 202.232 149.899 204.512 151.938 206.741Z" fill="white"/>
<path d="M137.675 186.33C137.588 186.538 137.494 186.747 137.397 186.952C136.662 188.536 135.721 190.018 134.598 191.359C134.434 191.551 134.266 191.747 134.092 191.939C133.622 192.455 133.122 192.954 132.591 193.436C130.421 195.391 127.849 196.852 125.054 197.718C124.963 197.747 124.876 197.776 124.786 197.801C124.802 198.054 124.818 198.304 124.834 198.564C124.925 198.538 125.012 198.513 125.102 198.484C128.068 197.594 130.798 196.059 133.094 193.99C133.655 193.486 134.19 192.952 134.695 192.391C134.869 192.202 135.036 192.006 135.197 191.811C136.398 190.376 137.397 188.785 138.167 187.083C138.258 186.878 138.348 186.673 138.435 186.465C138.177 186.42 137.923 186.375 137.675 186.33Z" fill="white"/>
<path d="M149.951 189.324C149.912 189.513 149.867 189.702 149.819 189.891C148.945 193.494 147.085 196.786 144.446 199.401C144.262 199.583 144.075 199.763 143.882 199.936C143.827 199.99 143.766 200.048 143.708 200.099C141.307 202.256 138.422 203.811 135.294 204.634C132.166 205.457 128.886 205.524 125.727 204.83C125.653 204.817 125.575 204.798 125.501 204.782C125.54 205.045 125.575 205.311 125.617 205.574C125.691 205.59 125.762 205.606 125.836 205.619C129.076 206.285 132.427 206.183 135.62 205.321C138.812 204.458 141.755 202.859 144.21 200.654C144.288 200.583 144.368 200.516 144.442 200.442C144.636 200.263 144.823 200.083 145.009 199.904C147.711 197.214 149.621 193.84 150.534 190.147C150.582 189.955 150.627 189.763 150.669 189.571C150.431 189.487 150.192 189.404 149.951 189.324Z" fill="white"/>
<path d="M157.466 192.596C157.469 192.776 157.469 192.958 157.466 193.138C157.412 198.203 155.438 203.061 151.938 206.74C151.758 206.933 151.571 207.119 151.384 207.305C151.181 207.5 150.978 207.696 150.769 207.881C147.528 210.787 143.435 212.58 139.093 212.995C134.75 213.41 130.388 212.425 126.651 210.186C126.587 210.153 126.525 210.116 126.464 210.077C126.542 210.417 126.619 210.75 126.703 211.083C126.761 211.115 126.816 211.147 126.874 211.176C130.719 213.31 135.139 214.193 139.514 213.702C143.889 213.211 148 211.371 151.272 208.439C151.481 208.25 151.69 208.061 151.887 207.862C152.08 207.68 152.264 207.494 152.447 207.301C155.996 203.577 158.045 198.684 158.204 193.555C158.21 193.381 158.213 193.208 158.213 193.035C157.969 192.885 157.717 192.74 157.466 192.596Z" fill="white"/>
<path d="M92.3432 53.0698H35.718C35.2467 53.0693 34.795 52.8828 34.4618 52.5513C34.1286 52.2198 33.9411 51.7703 33.9406 51.3014V8.52093C33.9411 8.05205 34.1285 7.60252 34.4617 7.27096C34.795 6.9394 35.2467 6.75288 35.718 6.75232H105.223C105.694 6.75288 106.146 6.9394 106.479 7.27096C106.812 7.60252 106.999 8.05205 107 8.52093V38.4865C106.996 42.3529 105.45 46.0597 102.702 48.7937C99.9545 51.5276 96.229 53.0655 92.3432 53.0698Z" fill="white"/>
<path d="M92.3432 53.2302H35.718C35.204 53.2296 34.7114 53.0262 34.348 52.6646C33.9846 52.3031 33.7801 51.8128 33.7795 51.3015V8.52103C33.7801 8.00966 33.9845 7.51941 34.3479 7.1578C34.7113 6.7962 35.204 6.59278 35.718 6.59216H105.223C105.737 6.59275 106.229 6.79616 106.593 7.15777C106.956 7.51938 107.16 8.00966 107.161 8.52103V38.4866C107.157 42.3955 105.594 46.143 102.816 48.907C100.038 51.671 96.2717 53.2258 92.3432 53.2302V53.2302ZM35.718 7.23319C35.3748 7.23361 35.0459 7.36943 34.8033 7.61086C34.5606 7.85229 34.4242 8.17962 34.4238 8.52103V51.3015C34.4242 51.6429 34.5607 51.9702 34.8033 52.2116C35.0459 52.453 35.3748 52.5888 35.718 52.5892H92.3432C96.1009 52.5849 99.7036 51.0978 102.361 48.454C105.018 45.8101 106.513 42.2255 106.517 38.4866V8.52103C106.516 8.17962 106.38 7.85229 106.137 7.61086C105.895 7.36943 105.566 7.23361 105.223 7.23319H35.718Z" fill="#CCCCCC"/>
<path d="M104.701 17.2875C109.499 17.2875 113.388 13.4176 113.388 8.64375C113.388 3.86994 109.499 0 104.701 0C99.9029 0 96.0135 3.86994 96.0135 8.64375C96.0135 13.4176 99.9029 17.2875 104.701 17.2875Z" fill="#FFC33E"/>
<path d="M103.516 13.1424C103.366 13.1424 103.218 13.1076 103.083 13.0409C102.949 12.9741 102.833 12.8771 102.743 12.7577L100.373 9.61347C100.296 9.51246 100.241 9.39752 100.21 9.2752C100.178 9.15289 100.171 9.0256 100.189 8.90061C100.207 8.77561 100.25 8.65536 100.314 8.54672C100.379 8.43808 100.464 8.34317 100.566 8.26741C100.667 8.19166 100.783 8.13654 100.906 8.10521C101.029 8.07388 101.157 8.06694 101.282 8.0848C101.408 8.10266 101.529 8.14497 101.638 8.2093C101.747 8.27364 101.843 8.35874 101.919 8.45975L103.469 10.5166L107.452 4.57306C107.594 4.36088 107.815 4.21358 108.066 4.16357C108.318 4.11356 108.579 4.16493 108.792 4.30639C109.005 4.44784 109.153 4.66779 109.203 4.91785C109.254 5.16791 109.202 5.42759 109.06 5.63977L104.32 12.7142C104.234 12.8422 104.119 12.9478 103.983 13.0222C103.848 13.0967 103.697 13.1378 103.543 13.1421C103.534 13.1423 103.525 13.1424 103.516 13.1424Z" fill="white"/>
<path d="M71.443 90.2266H14.8178C10.932 90.2223 7.2065 88.6844 4.45878 85.9504C1.71105 83.2165 0.165456 79.5097 0.161072 75.6433V45.6775C0.161625 45.2087 0.349077 44.7591 0.682306 44.4276C1.01553 44.096 1.46733 43.9095 1.93859 43.9089H71.443C71.9143 43.9095 72.3661 44.096 72.6993 44.4276C73.0326 44.7591 73.22 45.2087 73.2206 45.6775V88.458C73.22 88.9269 73.0326 89.3764 72.6993 89.708C72.3661 90.0396 71.9143 90.2261 71.443 90.2266V90.2266Z" fill="white"/>
<path d="M71.443 90.387H14.8178C10.8893 90.3825 7.12288 88.8278 4.34497 86.0638C1.56706 83.2998 0.00446666 79.5523 0 75.6434V45.6776C0.000582314 45.1663 0.205013 44.676 0.56844 44.3144C0.931867 43.9528 1.42461 43.7494 1.93858 43.7488H71.443C71.957 43.7494 72.4497 43.9528 72.8132 44.3144C73.1766 44.676 73.381 45.1663 73.3816 45.6776V88.4581C73.381 88.9695 73.1766 89.4598 72.8132 89.8214C72.4497 90.183 71.957 90.3864 71.443 90.387ZM1.93858 44.3898C1.59543 44.3902 1.26645 44.526 1.02381 44.7675C0.781166 45.0089 0.644666 45.3362 0.644253 45.6776V75.6434C0.648497 79.3823 2.14314 82.9669 4.80028 85.6107C7.45742 88.2546 11.0601 89.7417 14.8178 89.7459H71.443C71.7862 89.7456 72.1152 89.6097 72.3578 89.3683C72.6005 89.1269 72.737 88.7995 72.7374 88.4581V45.6776C72.7369 45.3362 72.6004 45.0089 72.3578 44.7675C72.1152 44.526 71.7862 44.3902 71.443 44.3898H1.93858Z" fill="#CCCCCC"/>
<path d="M71.5217 54.7875C76.3196 54.7875 80.209 50.9176 80.209 46.1438C80.209 41.3699 76.3196 37.5 71.5217 37.5C66.7239 37.5 62.8345 41.3699 62.8345 46.1438C62.8345 50.9176 66.7239 54.7875 71.5217 54.7875Z" fill="#FFC33E"/>
<path d="M70.3366 50.6424C70.1866 50.6424 70.0387 50.6076 69.9045 50.5409C69.7703 50.4741 69.6536 50.3771 69.5636 50.2577L67.1936 47.1135C67.1175 47.0125 67.0621 46.8975 67.0306 46.7752C66.9991 46.6529 66.9921 46.5256 67.0101 46.4006C67.028 46.2756 67.0706 46.1554 67.1352 46.0467C67.1999 45.9381 67.2854 45.8432 67.3869 45.7674C67.4884 45.6917 67.604 45.6365 67.7269 45.6052C67.8498 45.5739 67.9777 45.5669 68.1034 45.5848C68.229 45.6027 68.3498 45.645 68.459 45.7093C68.5682 45.7736 68.6636 45.8587 68.7398 45.9598L70.2903 48.0166L74.2727 42.0731C74.4149 41.8609 74.6359 41.7136 74.8872 41.6636C75.1385 41.6136 75.3995 41.6649 75.6128 41.8064C75.826 41.9478 75.9741 42.1678 76.0243 42.4179C76.0746 42.6679 76.023 42.9276 75.8808 43.1398L71.1408 50.2142C71.055 50.3422 70.9397 50.4478 70.8045 50.5222C70.6692 50.5967 70.518 50.6378 70.3635 50.6421C70.3546 50.6423 70.3456 50.6424 70.3366 50.6424Z" fill="white"/>
<path d="M141.997 130.103H62.7651C58.8793 130.098 55.1538 128.56 52.4061 125.826C49.6583 123.092 48.1128 119.386 48.1084 115.519V71.4444C48.1091 70.84 48.3507 70.2605 48.7802 69.8332C49.2098 69.4058 49.7921 69.1654 50.3996 69.1647H141.997C142.604 69.1654 143.186 69.4058 143.616 69.8332C144.045 70.2606 144.287 70.84 144.288 71.4444V127.823C144.287 128.427 144.045 129.007 143.616 129.434C143.186 129.861 142.604 130.102 141.997 130.103V130.103Z" fill="white"/>
<path d="M141.997 130.263H62.7651C58.8366 130.258 55.0702 128.704 52.2923 125.94C49.5144 123.176 47.9518 119.428 47.9473 115.519V71.4444C47.948 70.7975 48.2066 70.1773 48.6664 69.7199C49.1261 69.2624 49.7494 69.0051 50.3996 69.0044H141.997C142.647 69.0052 143.27 69.2625 143.73 69.7199C144.189 70.1773 144.448 70.7975 144.449 71.4444V127.823C144.448 128.47 144.189 129.09 143.73 129.547C143.27 130.005 142.647 130.262 141.997 130.263V130.263ZM50.3996 69.6454C49.9202 69.646 49.4607 69.8357 49.1217 70.1729C48.7828 70.5102 48.5921 70.9674 48.5915 71.4444V115.519C48.5958 119.258 50.0904 122.843 52.7476 125.487C55.4047 128.13 59.0074 129.618 62.7651 129.622H141.997C142.476 129.621 142.935 129.431 143.274 129.094C143.613 128.757 143.804 128.3 143.804 127.823V71.4444C143.804 70.9675 143.613 70.5102 143.274 70.173C142.935 69.8357 142.476 69.646 141.997 69.6454H50.3996Z" fill="#CCCCCC"/>
<path d="M142.284 83.5571C148.358 83.5571 153.281 78.6582 153.281 72.6151C153.281 66.5721 148.358 61.6732 142.284 61.6732C136.211 61.6732 131.287 66.5721 131.287 72.6151C131.287 78.6582 136.211 83.5571 142.284 83.5571Z" fill="#FFC33E"/>
<path d="M140.784 78.3098C140.594 78.3098 140.407 78.2658 140.237 78.1813C140.067 78.0968 139.92 77.9741 139.806 77.8229L136.805 73.8427C136.709 73.7148 136.639 73.5693 136.599 73.4145C136.559 73.2596 136.55 73.0985 136.573 72.9403C136.596 72.782 136.65 72.6298 136.732 72.4923C136.813 72.3547 136.922 72.2346 137.05 72.1387C137.179 72.0428 137.325 71.973 137.481 71.9334C137.636 71.8937 137.798 71.8849 137.957 71.9075C138.116 71.9302 138.269 71.9837 138.407 72.0651C138.546 72.1466 138.666 72.2543 138.763 72.3822L140.726 74.9859L145.767 67.4621C145.947 67.194 146.227 67.0079 146.545 66.9449C146.862 66.8818 147.193 66.9469 147.462 67.1258C147.732 67.3047 147.919 67.5828 147.983 67.8991C148.047 68.2153 147.982 68.5438 147.802 68.8124L141.802 77.7678C141.694 77.9298 141.548 78.0635 141.376 78.1577C141.205 78.2519 141.014 78.304 140.818 78.3094C140.807 78.3096 140.795 78.3098 140.784 78.3098Z" fill="white"/>
<path d="M170.774 217.265L166.3 218.753L158.399 202.291L165.003 200.094L170.774 217.265Z" fill="#FFB6B6"/>
<path d="M173.365 221.2L158.939 225.039L158.878 224.857C158.376 223.365 158.489 222.729 159.195 221.321C159.54 220.627 160.02 220.009 160.607 219.501C161.194 218.994 161.877 218.607 162.615 218.363L162.615 218.363L164.582 215.497L170.167 215.85L171.426 215.431L173.365 221.2Z" fill="#2F2E41"/>
<path d="M181.828 221.45H177.11L174.866 203.344L181.829 203.345L181.828 221.45Z" fill="#FFB6B6"/>
<path d="M183.031 225.039L167.819 225.038V224.847C167.819 223.273 168.435 222.755 169.554 221.643C170.102 221.094 170.754 220.659 171.473 220.363C172.192 220.067 172.962 219.915 173.74 219.917H173.74L176.519 217.82L181.703 219.918L183.031 219.918L183.031 225.039Z" fill="#2F2E41"/>
<path d="M145.923 76.3833C146.02 76.8751 146.225 77.3397 146.522 77.7444C146.819 78.1491 147.202 78.4841 147.643 78.7257C148.084 78.9673 148.573 79.1097 149.076 79.1429C149.579 79.1761 150.082 79.0992 150.552 78.9177L155.998 84.5753L160.261 82.1207L152.457 74.2385C152.098 73.4739 151.47 72.8668 150.691 72.5322C149.913 72.1977 149.038 72.1589 148.233 72.4233C147.427 72.6877 146.747 73.2368 146.322 73.9667C145.896 74.6965 145.754 75.5564 145.923 76.3833V76.3833Z" fill="#FFB6B6"/>
<path d="M181.171 104.831L183.626 102.303L169.427 89.2189L155.137 76.5227L151.179 82.0874L166.154 95.9958L181.171 104.831Z" fill="#E4E4E4"/>
<path d="M172.446 190.697C172.446 187.52 172.51 185.254 172.56 183.434C172.709 178.106 172.749 176.674 170.7 167.498L170.173 165.142L167.07 174.406C166.079 177.361 165.572 180.456 165.57 183.571L170.355 212.139H160.574L153.411 181.255L153.408 171.807C152.777 171.158 152.424 170.289 152.424 169.385C152.424 168.482 152.777 167.613 153.408 166.964L155.788 152.81L158.197 133.735H184.581C184.581 133.735 189.237 143.339 184.61 152.864L184.61 190.708L182.219 216.875H174.838L172.446 190.697Z" fill="#2F2E41"/>
<path d="M182.968 136.044L158.289 133.998L158.161 133.988L160.13 98.714C160.246 96.4961 161.028 94.3639 162.375 92.5933C163.723 90.8227 165.573 89.4952 167.687 88.7826V86.3141C167.688 85.7031 167.932 85.1174 168.366 84.6854C168.8 84.2533 169.389 84.0103 170.003 84.0097H173.609C174.039 84.0082 174.461 84.1268 174.828 84.352C175.194 84.5771 175.489 84.8998 175.68 85.2835L177.444 88.7923L184.111 94.0997C187.404 96.7211 184.754 123.002 184.611 124.389L186.224 132.412C186.313 132.853 186.302 133.308 186.193 133.745C186.083 134.182 185.878 134.589 185.592 134.937C185.305 135.286 184.945 135.567 184.536 135.76C184.128 135.953 183.682 136.054 183.229 136.055C183.143 136.055 183.056 136.051 182.968 136.044Z" fill="#E4E4E4"/>
<path d="M156.833 145.358C157.223 145.041 157.539 144.643 157.757 144.191C157.976 143.74 158.093 143.246 158.099 142.745C158.105 142.244 158.001 141.747 157.793 141.29C157.586 140.834 157.28 140.428 156.898 140.101L159.347 132.656L155.162 130.071L151.853 140.635C151.344 141.31 151.102 142.147 151.172 142.988C151.243 143.829 151.62 144.615 152.234 145.197C152.848 145.779 153.655 146.117 154.503 146.147C155.351 146.177 156.18 145.896 156.833 145.358V145.358Z" fill="#FFB6B6"/>
<path d="M165.439 94.7397L162.042 93.6128L157.135 115.397L152.615 137.062L159.413 138.057L164.684 115.022L165.439 94.7397Z" fill="#E4E4E4"/>
<path d="M169.15 81.7551C173.626 81.7551 177.255 78.1443 177.255 73.6903C177.255 69.2362 173.626 65.6255 169.15 65.6255C164.673 65.6255 161.044 69.2362 161.044 73.6903C161.044 78.1443 164.673 81.7551 169.15 81.7551Z" fill="#FFB6B6"/>
<path d="M158.244 69.7408C158.319 68.9765 158.539 68.2333 158.892 67.5508C159.271 68.3706 160.453 68.5129 161.262 68.1048C162.071 67.6968 162.613 66.9218 163.191 66.2265C164.717 64.3919 166.815 62.9036 169.192 62.6326C171.57 62.3615 174.19 63.5557 175.089 65.7627C175.492 65.2057 176.352 65.1438 176.96 65.4674C177.548 65.8361 178.007 66.3768 178.273 67.0151C178.872 68.2366 179.21 69.5681 179.267 70.9258C179.323 72.2835 179.097 73.6383 178.603 74.905C177.602 77.4258 175.13 80.822 172.579 81.7734C171.03 82.351 169.466 81.6117 167.819 81.7734C167.905 79.985 168.254 77.7783 168.34 75.9899C168.387 75.0105 168.394 73.9147 167.722 73.1978C167.516 73.003 167.269 72.8557 166.999 72.7662C166.729 72.6768 166.443 72.6474 166.161 72.6803C165.878 72.7131 165.606 72.8072 165.365 72.9561C165.123 73.1049 164.917 73.3049 164.761 73.5417C164.678 72.9857 164.489 72.4504 164.205 71.9645C164.059 71.7235 163.849 71.5279 163.597 71.3996C163.346 71.2714 163.063 71.2157 162.781 71.2388C162.094 71.3509 161.669 72.0533 161.038 72.3474C160.679 72.4903 160.286 72.5209 159.909 72.435C159.533 72.3492 159.192 72.1509 158.932 71.8669C158.679 71.5768 158.488 71.239 158.37 70.8737C158.252 70.5083 158.209 70.123 158.244 69.7408V69.7408Z" fill="#2F2E41"/>
<path opacity="0.1" d="M170.199 114.924L160.68 133.867H167.819L170.199 114.924Z" fill="black"/>
<path d="M234 225.619C234 225.669 233.99 225.718 233.971 225.765C233.952 225.811 233.924 225.853 233.888 225.889C233.852 225.924 233.81 225.952 233.764 225.971C233.717 225.99 233.667 226 233.617 226H51.8439C51.7423 226 51.6448 225.96 51.5729 225.888C51.501 225.817 51.4606 225.72 51.4606 225.619C51.4606 225.517 51.501 225.42 51.5729 225.349C51.6448 225.277 51.7423 225.237 51.8439 225.237H233.617C233.667 225.237 233.717 225.247 233.764 225.266C233.81 225.285 233.852 225.313 233.888 225.349C233.924 225.384 233.952 225.426 233.971 225.472C233.99 225.519 234 225.568 234 225.619V225.619Z" fill="#CACACA"/>
<path d="M10.8068 70.2708C10.8068 70.2708 7.4547 69.1417 6.82321 69.2243C6.19172 69.3069 7.7811 65.3609 8.83972 65.8416C9.89834 66.3224 11.3114 67.5897 12.1182 65.801C12.925 64.0123 13.3774 63.0495 14.3624 63.1457C15.3474 63.2418 16.7072 62.3752 17.6903 63.1457C18.6734 63.9161 19.363 64.8641 20.7209 64.8234C22.0788 64.7827 23.364 60.9317 24.4227 62.4714C25.4813 64.011 26.7472 65.4225 27.7409 64.9097C28.7346 64.3969 29.8717 65.1673 30.7773 66.034C31.6829 66.9006 33.2732 66.516 33.8766 65.8416C34.48 65.1673 34.9362 64.6866 36.2225 64.7827C37.5087 64.8789 41.593 66.034 43.1059 67.4787C44.6188 68.9235 41.1388 70.7516 39.4748 70.7516C37.8109 70.7516 37.5077 71.3298 36.0704 72.1964C34.6331 73.063 32.2882 71.7144 30.6243 73.1591C28.9603 74.6039 26.8421 72.3887 23.9674 73.1591C21.0928 73.9296 21.6981 74.9885 20.0332 74.218C18.3683 73.4476 18.9746 73.1591 16.5542 72.9668C14.1338 72.7745 11.4858 73.4476 11.2582 72.1964C11.0306 70.9451 9.51479 70.6555 8.61114 70.2708C7.70749 69.8862 10.8068 70.2708 10.8068 70.2708Z" fill="#3F3D56"/>
<path d="M38.5692 56.9599L37.2714 62.0227L37.2152 62.2434L35.0428 70.7196L31.3235 73.9186L13.2631 64.2527L14.9745 55.4437L15.0655 54.9802L15.9818 50.265L15.9837 50.2539L21.5432 49.3688L38.5692 56.9599Z" fill="#F8CE6D"/>
<path opacity="0.1" d="M38.5693 56.9599L35.0428 70.7196L31.3236 73.9186L34.7377 58.9027L15.9818 50.265L15.9837 50.2539L21.5432 49.3688L38.5693 56.9599Z" fill="black"/>
<path opacity="0.1" d="M20.0342 51.2092L19.7349 50.9774L22.7354 50.5768L35.59 56.3607L35.2278 56.6024L22.5466 50.9109L20.0342 51.2092Z" fill="black"/>
<path opacity="0.1" d="M37.2714 62.0227L33.5173 64.2699L15.0655 54.9801L14.9745 55.4436L33.4427 64.6003L37.2152 62.2433" fill="black"/>
<path d="M17.2941 53.5908C17.3999 53.1571 17.1875 52.6877 16.8197 52.5423C16.4519 52.397 16.0679 52.6307 15.9621 53.0644C15.8563 53.498 16.0687 53.9674 16.4365 54.1128C16.8043 54.2582 17.1883 54.0244 17.2941 53.5908Z" fill="#3F3D56"/>
<path d="M33.557 61.6052C33.6628 61.1715 33.4504 60.7021 33.0826 60.5567C32.7148 60.4114 32.3308 60.6451 32.225 61.0788C32.1192 61.5124 32.3316 61.9819 32.6994 62.1272C33.0672 62.2726 33.4512 62.0388 33.557 61.6052Z" fill="#3F3D56"/>
<path d="M30.9869 71.5588C31.0927 71.1251 30.8803 70.6557 30.5125 70.5103C30.1447 70.365 29.7607 70.5987 29.6549 71.0324C29.5491 71.4661 29.7615 71.9355 30.1293 72.0808C30.4972 72.2262 30.8811 71.9925 30.9869 71.5588Z" fill="#3F3D56"/>
<path d="M15.3044 63.2075C15.4102 62.7738 15.1978 62.3044 14.83 62.159C14.4621 62.0137 14.0782 62.2474 13.9724 62.6811C13.8666 63.1147 14.079 63.5841 14.4468 63.7295C14.8146 63.8749 15.1986 63.6411 15.3044 63.2075Z" fill="#3F3D56"/>
<path d="M18.1814 50.7715C18.1426 50.9318 17.8317 50.7715 17.4365 50.6137C17.0414 50.4559 16.7334 50.2833 16.7721 50.1206C16.8109 49.9579 17.1828 49.8741 17.578 50.0306C17.9731 50.1872 18.2211 50.6112 18.1814 50.7715Z" fill="#3F3D56"/>
<path d="M20.1709 50.194C20.21 50.034 19.9509 49.7895 19.5923 49.6477C19.2336 49.506 18.9113 49.5208 18.8723 49.6807C18.8332 49.8407 19.0923 50.0852 19.4509 50.227C19.8096 50.3687 20.1319 50.3539 20.1709 50.194Z" fill="#3F3D56"/>
<path d="M26.5457 54.6694C26.507 54.8297 26.1186 54.6817 25.7418 54.5326C25.3651 54.3834 25.0716 54.217 25.1103 54.0568C25.1491 53.8965 25.5065 53.8102 25.8852 53.9544C26.2639 54.0987 26.5864 54.5067 26.5457 54.6694Z" fill="#3F3D56"/>
<path d="M34.5808 58.3417C34.5372 58.5216 34.1246 58.3651 33.7246 58.2073C33.3246 58.0495 33.0137 57.8683 33.0572 57.6883C33.1008 57.5083 33.4834 57.3986 33.8834 57.5564C34.2834 57.7142 34.6253 58.1617 34.5808 58.3417Z" fill="#3F3D56"/>
<path d="M36.9305 57.9103C36.8859 58.0902 36.4743 57.9337 36.0743 57.7759C35.6743 57.6181 35.3624 57.4369 35.407 57.2569C35.4515 57.0769 35.8331 56.9672 36.2331 57.125C36.6331 57.2828 36.9741 57.7303 36.9305 57.9103Z" fill="#3F3D56"/>
<path d="M38.0889 57.0313C38.0443 57.2113 37.7014 57.0831 37.3741 56.9524C37.0467 56.8217 36.7929 56.6639 36.8327 56.4839C36.8724 56.304 37.2026 56.1708 37.5329 56.3015C37.8632 56.4322 38.1324 56.8513 38.0889 57.0313Z" fill="#3F3D56"/>
<path d="M30.3298 53.4293C30.295 53.5723 29.9424 53.4404 29.6073 53.306C29.2722 53.1717 29.0039 53.0213 29.0397 52.8783C29.0756 52.7353 29.3952 52.6527 29.7342 52.7858C30.0732 52.9189 30.3637 53.2851 30.3298 53.4293Z" fill="#3F3D56"/>
<path d="M22.789 50.0499C22.828 49.89 22.6087 49.6611 22.2991 49.5388C21.9896 49.4164 21.707 49.4469 21.6679 49.6069C21.6289 49.7668 21.8483 49.9957 22.1578 50.118C22.4674 50.2404 22.75 50.2099 22.789 50.0499Z" fill="#3F3D56"/>
<path opacity="0.1" d="M26.2958 59.5079C26.3371 59.3385 26.3318 59.1563 26.2807 58.9914C26.2296 58.8264 26.1359 58.6886 26.0149 58.6006C26.0726 58.5172 26.1158 58.4193 26.1418 58.3134C26.1733 58.1847 26.1779 58.0478 26.1554 57.9162C26.1328 57.7845 26.0838 57.6625 26.0132 57.5622C25.9425 57.4618 25.8526 57.3865 25.7523 57.3436C25.6519 57.3007 25.5445 57.2916 25.4406 57.3173C25.4814 57.1384 25.4705 56.9467 25.4099 56.7772C25.3492 56.6076 25.2428 56.4713 25.1099 56.393C24.9771 56.3147 24.8266 56.2996 24.6857 56.3505C24.5449 56.4013 24.4231 56.5147 24.3423 56.6701C24.2635 56.5976 24.1723 56.5501 24.0763 56.5313C23.9802 56.5126 23.882 56.5233 23.7898 56.5624C23.6976 56.6016 23.6141 56.6681 23.5461 56.7565C23.4781 56.8449 23.4277 56.9526 23.3989 57.0708C23.3989 57.088 23.3921 57.104 23.3892 57.1201L23.3679 57.1336C23.2999 57.0557 23.2191 56.9982 23.1313 56.9652C23.0435 56.9323 22.9511 56.9249 22.8608 56.9434C22.7704 56.962 22.6845 57.0061 22.6093 57.0725C22.5342 57.1389 22.4716 57.2258 22.4264 57.327C22.3811 57.4282 22.3542 57.5411 22.3477 57.6572C22.3412 57.7734 22.3553 57.8899 22.3888 57.9983C22.4224 58.1066 22.4746 58.204 22.5416 58.2833C22.6086 58.3626 22.6888 58.4217 22.7761 58.4563C22.8077 58.4691 22.8401 58.4782 22.873 58.4835L22.8807 58.7695L25.8116 60.2943L25.7922 60.0478C25.9077 60.028 26.0165 59.9666 26.1057 59.871C26.1949 59.7754 26.2608 59.6494 26.2958 59.5079V59.5079Z" fill="black"/>
<path opacity="0.1" d="M25.6111 61.9561C25.5484 62.1145 25.4451 62.241 25.3184 62.3147C25.1916 62.3884 25.0489 62.405 24.9137 62.3616C24.9105 62.4724 24.8884 62.5809 24.8488 62.6797C24.8128 62.7712 24.7628 62.8527 24.702 62.9197C24.6411 62.9866 24.5705 63.0376 24.4941 63.0698C24.4177 63.102 24.3371 63.1147 24.2569 63.1072C24.1767 63.0997 24.0984 63.0721 24.0265 63.0261C23.9368 62.9683 23.8593 62.8837 23.8009 62.7795C23.7324 62.9436 23.62 63.0711 23.4842 63.139C23.3483 63.207 23.1978 63.2109 23.0599 63.15C22.922 63.0892 22.8057 62.9676 22.732 62.8072C22.6583 62.6468 22.632 62.4582 22.658 62.2753C22.5906 62.2635 22.5251 62.2377 22.4643 62.1989C22.3193 62.1062 22.2092 61.9439 22.1582 61.7479C22.1072 61.5519 22.1194 61.3381 22.1921 61.1536L22.2115 61.1079L22.2037 61.0796C22.1151 61.0761 22.0281 61.0479 21.949 60.997C21.8035 60.9032 21.6932 60.7396 21.6425 60.5423C21.5917 60.345 21.6046 60.1301 21.6783 59.9449C21.752 59.7597 21.8805 59.6193 22.0356 59.5547C22.1906 59.4901 22.3594 59.5065 22.505 59.6003C22.5336 59.6186 22.5611 59.6396 22.5873 59.6632L22.7481 59.4647L25.6963 60.965L25.5481 61.1252C25.6195 61.2418 25.6633 61.3819 25.6744 61.529C25.6856 61.6761 25.6636 61.8242 25.6111 61.9561Z" fill="black"/>
<path opacity="0.1" d="M23.8115 57.8301L23.0996 60.7665C23.0471 60.9818 23.0613 61.2145 23.1393 61.4169C23.2172 61.6193 23.3531 61.776 23.519 61.855V61.855C23.6072 61.8967 23.7012 61.9152 23.7952 61.9091C23.8893 61.9031 23.9813 61.8727 24.0658 61.8199C24.1503 61.7671 24.2254 61.6929 24.2866 61.6018C24.3478 61.5108 24.3938 61.4048 24.4217 61.2904L25.1336 58.3528C25.1608 58.2389 25.1696 58.1191 25.1594 58.0007C25.1492 57.8823 25.1202 57.7677 25.0742 57.664C25.0282 57.5603 24.9661 57.4695 24.8918 57.3972C24.8174 57.3249 24.7323 57.2726 24.6415 57.2434C24.4705 57.1878 24.2892 57.2177 24.1349 57.3268C23.9806 57.4359 23.8649 57.616 23.8115 57.8301V57.8301Z" fill="black"/>
<path d="M23.8425 58.0089L23.1965 60.642C23.1492 60.835 23.1618 61.0438 23.232 61.2252C23.3021 61.4067 23.4242 61.547 23.5733 61.6171C23.6524 61.6544 23.7366 61.6708 23.8208 61.6653C23.9051 61.6598 23.9876 61.6325 24.0632 61.5851C24.1389 61.5377 24.2062 61.4712 24.261 61.3895C24.3158 61.3079 24.357 61.213 24.382 61.1104L25.0241 58.4761C25.0491 58.3735 25.0573 58.2655 25.0484 58.1587C25.0395 58.0519 25.0136 57.9485 24.9722 57.8549C24.9309 57.7612 24.8751 57.6792 24.808 57.614C24.741 57.5487 24.6643 57.5014 24.5825 57.4751V57.4751C24.4289 57.4278 24.267 57.4566 24.1296 57.5558C23.9921 57.6549 23.8895 57.8169 23.8425 58.0089V58.0089Z" fill="#3F3D56"/>
<path d="M15.421 71.6182C15.421 71.6182 12.0689 70.489 11.4374 70.5728C10.8059 70.6566 12.3953 66.7082 13.4539 67.1902C14.5125 67.6722 15.9256 68.937 16.7324 67.1483C17.5392 65.3596 17.9915 64.3981 18.9765 64.4942C19.9615 64.5904 21.3214 63.7238 22.3045 64.4942C23.2875 65.2647 23.9771 66.2114 25.335 66.1707C26.6929 66.13 27.9782 62.279 29.0378 63.8199C30.0974 65.3608 31.3623 66.7698 32.356 66.2582C33.3498 65.7467 34.4868 66.5159 35.3915 67.3825C36.2961 68.2491 37.8884 67.8633 38.4908 67.1902C39.0932 66.5171 39.5494 66.0339 40.8357 66.13C42.1219 66.2262 46.2062 67.3825 47.7191 68.826C49.232 70.2696 45.753 72.1002 44.088 72.1002C42.4231 72.1002 42.1219 72.6771 40.6846 73.5437C39.2472 74.4103 36.9014 73.0629 35.2375 74.5064C33.5735 75.95 31.4553 73.7372 28.5806 74.5064C25.706 75.2757 26.3113 76.3358 24.6474 75.5666C22.9834 74.7974 23.5878 74.5064 21.1674 74.3141C18.747 74.1218 16.099 74.7961 15.8723 73.5437C15.6457 72.2912 14.1338 72.004 13.2253 71.6182C12.3168 71.2323 15.421 71.6182 15.421 71.6182Z" fill="#3F3D56"/>
<g clip-path="url(#clip1_108_333)">
<path d="M124.681 119.568H62.7288V121.483H124.681V119.568Z" fill="#65617D"/>
<path opacity="0.1" d="M105.22 94.7709C105.221 94.8219 105.224 94.8729 105.23 94.9236C105.224 94.8729 105.221 94.8219 105.22 94.7709Z" fill="#FFC33E"/>
<path opacity="0.1" d="M105.777 95.8054C105.697 95.7581 105.623 95.699 105.556 95.6295C105.623 95.699 105.697 95.7581 105.777 95.8054V95.8054Z" fill="#FFC33E"/>
<g opacity="0.1">
<path d="M84.3899 80.4618H80.5761C80.2546 80.4618 79.9939 80.756 79.9939 81.119V82.3705C79.9939 82.7335 80.2546 83.0277 80.5761 83.0277H84.3899C84.7114 83.0277 84.9721 82.7335 84.9721 82.3705V81.119C84.9721 80.756 84.7114 80.4618 84.3899 80.4618Z" fill="#FFC33E"/>
<path d="M89.368 80.4618H85.5543C85.2327 80.4618 84.972 80.756 84.972 81.119V82.3705C84.972 82.7335 85.2327 83.0277 85.5543 83.0277H89.368C89.6896 83.0277 89.9502 82.7335 89.9502 82.3705V81.119C89.9502 80.756 89.6896 80.4618 89.368 80.4618Z" fill="#FFC33E"/>
<path d="M94.3462 80.4618H90.5325C90.2109 80.4618 89.9503 80.756 89.9503 81.119V82.3705C89.9503 82.7335 90.2109 83.0277 90.5325 83.0277H94.3462C94.6678 83.0277 94.9284 82.7335 94.9284 82.3705V81.119C94.9284 80.756 94.6678 80.4618 94.3462 80.4618Z" fill="#FFC33E"/>
<path d="M99.3238 80.4618H95.5101C95.1885 80.4618 94.9279 80.756 94.9279 81.119V82.3705C94.9279 82.7335 95.1885 83.0277 95.5101 83.0277H99.3238C99.6454 83.0277 99.906 82.7335 99.906 82.3705V81.119C99.906 80.756 99.6454 80.4618 99.3238 80.4618Z" fill="#FFC33E"/>
<path d="M84.3899 82.886H80.5761C80.2546 82.886 79.9939 83.1802 79.9939 83.5432V84.7947C79.9939 85.1577 80.2546 85.4519 80.5761 85.4519H84.3899C84.7114 85.4519 84.9721 85.1577 84.9721 84.7947V83.5432C84.9721 83.1802 84.7114 82.886 84.3899 82.886Z" fill="#FFC33E"/>
<path d="M89.368 82.886H85.5543C85.2327 82.886 84.972 83.1802 84.972 83.5432V84.7947C84.972 85.1577 85.2327 85.4519 85.5543 85.4519H89.368C89.6896 85.4519 89.9502 85.1577 89.9502 84.7947V83.5432C89.9502 83.1802 89.6896 82.886 89.368 82.886Z" fill="#FFC33E"/>
<path d="M94.3462 82.886H90.5325C90.2109 82.886 89.9503 83.1802 89.9503 83.5432V84.7947C89.9503 85.1577 90.2109 85.4519 90.5325 85.4519H94.3462C94.6678 85.4519 94.9284 85.1577 94.9284 84.7947V83.5432C94.9284 83.1802 94.6678 82.886 94.3462 82.886Z" fill="#FFC33E"/>
<path d="M99.3238 82.886H95.5101C95.1885 82.886 94.9279 83.1802 94.9279 83.5432V84.7947C94.9279 85.1577 95.1885 85.4519 95.5101 85.4519H99.3238C99.6454 85.4519 99.906 85.1577 99.906 84.7947V83.5432C99.906 83.1802 99.6454 82.886 99.3238 82.886Z" fill="#FFC33E"/>
<path d="M79.3013 85.3029H75.7082C75.3258 85.3029 75.0157 85.6529 75.0157 86.0846V87.087C75.0157 87.5188 75.3258 87.8688 75.7082 87.8688H79.3013C79.6838 87.8688 79.9939 87.5188 79.9939 87.087V86.0846C79.9939 85.6529 79.6838 85.3029 79.3013 85.3029Z" fill="#FFC33E"/>
<path d="M89.2577 85.3029H85.6646C85.2821 85.3029 84.972 85.6529 84.972 86.0846V87.087C84.972 87.5188 85.2821 87.8688 85.6646 87.8688H89.2577C89.6402 87.8688 89.9502 87.5188 89.9502 87.087V86.0846C89.9502 85.6529 89.6402 85.3029 89.2577 85.3029Z" fill="#FFC33E"/>
<path d="M94.2359 85.3029H90.6428C90.2603 85.3029 89.9503 85.6529 89.9503 86.0846V87.087C89.9503 87.5188 90.2603 87.8688 90.6428 87.8688H94.2359C94.6184 87.8688 94.9284 87.5188 94.9284 87.087V86.0846C94.9284 85.6529 94.6184 85.3029 94.2359 85.3029Z" fill="#FFC33E"/>
<path d="M99.2135 85.3029H95.6204C95.2379 85.3029 94.9279 85.6529 94.9279 86.0846V87.087C94.9279 87.5188 95.2379 87.8688 95.6204 87.8688H99.2135C99.596 87.8688 99.906 87.5188 99.906 87.087V86.0846C99.906 85.6529 99.596 85.3029 99.2135 85.3029Z" fill="#FFC33E"/>
<path d="M84.2795 87.7263H80.6865C80.304 87.7263 79.9939 88.0763 79.9939 88.5081V89.5105C79.9939 89.9422 80.304 90.2922 80.6865 90.2922H84.2795C84.662 90.2922 84.9721 89.9422 84.9721 89.5105V88.5081C84.9721 88.0763 84.662 87.7263 84.2795 87.7263Z" fill="#FFC33E"/>
<path d="M89.2577 87.7263H85.6646C85.2821 87.7263 84.972 88.0763 84.972 88.5081V89.5105C84.972 89.9422 85.2821 90.2922 85.6646 90.2922H89.2577C89.6402 90.2922 89.9502 89.9422 89.9502 89.5105V88.5081C89.9502 88.0763 89.6402 87.7263 89.2577 87.7263Z" fill="#FFC33E"/>
<path d="M94.2359 87.7263H90.6428C90.2603 87.7263 89.9503 88.0763 89.9503 88.5081V89.5105C89.9503 89.9422 90.2603 90.2922 90.6428 90.2922H94.2359C94.6184 90.2922 94.9284 89.9422 94.9284 89.5105V88.5081C94.9284 88.0763 94.6184 87.7263 94.2359 87.7263Z" fill="#FFC33E"/>
<path d="M79.3013 90.1432H75.7082C75.3258 90.1432 75.0157 90.4932 75.0157 90.925V91.9273C75.0157 92.3591 75.3258 92.7091 75.7082 92.7091H79.3013C79.6838 92.7091 79.9939 92.3591 79.9939 91.9273V90.925C79.9939 90.4932 79.6838 90.1432 79.3013 90.1432Z" fill="#FFC33E"/>
<path d="M79.3013 97.4077H75.7082C75.3258 97.4077 75.0157 97.7577 75.0157 98.1895V99.1919C75.0157 99.6236 75.3258 99.9736 75.7082 99.9736H79.3013C79.6838 99.9736 79.9939 99.6236 79.9939 99.1919V98.1895C79.9939 97.7577 79.6838 97.4077 79.3013 97.4077Z" fill="#FFC33E"/>
<path d="M89.2577 90.1432H85.6646C85.2821 90.1432 84.972 90.4932 84.972 90.925V91.9273C84.972 92.3591 85.2821 92.7091 85.6646 92.7091H89.2577C89.6402 92.7091 89.9502 92.3591 89.9502 91.9273V90.925C89.9502 90.4932 89.6402 90.1432 89.2577 90.1432Z" fill="#FFC33E"/>
<path d="M94.2359 90.1432H90.6428C90.2603 90.1432 89.9503 90.4932 89.9503 90.925V91.9273C89.9503 92.3591 90.2603 92.7091 90.6428 92.7091H94.2359C94.6184 92.7091 94.9284 92.3591 94.9284 91.9273V90.925C94.9284 90.4932 94.6184 90.1432 94.2359 90.1432Z" fill="#FFC33E"/>
<path d="M99.2135 90.1432H95.6204C95.2379 90.1432 94.9279 90.4932 94.9279 90.925V91.9273C94.9279 92.3591 95.2379 92.7091 95.6204 92.7091H99.2135C99.596 92.7091 99.906 92.3591 99.906 91.9273V90.925C99.906 90.4932 99.596 90.1432 99.2135 90.1432Z" fill="#FFC33E"/>
<path d="M104.192 82.886H100.599C100.216 82.886 99.906 83.236 99.906 83.6678V84.6701C99.906 85.1019 100.216 85.4519 100.599 85.4519H104.192C104.574 85.4519 104.884 85.1019 104.884 84.6701V83.6678C104.884 83.236 104.574 82.886 104.192 82.886Z" fill="#FFC33E"/>
<path d="M104.487 87.7263H100.303C100.084 87.7263 99.906 87.9268 99.906 88.1742V89.8444C99.906 90.0917 100.084 90.2922 100.303 90.2922H104.487C104.707 90.2922 104.884 90.0917 104.884 89.8444V88.1742C104.884 87.9268 104.707 87.7263 104.487 87.7263Z" fill="#FFC33E"/>
<path d="M104.487 90.1432H100.303C100.084 90.1432 99.906 90.3437 99.906 90.591V92.2613C99.906 92.5086 100.084 92.7091 100.303 92.7091H104.487C104.707 92.7091 104.884 92.5086 104.884 92.2613V90.591C104.884 90.3437 104.707 90.1432 104.487 90.1432Z" fill="#FFC33E"/>
<path d="M84.2936 92.5674H80.6724C80.2977 92.5674 79.9939 92.9103 79.9939 93.3333V94.3674C79.9939 94.7904 80.2977 95.1333 80.6724 95.1333H84.2936C84.6683 95.1333 84.9721 94.7904 84.9721 94.3674V93.3333C84.9721 92.9103 84.6683 92.5674 84.2936 92.5674Z" fill="#FFC33E"/>
<path d="M89.2718 92.5674H85.6505C85.2758 92.5674 84.972 92.9103 84.972 93.3333V94.3674C84.972 94.7904 85.2758 95.1333 85.6505 95.1333H89.2718C89.6465 95.1333 89.9502 94.7904 89.9502 94.3674V93.3333C89.9502 92.9103 89.6465 92.5674 89.2718 92.5674Z" fill="#FFC33E"/>
<path d="M94.25 92.5674H90.6287C90.254 92.5674 89.9503 92.9103 89.9503 93.3333V94.3674C89.9503 94.7904 90.254 95.1333 90.6287 95.1333H94.25C94.6247 95.1333 94.9284 94.7904 94.9284 94.3674V93.3333C94.9284 92.9103 94.6247 92.5674 94.25 92.5674Z" fill="#FFC33E"/>
<path d="M99.2276 92.5674H95.6063C95.2316 92.5674 94.9279 92.9103 94.9279 93.3333V94.3674C94.9279 94.7904 95.2316 95.1333 95.6063 95.1333H99.2276C99.6023 95.1333 99.906 94.7904 99.906 94.3674V93.3333C99.906 92.9103 99.6023 92.5674 99.2276 92.5674Z" fill="#FFC33E"/>
<path d="M79.3154 94.9835H75.6942C75.3194 94.9835 75.0157 95.3264 75.0157 95.7494V96.7836C75.0157 97.2066 75.3194 97.5494 75.6942 97.5494H79.3154C79.6901 97.5494 79.9939 97.2066 79.9939 96.7836V95.7494C79.9939 95.3264 79.6901 94.9835 79.3154 94.9835Z" fill="#FFC33E"/>
<path d="M74.3372 94.9835H70.716C70.3413 94.9835 70.0375 95.3264 70.0375 95.7494V96.7836C70.0375 97.2066 70.3413 97.5494 70.716 97.5494H74.3372C74.712 97.5494 75.0157 97.2066 75.0157 96.7836V95.7494C75.0157 95.3264 74.712 94.9835 74.3372 94.9835Z" fill="#FFC33E"/>
<path d="M73.0983 79.1792H69.4771C69.1023 79.1792 68.7986 79.5221 68.7986 79.9451V80.9793C68.7986 81.4022 69.1023 81.7451 69.4771 81.7451H73.0983C73.473 81.7451 73.7768 81.4022 73.7768 80.9793V79.9451C73.7768 79.5221 73.473 79.1792 73.0983 79.1792Z" fill="#FFC33E"/>
<path d="M70.0464 81.7451H66.4251C66.0504 81.7451 65.7466 82.088 65.7466 82.511V83.5452C65.7466 83.9682 66.0504 84.311 66.4251 84.311H70.0464C70.4211 84.311 70.7248 83.9682 70.7248 83.5452V82.511C70.7248 82.088 70.4211 81.7451 70.0464 81.7451Z" fill="#FFC33E"/>
<path d="M65.5271 91.137H61.9059C61.5312 91.137 61.2274 91.4799 61.2274 91.9028V92.937C61.2274 93.36 61.5312 93.7029 61.9059 93.7029H65.5271C65.9018 93.7029 66.2056 93.36 66.2056 92.937V91.9028C66.2056 91.4799 65.9018 91.137 65.5271 91.137Z" fill="#FFC33E"/>
<path d="M68.0162 93.7002H64.395C64.0203 93.7002 63.7165 94.0431 63.7165 94.4661V95.5003C63.7165 95.9232 64.0203 96.2661 64.395 96.2661H68.0162C68.3909 96.2661 68.6947 95.9232 68.6947 95.5003V94.4661C68.6947 94.0431 68.3909 93.7002 68.0162 93.7002Z" fill="#FFC33E"/>
<path d="M84.2936 94.9835H80.6724C80.2977 94.9835 79.9939 95.3264 79.9939 95.7494V96.7836C79.9939 97.2066 80.2977 97.5494 80.6724 97.5494H84.2936C84.6683 97.5494 84.9721 97.2066 84.9721 96.7836V95.7494C84.9721 95.3264 84.6683 94.9835 84.2936 94.9835Z" fill="#FFC33E"/>
<path d="M89.2718 94.9835H85.6505C85.2758 94.9835 84.972 95.3264 84.972 95.7494V96.7836C84.972 97.2066 85.2758 97.5494 85.6505 97.5494H89.2718C89.6465 97.5494 89.9502 97.2066 89.9502 96.7836V95.7494C89.9502 95.3264 89.6465 94.9835 89.2718 94.9835Z" fill="#FFC33E"/>
<path d="M94.25 94.9835H90.6287C90.254 94.9835 89.9503 95.3264 89.9503 95.7494V96.7836C89.9503 97.2066 90.254 97.5494 90.6287 97.5494H94.25C94.6247 97.5494 94.9284 97.2066 94.9284 96.7836V95.7494C94.9284 95.3264 94.6247 94.9835 94.25 94.9835Z" fill="#FFC33E"/>
<path d="M99.2276 94.9835H95.6063C95.2316 94.9835 94.9279 95.3264 94.9279 95.7494V96.7836C94.9279 97.2066 95.2316 97.5494 95.6063 97.5494H99.2276C99.6023 97.5494 99.906 97.2066 99.906 96.7836V95.7494C99.906 95.3264 99.6023 94.9835 99.2276 94.9835Z" fill="#FFC33E"/>
<path d="M89.2929 97.4077H85.6294C85.2663 97.4077 84.972 97.7399 84.972 98.1497V99.2316C84.972 99.6414 85.2663 99.9736 85.6294 99.9736H89.2929C89.6559 99.9736 89.9502 99.6414 89.9502 99.2316V98.1497C89.9502 97.7399 89.6559 97.4077 89.2929 97.4077Z" fill="#FFC33E"/>
<path d="M94.2711 97.4077H90.6076C90.2446 97.4077 89.9503 97.7399 89.9503 98.1497V99.2316C89.9503 99.6414 90.2446 99.9736 90.6076 99.9736H94.2711C94.6341 99.9736 94.9284 99.6414 94.9284 99.2316V98.1497C94.9284 97.7399 94.6341 97.4077 94.2711 97.4077Z" fill="#FFC33E"/>
<path d="M79.3365 99.8239H75.673C75.31 99.8239 75.0157 100.156 75.0157 100.566V101.648C75.0157 102.058 75.31 102.39 75.673 102.39H79.3365C79.6996 102.39 79.9939 102.058 79.9939 101.648V100.566C79.9939 100.156 79.6996 99.8239 79.3365 99.8239Z" fill="#FFC33E"/>
<path d="M84.3147 99.8239H80.6512C80.2882 99.8239 79.9939 100.156 79.9939 100.566V101.648C79.9939 102.058 80.2882 102.39 80.6512 102.39H84.3147C84.6778 102.39 84.9721 102.058 84.9721 101.648V100.566C84.9721 100.156 84.6778 99.8239 84.3147 99.8239Z" fill="#FFC33E"/>
<path d="M84.3147 102.244H80.6512C80.2882 102.244 79.9939 102.576 79.9939 102.986V104.068C79.9939 104.478 80.2882 104.81 80.6512 104.81H84.3147C84.6778 104.81 84.9721 104.478 84.9721 104.068V102.986C84.9721 102.576 84.6778 102.244 84.3147 102.244Z" fill="#FFC33E"/>
<path d="M89.2929 99.8239H85.6294C85.2663 99.8239 84.972 100.156 84.972 100.566V101.648C84.972 102.058 85.2663 102.39 85.6294 102.39H89.2929C89.6559 102.39 89.9502 102.058 89.9502 101.648V100.566C89.9502 100.156 89.6559 99.8239 89.2929 99.8239Z" fill="#FFC33E"/>
<path d="M94.2711 99.8239H90.6076C90.2446 99.8239 89.9503 100.156 89.9503 100.566V101.648C89.9503 102.058 90.2446 102.39 90.6076 102.39H94.2711C94.6341 102.39 94.9284 102.058 94.9284 101.648V100.566C94.9284 100.156 94.6341 99.8239 94.2711 99.8239Z" fill="#FFC33E"/>
<path d="M99.2487 99.8239H95.5852C95.2222 99.8239 94.9279 100.156 94.9279 100.566V101.648C94.9279 102.058 95.2222 102.39 95.5852 102.39H99.2487C99.6117 102.39 99.906 102.058 99.906 101.648V100.566C99.906 100.156 99.6117 99.8239 99.2487 99.8239Z" fill="#FFC33E"/>
<path d="M89.2929 102.248H85.6294C85.2663 102.248 84.972 102.58 84.972 102.99V104.072C84.972 104.482 85.2663 104.814 85.6294 104.814H89.2929C89.6559 104.814 89.9502 104.482 89.9502 104.072V102.99C89.9502 102.58 89.6559 102.248 89.2929 102.248Z" fill="#FFC33E"/>
<path d="M94.2711 102.248H90.6076C90.2446 102.248 89.9503 102.58 89.9503 102.99V104.072C89.9503 104.482 90.2446 104.814 90.6076 104.814H94.2711C94.6341 104.814 94.9284 104.482 94.9284 104.072V102.99C94.9284 102.58 94.6341 102.248 94.2711 102.248Z" fill="#FFC33E"/>
<path d="M79.3365 104.664H75.673C75.31 104.664 75.0157 104.996 75.0157 105.406V106.488C75.0157 106.898 75.31 107.23 75.673 107.23H79.3365C79.6996 107.23 79.9939 106.898 79.9939 106.488V105.406C79.9939 104.996 79.6996 104.664 79.3365 104.664Z" fill="#FFC33E"/>
<path d="M84.3147 104.664H80.6512C80.2882 104.664 79.9939 104.996 79.9939 105.406V106.488C79.9939 106.898 80.2882 107.23 80.6512 107.23H84.3147C84.6778 107.23 84.9721 106.898 84.9721 106.488V105.406C84.9721 104.996 84.6778 104.664 84.3147 104.664Z" fill="#FFC33E"/>
<path d="M89.2929 104.664H85.6294C85.2663 104.664 84.972 104.996 84.972 105.406V106.488C84.972 106.898 85.2663 107.23 85.6294 107.23H89.2929C89.6559 107.23 89.9502 106.898 89.9502 106.488V105.406C89.9502 104.996 89.6559 104.664 89.2929 104.664Z" fill="#FFC33E"/>
<path d="M94.2711 104.664H90.6076C90.2446 104.664 89.9503 104.996 89.9503 105.406V106.488C89.9503 106.898 90.2446 107.23 90.6076 107.23H94.2711C94.6341 107.23 94.9284 106.898 94.9284 106.488V105.406C94.9284 104.996 94.6341 104.664 94.2711 104.664Z" fill="#FFC33E"/>
<path d="M99.2487 104.664H95.5852C95.2222 104.664 94.9279 104.996 94.9279 105.406V106.488C94.9279 106.898 95.2222 107.23 95.5852 107.23H99.2487C99.6117 107.23 99.906 106.898 99.906 106.488V105.406C99.906 104.996 99.6117 104.664 99.2487 104.664Z" fill="#FFC33E"/>
<path d="M104.487 104.664H100.303C100.084 104.664 99.906 104.865 99.906 105.112V106.782C99.906 107.03 100.084 107.23 100.303 107.23H104.487C104.707 107.23 104.884 107.03 104.884 106.782V105.112C104.884 104.865 104.707 104.664 104.487 104.664Z" fill="#FFC33E"/>
<path d="M84.4937 107.088H80.4722C80.2081 107.088 79.9939 107.33 79.9939 107.628V109.114C79.9939 109.413 80.2081 109.654 80.4722 109.654H84.4937C84.7579 109.654 84.9721 109.413 84.9721 109.114V107.628C84.9721 107.33 84.7579 107.088 84.4937 107.088Z" fill="#FFC33E"/>
<path d="M89.4719 107.088H85.4504C85.1862 107.088 84.972 107.33 84.972 107.628V109.114C84.972 109.413 85.1862 109.654 85.4504 109.654H89.4719C89.7361 109.654 89.9502 109.413 89.9502 109.114V107.628C89.9502 107.33 89.7361 107.088 89.4719 107.088Z" fill="#FFC33E"/>
<path d="M94.4501 107.088H90.4286C90.1644 107.088 89.9503 107.33 89.9503 107.628V109.114C89.9503 109.413 90.1644 109.654 90.4286 109.654H94.4501C94.7143 109.654 94.9284 109.413 94.9284 109.114V107.628C94.9284 107.33 94.7143 107.088 94.4501 107.088Z" fill="#FFC33E"/>
<path d="M99.4277 107.088H95.4062C95.142 107.088 94.9279 107.33 94.9279 107.628V109.114C94.9279 109.413 95.142 109.654 95.4062 109.654H99.4277C99.6919 109.654 99.906 109.413 99.906 109.114V107.628C99.906 107.33 99.6919 107.088 99.4277 107.088Z" fill="#FFC33E"/>
<path d="M84.4937 109.505H80.4722C80.2081 109.505 79.9939 109.746 79.9939 110.044V111.53C79.9939 111.829 80.2081 112.07 80.4722 112.07H84.4937C84.7579 112.07 84.9721 111.829 84.9721 111.53V110.044C84.9721 109.746 84.7579 109.505 84.4937 109.505Z" fill="#FFC33E"/>
<path d="M89.4719 109.505H85.4504C85.1862 109.505 84.972 109.746 84.972 110.044V111.53C84.972 111.829 85.1862 112.07 85.4504 112.07H89.4719C89.7361 112.07 89.9502 111.829 89.9502 111.53V110.044C89.9502 109.746 89.7361 109.505 89.4719 109.505Z" fill="#FFC33E"/>
<path d="M94.4501 109.505H90.4286C90.1644 109.505 89.9503 109.746 89.9503 110.044V111.53C89.9503 111.829 90.1644 112.07 90.4286 112.07H94.4501C94.7143 112.07 94.9284 111.829 94.9284 111.53V110.044C94.9284 109.746 94.7143 109.505 94.4501 109.505Z" fill="#FFC33E"/>
<path d="M99.4277 109.505H95.4062C95.142 109.505 94.9279 109.746 94.9279 110.044V111.53C94.9279 111.829 95.142 112.07 95.4062 112.07H99.4277C99.6919 112.07 99.906 111.829 99.906 111.53V110.044C99.906 109.746 99.6919 109.505 99.4277 109.505Z" fill="#FFC33E"/>
<path d="M79.5155 111.929H75.494C75.2298 111.929 75.0157 112.17 75.0157 112.469V113.955C75.0157 114.253 75.2298 114.495 75.494 114.495H79.5155C79.7797 114.495 79.9939 114.253 79.9939 113.955V112.469C79.9939 112.17 79.7797 111.929 79.5155 111.929Z" fill="#FFC33E"/>
<path d="M84.4937 111.929H80.4722C80.2081 111.929 79.9939 112.17 79.9939 112.469V113.955C79.9939 114.253 80.2081 114.495 80.4722 114.495H84.4937C84.7579 114.495 84.9721 114.253 84.9721 113.955V112.469C84.9721 112.17 84.7579 111.929 84.4937 111.929Z" fill="#FFC33E"/>
<path d="M89.4719 111.929H85.4504C85.1862 111.929 84.972 112.17 84.972 112.469V113.955C84.972 114.253 85.1862 114.495 85.4504 114.495H89.4719C89.7361 114.495 89.9502 114.253 89.9502 113.955V112.469C89.9502 112.17 89.7361 111.929 89.4719 111.929Z" fill="#FFC33E"/>
<path d="M94.4501 111.929H90.4286C90.1644 111.929 89.9503 112.17 89.9503 112.469V113.955C89.9503 114.253 90.1644 114.495 90.4286 114.495H94.4501C94.7143 114.495 94.9284 114.253 94.9284 113.955V112.469C94.9284 112.17 94.7143 111.929 94.4501 111.929Z" fill="#FFC33E"/>
<path d="M99.4277 111.929H95.4062C95.142 111.929 94.9279 112.17 94.9279 112.469V113.955C94.9279 114.253 95.142 114.495 95.4062 114.495H99.4277C99.6919 114.495 99.906 114.253 99.906 113.955V112.469C99.906 112.17 99.6919 111.929 99.4277 111.929Z" fill="#FFC33E"/>
<path d="M79.5155 114.345H75.494C75.2298 114.345 75.0157 114.587 75.0157 114.885V116.371C75.0157 116.669 75.2298 116.911 75.494 116.911H79.5155C79.7797 116.911 79.9939 116.669 79.9939 116.371V114.885C79.9939 114.587 79.7797 114.345 79.5155 114.345Z" fill="#FFC33E"/>
<path d="M84.5753 114.345H80.3906C80.1715 114.345 79.9939 114.545 79.9939 114.793V116.463C79.9939 116.71 80.1715 116.911 80.3906 116.911H84.5753C84.7944 116.911 84.9721 116.71 84.9721 116.463V114.793C84.9721 114.545 84.7944 114.345 84.5753 114.345Z" fill="#FFC33E"/>
<path d="M89.4719 114.345H85.4504C85.1862 114.345 84.972 114.587 84.972 114.885V116.371C84.972 116.669 85.1862 116.911 85.4504 116.911H89.4719C89.7361 116.911 89.9502 116.669 89.9502 116.371V114.885C89.9502 114.587 89.7361 114.345 89.4719 114.345Z" fill="#FFC33E"/>
<path d="M94.4501 114.345H90.4286C90.1644 114.345 89.9503 114.587 89.9503 114.885V116.371C89.9503 116.669 90.1644 116.911 90.4286 116.911H94.4501C94.7143 116.911 94.9284 116.669 94.9284 116.371V114.885C94.9284 114.587 94.7143 114.345 94.4501 114.345Z" fill="#FFC33E"/>
<path d="M99.5193 114.345H95.3146C95.101 114.345 94.9279 114.54 94.9279 114.781V116.474C94.9279 116.715 95.101 116.911 95.3146 116.911H99.5193C99.7329 116.911 99.906 116.715 99.906 116.474V114.781C99.906 114.54 99.7329 114.345 99.5193 114.345Z" fill="#FFC33E"/>
<path d="M79.5155 116.769H75.494C75.2298 116.769 75.0157 117.011 75.0157 117.309V118.795C75.0157 119.093 75.2298 119.335 75.494 119.335H79.5155C79.7797 119.335 79.9939 119.093 79.9939 118.795V117.309C79.9939 117.011 79.7797 116.769 79.5155 116.769Z" fill="#FFC33E"/>
<path d="M84.4937 116.769H80.4722C80.2081 116.769 79.9939 117.011 79.9939 117.309V118.795C79.9939 119.093 80.2081 119.335 80.4722 119.335H84.4937C84.7579 119.335 84.9721 119.093 84.9721 118.795V117.309C84.9721 117.011 84.7579 116.769 84.4937 116.769Z" fill="#FFC33E"/>
<path d="M89.4719 116.769H85.4504C85.1862 116.769 84.972 117.011 84.972 117.309V118.795C84.972 119.093 85.1862 119.335 85.4504 119.335H89.4719C89.7361 119.335 89.9502 119.093 89.9502 118.795V117.309C89.9502 117.011 89.7361 116.769 89.4719 116.769Z" fill="#FFC33E"/>
<path d="M94.5417 116.769H90.337C90.1234 116.769 89.9503 116.965 89.9503 117.206V118.898C89.9503 119.139 90.1234 119.335 90.337 119.335H94.5417C94.7553 119.335 94.9284 119.139 94.9284 118.898V117.206C94.9284 116.965 94.7553 116.769 94.5417 116.769Z" fill="#FFC33E"/>
<path d="M99.5193 116.769H95.3146C95.101 116.769 94.9279 116.965 94.9279 117.206V118.898C94.9279 119.139 95.101 119.335 95.3146 119.335H99.5193C99.7329 119.335 99.906 119.139 99.906 118.898V117.206C99.906 116.965 99.7329 116.769 99.5193 116.769Z" fill="#FFC33E"/>
<path d="M104.406 111.929H100.384C100.12 111.929 99.906 112.17 99.906 112.469V113.955C99.906 114.253 100.12 114.495 100.384 114.495H104.406C104.67 114.495 104.884 114.253 104.884 113.955V112.469C104.884 112.17 104.67 111.929 104.406 111.929Z" fill="#FFC33E"/>
<path d="M104.497 116.769H100.293C100.079 116.769 99.906 116.965 99.906 117.206V118.898C99.906 119.139 100.079 119.335 100.293 119.335H104.497C104.711 119.335 104.884 119.139 104.884 118.898V117.206C104.884 116.965 104.711 116.769 104.497 116.769Z" fill="#FFC33E"/>
</g>
<path opacity="0.1" d="M97.2121 116.828C97.1976 116.815 97.1825 116.804 97.1669 116.793C97.1669 116.793 97.1082 116.035 96.7426 115.567C96.3769 115.098 96.3083 113.805 96.3083 113.805C96.2628 113.797 96.2169 113.792 96.1709 113.792C96.1545 113.752 96.1287 113.689 96.1005 113.615C96.0418 113.451 95.9678 113.238 95.962 113.125C95.9526 112.926 95.5277 111.843 95.5277 111.843C95.5277 111.843 95.0834 109.312 94.2728 108.509C94.2728 108.509 93.9471 107.996 93.9471 107.718C93.9471 107.439 93.5721 107.316 93.5721 107.316C93.5721 107.316 93.3244 106.503 93.3449 106.279C93.3655 106.056 92.8015 105.309 92.8015 105.309C92.8015 105.309 92.7269 104.551 92.582 104.362C92.437 104.173 92.4646 103.658 92.4646 103.658C92.4646 103.658 92.0402 103.213 92.0796 102.923C92.1189 102.633 91.951 102.153 91.951 102.153C91.951 102.153 92.2445 101.568 92.2797 101.093C92.2847 101.034 92.2847 100.974 92.2797 100.914C92.345 100.904 92.4078 100.879 92.4646 100.841C92.761 100.561 92.3959 97.9629 92.3959 97.9629C92.3959 97.9629 91.9903 96.5053 92.1981 95.4102C92.4059 94.315 91.5161 89.2455 91.5161 89.2455C91.5161 89.2455 91.3729 88.6651 91.2186 88.3279C91.2086 88.3067 91.1986 88.2868 91.1886 88.2676C91.3007 88.1748 91.3383 87.9622 91.3383 87.9622C91.3383 87.9622 91.7638 87.2937 91.5144 87.1009C91.2878 86.9273 90.9157 86.8564 90.8177 86.6067C90.812 86.5909 90.8073 86.5748 90.8036 86.5583C91.0454 86.6173 91.2503 86.6703 91.3113 86.6961C91.4874 86.7703 91.9305 86.8598 91.9898 86.3649C92.049 85.87 91.1734 84.6483 91.0941 84.6032C91.0149 84.5582 90.8834 84.1872 90.8834 84.1872C90.9756 83.9937 90.7256 83.7711 90.7256 83.7711L90.5964 83.8486C90.5788 83.4915 90.5413 83.0874 90.5413 83.0874C90.5413 83.0874 90.4421 82.8343 90.2642 81.9724C90.0864 81.1104 89.7114 81.5086 89.5799 81.4887C89.4484 81.4689 88.7171 81.6007 88.4407 81.6749C88.1643 81.7491 86.9459 82.7528 86.8561 82.7747C86.7663 82.7965 86.4347 83.4882 86.3947 83.636C86.3807 83.689 86.4534 83.7506 86.5485 83.8075C86.5344 83.8287 86.5209 83.8499 86.5074 83.8738C86.2681 84.2771 86.1729 84.7678 86.2409 85.2471C86.309 85.7264 86.5352 86.1589 86.8742 86.4576V86.4576C86.8531 86.5146 86.832 86.5722 86.8156 86.6312C86.8045 86.6683 86.7955 86.7061 86.7886 86.7445C86.6795 86.8033 86.5831 86.8881 86.5058 86.9929C86.4285 87.0978 86.3722 87.2203 86.3407 87.352C86.2574 87.7011 86.1758 88.1623 86.2756 88.3266C86.3709 88.4791 86.4127 88.666 86.393 88.8513C86.4018 88.8957 87.0533 89.5204 87.0533 89.8663C87.0533 90.2121 87.4882 89.8099 87.5674 89.7337C87.5832 89.7178 87.6607 89.6523 87.7757 89.5588L87.7276 89.6874C87.5633 90.1193 87.3262 90.7176 87.251 90.7812C87.1337 90.8819 86.4212 93.7029 86.4411 94.0368C86.4611 94.3707 86.3824 96.2006 86.3824 96.2006C86.3824 96.2006 86.1353 98.8082 85.9481 99.1441C85.9481 99.1441 85.819 100.381 85.7004 100.414C85.5819 100.447 85.5332 100.716 86.1559 100.839C86.366 100.88 86.6635 100.925 86.9652 100.967L86.8813 101.133L85.8295 103.213L84.9492 105.588C84.9492 105.588 84.7913 106.191 84.6334 106.191C84.4755 106.191 84.367 106.781 84.367 106.781C84.367 106.781 84.08 107.416 84.1797 107.573C84.2795 107.73 84.367 108.141 84.2384 108.197C84.1099 108.254 84.0224 109.721 84.0224 109.721L83.3182 112.565C83.3182 112.565 83.1204 112.763 83.1603 112.999C83.2002 113.235 82.9625 113.255 82.9625 113.255C82.9084 113.359 82.8654 113.471 82.8345 113.586C82.8316 113.599 82.8304 113.611 82.8287 113.622C82.7725 113.65 82.7258 113.698 82.6954 113.759C82.4607 114.216 82.1027 115.163 81.8961 115.275C81.6895 115.387 81.254 115.486 80.9177 115.453C80.5814 115.42 80.167 115.578 79.9898 115.459C79.7972 115.352 79.589 115.284 79.3753 115.26C79.1675 115.247 79.0273 115.327 79.1892 115.641C79.5255 116.286 80.4734 117.045 80.6906 117.112C80.9077 117.18 82.7847 118.049 82.9824 118.149C83.1802 118.249 83.6832 118.348 83.7038 118.149C83.7243 117.95 83.6539 117.502 83.6539 117.502C83.6542 117.5 83.6542 117.498 83.6539 117.496C83.6897 117.416 84.0453 116.599 84.0178 116.376C83.9872 116.142 84.887 114.882 84.6892 114.514C84.6892 114.514 84.7015 114.443 84.7168 114.347C84.7427 114.2 84.76 114.051 84.7684 113.901C84.7684 113.733 85.4492 112.43 85.4492 112.43C85.4492 112.43 86.2392 110.488 86.2709 109.932C86.3026 109.375 86.5174 109.285 86.5174 109.285C86.5174 109.285 86.5567 109.24 86.616 108.984C86.6753 108.728 86.626 108.282 86.626 108.282C86.626 108.282 86.9611 108.017 86.9717 107.846C86.9822 107.676 89.2019 104.446 89.2019 104.446C89.2019 104.446 89.3504 104.479 89.4191 104.77C89.4878 105.06 91.3946 108.996 91.3946 108.996C91.3946 108.996 92.2539 109.274 92.3137 109.909L92.6694 110.612L93.3596 112.003C93.3596 112.003 93.5779 112.74 93.8544 112.973C93.8544 112.973 94.0304 113.375 93.963 113.564C93.8955 113.753 94.2288 113.899 94.2288 113.899C94.2288 113.899 94.2834 114.199 94.3086 114.401C94.3171 114.454 94.3218 114.508 94.3227 114.562C94.2759 114.62 94.2442 114.693 94.2313 114.771C94.2183 114.848 94.2246 114.929 94.2494 115.003C94.4472 115.749 94.6843 116.207 94.4841 116.46C94.284 116.714 93.7734 117.43 93.7734 117.43C93.7734 117.43 93.0104 117.687 92.8437 117.761C92.7404 117.81 92.6853 117.978 92.7604 118.142C92.8281 118.27 92.9357 118.364 93.062 118.407C93.4864 118.586 95.442 118.507 95.442 118.507C95.442 118.507 97.3201 117.716 97.3976 117.347C97.4645 117.08 97.2972 116.898 97.2121 116.828Z" fill="black"/>
<path d="M103.508 87.3573C103.508 87.4104 103.506 87.4635 103.501 87.5163C103.463 88.0139 103.253 88.4746 102.917 88.7995C102.581 89.1245 102.145 89.2878 101.704 89.2546C101.262 89.2213 100.85 88.9941 100.555 88.6216C100.26 88.2491 100.106 87.761 100.127 87.262C100.147 86.763 100.34 86.2929 100.663 85.9524C100.987 85.6119 101.416 85.4282 101.859 85.4407C102.301 85.4531 102.721 85.6608 103.03 86.0191C103.338 86.3774 103.51 86.8578 103.508 87.3573V87.3573Z" fill="#FDC2CC"/>
<path d="M100.62 86.3887C100.611 86.4755 100.634 86.563 100.627 86.6498C100.618 86.7631 100.561 86.8618 100.518 86.9638C100.474 87.0658 100.442 87.1891 100.487 87.2904C100.525 87.3766 100.604 87.4229 100.663 87.4991C100.751 87.619 100.756 87.7946 100.717 87.9437C100.688 88.0503 100.641 88.1696 100.691 88.2657C100.734 88.3485 100.838 88.3789 100.867 88.469C100.88 88.5271 100.874 88.5886 100.852 88.6426C100.807 88.7784 100.748 88.9076 100.708 89.0454C100.663 89.1816 100.656 89.3305 100.688 89.4714C100.692 89.4893 100.7 89.5058 100.711 89.5191C100.728 89.5326 100.749 89.54 100.77 89.5403L100.932 89.5595C100.996 89.5675 101.075 89.5668 101.108 89.5032C101.123 89.4728 101.124 89.431 101.151 89.4131C101.177 89.3952 101.225 89.4264 101.253 89.4582C101.415 89.6422 101.627 89.759 101.855 89.7894C101.915 89.8037 101.978 89.7928 102.031 89.759C102.08 89.7205 102.104 89.6516 102.149 89.6125C102.257 89.5224 102.417 89.6238 102.542 89.5682C102.653 89.5185 102.694 89.3654 102.699 89.2303C102.704 89.0951 102.688 88.954 102.74 88.8328C102.784 88.7522 102.835 88.676 102.89 88.6049C102.98 88.4478 103.014 88.259 102.987 88.0748C102.961 87.8932 102.911 87.7168 102.841 87.5508C102.728 87.2593 102.599 86.9658 102.39 86.7558C102.343 86.714 102.3 86.6664 102.263 86.614C102.168 86.4629 102.193 86.2417 102.087 86.1006C102.002 85.9866 101.857 85.9594 101.725 85.9621C101.542 85.9653 101.362 86.0118 101.197 86.0986C101.147 86.1282 101.093 86.1505 101.038 86.1648C100.935 86.1854 100.884 86.086 100.785 86.1357C100.741 86.1585 100.702 86.1937 100.674 86.238C100.645 86.2823 100.626 86.3342 100.62 86.3887V86.3887Z" fill="#464A5F"/>
<g opacity="0.1">
<path d="M101.119 86.1711C101.175 86.1571 101.228 86.1348 101.278 86.1047C101.438 86.0221 101.61 85.977 101.786 85.9719C101.765 85.9719 101.745 85.9719 101.727 85.9719C101.545 85.9751 101.365 86.0217 101.199 86.1087C101.152 86.137 101.102 86.1592 101.05 86.175C101.073 86.1791 101.097 86.1778 101.119 86.1711V86.1711Z" fill="black"/>
<path d="M101.011 89.5595L100.849 89.5402C100.828 89.54 100.807 89.5326 100.79 89.519C100.778 89.5061 100.771 89.4898 100.767 89.472C100.734 89.3309 100.741 89.1819 100.786 89.0453C100.826 88.9075 100.886 88.7803 100.93 88.6425C100.953 88.5886 100.958 88.527 100.945 88.469C100.915 88.3789 100.811 88.3484 100.769 88.2656C100.718 88.1702 100.769 88.0502 100.795 87.9436C100.834 87.7945 100.829 87.6189 100.741 87.499C100.687 87.4248 100.604 87.3765 100.565 87.2903C100.52 87.189 100.552 87.0657 100.595 86.9644C100.638 86.863 100.697 86.7656 100.705 86.6497C100.712 86.5629 100.689 86.4754 100.698 86.3887C100.705 86.3349 100.724 86.284 100.753 86.2408C100.783 86.1976 100.821 86.1634 100.865 86.1415C100.871 86.1388 100.878 86.1366 100.884 86.1349C100.852 86.123 100.817 86.1254 100.786 86.1415C100.742 86.1635 100.704 86.1976 100.675 86.2408C100.645 86.284 100.626 86.3349 100.619 86.3887C100.61 86.4754 100.633 86.5629 100.626 86.6497C100.617 86.763 100.56 86.8624 100.516 86.9644C100.473 87.0664 100.441 87.189 100.486 87.2903C100.523 87.3765 100.603 87.4228 100.662 87.499C100.75 87.6189 100.755 87.7945 100.715 87.9436C100.687 88.0502 100.64 88.1702 100.69 88.2656C100.733 88.3484 100.837 88.3789 100.866 88.469C100.879 88.527 100.873 88.5885 100.85 88.6425C100.806 88.7784 100.746 88.9075 100.707 89.0453C100.661 89.1818 100.654 89.3309 100.687 89.472C100.691 89.4897 100.699 89.5059 100.71 89.519C100.727 89.5325 100.748 89.5399 100.769 89.5402L100.931 89.5595C100.959 89.5631 100.988 89.5631 101.016 89.5595H101.011Z" fill="black"/>
<path d="M101.934 89.792C101.706 89.7611 101.494 89.6444 101.332 89.4608C101.304 89.429 101.264 89.3945 101.229 89.4157C101.225 89.4188 101.222 89.4229 101.219 89.4276C101.231 89.4376 101.242 89.4487 101.253 89.4608C101.415 89.6445 101.627 89.7612 101.855 89.792C101.887 89.7963 101.919 89.7963 101.951 89.792H101.934Z" fill="black"/>
<path d="M102.317 89.5781C102.371 89.5856 102.426 89.5881 102.48 89.5856C102.426 89.5771 102.372 89.5746 102.317 89.5781Z" fill="black"/>
</g>
<path d="M110.083 116.252C109.974 116.911 108.187 117.022 108.214 117C108.22 116.94 108.217 116.88 108.204 116.821C108.179 116.623 108.124 116.32 108.124 116.32C108.124 116.32 107.789 116.175 107.858 115.985C107.927 115.794 107.749 115.394 107.749 115.394C107.473 115.16 107.255 114.424 107.255 114.424L106.564 113.032L106.209 112.329C106.15 111.695 105.29 111.417 105.29 111.417C105.29 111.417 103.383 107.481 103.314 107.19C103.245 106.9 103.097 106.868 103.097 106.868C103.097 106.868 100.877 110.098 100.867 110.269C100.857 110.44 100.522 110.704 100.522 110.704C100.522 110.704 100.571 111.15 100.512 111.406C100.452 111.662 100.413 111.707 100.413 111.707C100.413 111.707 100.195 111.796 100.167 112.354C100.138 112.912 99.3449 114.852 99.3449 114.852C99.3449 114.852 98.6641 116.156 98.6641 116.324C98.6556 116.474 98.6384 116.622 98.6124 116.77C98.5978 116.865 98.5849 116.937 98.5849 116.937C98.5849 116.937 96.8863 116.219 96.7584 116.165C96.7144 116.146 96.712 116.081 96.7291 116.004C96.7599 115.889 96.8029 115.778 96.857 115.673C96.857 115.673 97.0918 115.652 97.0548 115.417C97.0178 115.183 97.2127 114.983 97.2127 114.983L97.917 112.139C97.917 112.139 98.005 110.668 98.1335 110.612C98.2621 110.557 98.1729 110.143 98.0748 109.988C97.9768 109.833 98.2621 109.193 98.2621 109.193C98.2621 109.193 98.3701 108.603 98.5285 108.603C98.687 108.603 98.8443 108 98.8443 108L99.7246 105.625L100.776 103.545L100.999 103.106C100.999 103.106 105.424 102.659 105.967 102.95C106.15 103.047 106.196 103.262 106.177 103.503C106.14 103.98 105.848 104.563 105.848 104.563C105.848 104.563 106.016 105.044 105.977 105.333C105.938 105.623 106.362 106.069 106.362 106.069C106.362 106.069 106.333 106.582 106.479 106.772C106.626 106.962 106.699 107.72 106.699 107.72C106.699 107.72 107.262 108.467 107.242 108.69C107.223 108.914 107.47 109.726 107.47 109.726C107.47 109.726 107.845 109.85 107.845 110.128C107.845 110.406 108.17 110.923 108.17 110.923C108.977 111.727 109.421 114.257 109.421 114.257C109.421 114.257 109.846 115.339 109.855 115.539C109.861 115.653 109.933 115.865 109.994 116.03C110.042 116.156 110.083 116.252 110.083 116.252Z" fill="#5F5D7E"/>
<path opacity="0.1" d="M103.508 87.3573C103.508 87.4104 103.506 87.4635 103.501 87.5163C103.302 87.6329 103.104 87.7462 102.939 87.8402C102.704 87.9727 102.54 88.0629 102.54 88.0629C102.54 88.0629 101.677 87.4666 101.519 87.193C101.362 86.9193 100.874 86.502 100.874 86.502C100.874 86.502 100.752 86.4602 100.619 86.4006C100.544 86.368 100.471 86.3295 100.4 86.2853C100.604 85.9456 100.899 85.6886 101.242 85.552C101.585 85.4154 101.958 85.4064 102.306 85.5262C102.654 85.6461 102.958 85.8885 103.175 86.218C103.392 86.5475 103.51 86.9468 103.511 87.3573H103.508Z" fill="black"/>
<path d="M100.874 86.4132C100.874 86.4132 100.248 86.1972 100.287 86.0488C100.326 85.9004 100.655 85.2087 100.748 85.1875C100.84 85.1663 102.058 84.1613 102.332 84.0871C102.606 84.0129 103.339 83.879 103.471 83.9016C103.604 83.9241 103.979 83.5226 104.156 84.3845C104.334 85.2465 104.433 85.4996 104.433 85.4996C104.433 85.4996 104.538 86.6219 104.479 86.7782C104.419 86.9346 102.537 87.9747 102.537 87.9747C102.537 87.9747 101.674 87.3785 101.516 87.1048C101.358 86.8312 100.874 86.4132 100.874 86.4132Z" fill="#65617D"/>
<path opacity="0.1" d="M106.174 103.505C105.321 103.71 102.051 103.71 102.051 103.71C102.051 103.71 101.387 103.635 100.772 103.548L100.995 103.109C100.995 103.109 105.42 102.662 105.963 102.952C106.147 103.048 106.193 103.264 106.174 103.505Z" fill="black"/>
<path d="M106.359 103.253C106.066 103.531 102.052 103.531 102.052 103.531C102.052 103.531 100.67 103.375 100.048 103.253C99.4265 103.131 99.474 102.862 99.5926 102.828C99.7111 102.795 99.8402 101.558 99.8402 101.558C100.027 101.223 100.275 98.6148 100.275 98.6148C100.275 98.6148 100.354 96.7862 100.333 96.451C100.313 96.1158 101.025 93.2961 101.143 93.1954C101.218 93.1291 101.455 92.5329 101.62 92.1016C101.714 91.8511 101.786 91.6577 101.786 91.6577C102.289 90.6321 104.768 90.3857 104.965 90.5195C105.029 90.5786 105.08 90.6546 105.112 90.7408C105.267 91.078 105.41 91.6577 105.41 91.6577C105.41 91.6577 106.299 96.7299 106.092 97.8231C105.885 98.9162 106.29 100.376 106.29 100.376C106.29 100.376 106.655 102.974 106.359 103.253Z" fill="#FFC33E"/>
<path d="M103.584 102.372H102.695V102.818H103.584V102.372Z" fill="#5F5D7E"/>
<path opacity="0.1" d="M101.342 103.208C101.342 103.208 100.887 104.136 100.729 104.167C100.571 104.198 100.344 105.605 101.252 106.088C102.161 106.571 102.191 104.65 102.191 104.65L102.553 103.033L101.569 102.62L101.342 103.208Z" fill="black"/>
<path d="M101.262 103.119C101.262 103.119 100.808 104.046 100.65 104.078C100.492 104.11 100.265 105.516 101.174 105.995C102.083 106.474 102.113 104.557 102.113 104.557L102.474 102.94L101.49 102.528L101.262 103.119Z" fill="#464A5F"/>
<path opacity="0.1" d="M105.085 107.233C105.085 107.233 105.796 108.094 106.181 107.712C106.566 107.331 105.085 107.233 105.085 107.233Z" fill="black"/>
<path opacity="0.1" d="M106.201 108.571C106.201 108.571 106.783 109.396 106.793 108.95C106.803 108.504 106.201 108.571 106.201 108.571Z" fill="black"/>
<path opacity="0.1" d="M106.793 110.535C106.793 110.535 107.208 110.568 107.357 110.322L106.793 110.535Z" fill="black"/>
<path opacity="0.1" d="M107.208 111.269C107.208 111.269 107.485 111.437 107.673 111.18L107.208 111.269Z" fill="black"/>
<path opacity="0.1" d="M102.191 105.282C102.191 105.282 102.367 106.419 103.099 106.865L102.191 105.282Z" fill="black"/>
<path opacity="0.1" d="M99.2475 111.528C99.2475 111.528 99.1583 111.818 99.6525 111.896C100.147 111.974 99.2475 111.528 99.2475 111.528Z" fill="black"/>
<path opacity="0.1" d="M99.4746 110.534C99.4746 110.534 99.8003 111.224 99.9289 111.179L99.4746 110.534Z" fill="black"/>
<path opacity="0.1" d="M99.8896 109.928C99.8896 109.928 99.9882 110.243 100.235 110.21C100.482 110.177 99.8896 109.928 99.8896 109.928Z" fill="black"/>
<path opacity="0.1" d="M98.6136 116.766C98.5989 116.862 98.586 116.933 98.586 116.933C98.586 116.933 96.8863 116.219 96.7584 116.165C96.7144 116.146 96.712 116.081 96.7291 116.004C97.0143 115.716 97.6775 116.244 97.6775 116.244C97.6775 116.244 98.3577 116.443 98.6136 116.766Z" fill="black"/>
<path d="M97.5507 119.915C97.551 119.917 97.551 119.919 97.5507 119.921C97.5507 119.921 97.6194 120.367 97.6006 120.568C97.5818 120.769 97.0765 120.668 96.8793 120.568C96.6821 120.468 94.8052 119.597 94.5903 119.531C94.3755 119.465 93.4247 118.706 93.089 118.06C92.927 117.746 93.0667 117.662 93.2745 117.679C93.4883 117.703 93.6964 117.771 93.889 117.878C94.0651 117.997 94.4818 117.838 94.8169 117.872C95.152 117.905 95.5881 117.805 95.7953 117.693C96.0025 117.581 96.3575 116.633 96.5946 116.177C96.8318 115.72 97.603 116.333 97.603 116.333C97.603 116.333 98.3882 116.563 98.5884 116.933C98.7885 117.304 97.8841 118.561 97.917 118.794C97.9498 119.028 97.5865 119.835 97.5507 119.915Z" fill="#464A5F"/>
<path d="M97.5983 120.568C97.5777 120.767 97.0742 120.668 96.877 120.568C96.6798 120.468 94.8028 119.597 94.588 119.531C94.3732 119.465 93.4224 118.706 93.0867 118.06C92.9247 117.746 93.0644 117.662 93.2722 117.679C93.384 117.948 93.559 118.177 93.7781 118.342C94.3609 118.806 95.6251 119.46 95.6251 119.46C95.6251 119.46 96.3364 119.427 96.6622 119.659C96.877 119.813 97.2949 119.88 97.5531 119.909C97.5534 119.911 97.5534 119.913 97.5531 119.915C97.5531 119.915 97.6171 120.367 97.5983 120.568Z" fill="#464A5F"/>
<path d="M97.3212 117.002C97.3212 117.002 96.6199 118.505 96.6199 118.605C96.6199 118.706 96.3434 119.642 96.3434 119.642L96.8323 119.866L97.0155 118.661L97.6669 117.212L97.3212 117.002Z" fill="#464A5F"/>
<path opacity="0.1" d="M110.083 116.252C109.974 116.911 108.187 117.022 108.214 117C108.22 116.94 108.217 116.88 108.204 116.821C108.44 116.497 109.094 116.497 109.094 116.497C109.33 116.218 109.652 116.052 109.994 116.033C110.042 116.156 110.083 116.252 110.083 116.252Z" fill="black"/>
<path d="M111.297 119.776C111.219 120.144 109.342 120.935 109.342 120.935C109.342 120.935 107.386 121.014 106.962 120.836C106.836 120.793 106.728 120.698 106.66 120.571C106.585 120.408 106.64 120.239 106.743 120.191C106.912 120.113 107.673 119.856 107.673 119.856C107.673 119.856 108.187 119.143 108.384 118.886C108.581 118.629 108.345 118.172 108.149 117.428C107.954 116.684 109.094 116.677 109.094 116.677C109.608 116.086 110.2 116.219 110.2 116.219C110.2 116.219 110.269 117.513 110.635 117.981C111 118.449 111.059 119.208 111.059 119.208C111.075 119.218 111.09 119.23 111.104 119.242C111.19 119.314 111.358 119.497 111.297 119.776Z" fill="#464A5F"/>
<path d="M111.297 119.776C111.219 120.144 109.342 120.935 109.342 120.935C109.342 120.935 107.386 121.014 106.962 120.836C106.836 120.793 106.728 120.698 106.66 120.571C107.065 120.642 107.827 120.769 107.951 120.738C108.119 120.693 108.773 120.771 109.146 120.402C109.52 120.034 110.085 119.778 110.085 119.778C110.085 119.778 110.759 119.469 111.108 119.248C111.19 119.314 111.358 119.497 111.297 119.776Z" fill="#464A5F"/>
<path d="M109.352 117.324L109.697 118.795L110.142 119.954L110.498 119.765L109.974 118.639L109.599 117.324H109.352Z" fill="#464A5F"/>
<path opacity="0.1" d="M97.6669 117.212L97.3212 117.002C97.3212 117.002 96.6199 118.505 96.6199 118.605C96.6199 118.685 96.4438 119.293 96.374 119.539C96.1271 119.48 95.8749 119.455 95.6227 119.463C95.6227 119.463 94.3585 118.806 93.7757 118.345C93.5566 118.181 93.3817 117.951 93.2698 117.683C93.062 117.669 92.9223 117.749 93.0843 118.063C93.42 118.709 94.3679 119.467 94.5856 119.534C94.8034 119.602 96.6792 120.471 96.8746 120.571C97.07 120.671 97.5754 120.77 97.5959 120.571C97.6165 120.372 97.546 119.925 97.546 119.925C97.5463 119.922 97.5463 119.92 97.546 119.918C97.307 119.897 97.0708 119.846 96.8417 119.766L97.009 118.664L97.6669 117.212Z" fill="black"/>
<path opacity="0.1" d="M111.105 119.242C110.921 119.362 110.645 119.504 110.426 119.612L109.974 118.639L109.599 117.324H109.352L109.698 118.795L110.075 119.78C110.007 119.812 109.494 120.058 109.145 120.4C108.77 120.769 108.117 120.691 107.95 120.736C107.828 120.767 107.065 120.64 106.659 120.569C106.727 120.696 106.834 120.791 106.961 120.834C107.385 121.012 109.341 120.933 109.341 120.933C109.341 120.933 111.219 120.142 111.296 119.774C111.358 119.497 111.19 119.314 111.105 119.242Z" fill="black"/>
<path d="M102.079 88.3901C102.079 88.3901 102.954 87.2234 103.231 87.0373C103.508 86.8511 104.621 86.1826 104.621 86.1826C104.621 86.1826 104.871 86.4059 104.779 86.5987C104.779 86.5987 104.911 86.9703 104.989 87.0154C105.068 87.0605 105.944 88.2788 105.885 88.777C105.826 89.2752 105.384 89.1858 105.206 89.1083C105.029 89.0308 103.653 88.7293 103.653 88.7293L102.079 88.3901Z" fill="#FFC33E"/>
<path opacity="0.1" d="M103.416 87.588C103.416 87.588 104.015 87.3889 104.061 87.588C104.108 87.7872 103.416 87.588 103.416 87.588Z" fill="black"/>
<path opacity="0.1" d="M105.113 90.7408C105.101 90.7536 105.088 90.7655 105.075 90.7765C104.958 90.8653 103.702 90.8653 103.416 90.8653C103.177 90.8653 102.047 91.7518 101.62 92.1016C101.715 91.8511 101.786 91.6577 101.786 91.6577C102.289 90.6321 104.769 90.3857 104.966 90.5195C105.03 90.5786 105.081 90.6546 105.113 90.7408V90.7408Z" fill="black"/>
<path d="M105.233 90.3751C105.233 90.3751 105.193 90.5977 105.075 90.6872C104.956 90.7766 103.702 90.7766 103.416 90.7766C103.13 90.7766 101.538 92.0698 101.46 92.148C101.383 92.2262 100.946 92.627 100.946 92.2805C100.946 91.934 100.295 91.3099 100.286 91.2655C100.305 91.0803 100.264 90.8933 100.168 90.7408C100.069 90.5765 100.15 90.1154 100.234 89.7663C100.265 89.6347 100.322 89.5123 100.399 89.4074C100.476 89.3026 100.572 89.2178 100.681 89.1587C101.043 88.96 101.611 88.644 101.907 88.4339C101.979 88.3816 102.1 88.3604 102.252 88.3597C103.048 88.3597 104.695 88.9474 104.695 88.9474C104.699 88.9724 104.706 88.9969 104.715 89.0203V89.0203C104.813 89.27 105.184 89.3403 105.411 89.5145C105.658 89.706 105.233 90.3751 105.233 90.3751Z" fill="#5F5D7E"/>
<path opacity="0.1" d="M100.68 90.2744C100.68 90.2744 101.637 90.3302 101.687 90.3806C101.737 90.4311 100.68 90.2744 100.68 90.2744Z" fill="black"/>
<path opacity="0.1" d="M103.307 91.4345C103.307 91.4345 101.809 92.2593 101.921 92.9284C101.921 92.9284 102.112 93.1623 102.023 93.4187C101.934 93.6751 101.855 95.4811 101.964 95.6149C102.073 95.7488 102.191 96.0721 102.132 96.2953C102.073 96.5186 102.221 97.5217 102.221 97.5217C102.221 97.5217 102.439 98.0232 102.181 98.1351C101.924 98.2471 102.152 98.6141 102.152 98.6141C102.152 98.6141 102.152 99.0713 101.911 99.0938C101.671 99.1163 101.866 99.696 101.866 99.696C101.866 99.696 101.748 100.086 101.559 100.052C101.37 100.019 101.668 100.61 101.668 100.61C101.668 100.61 100.947 101.156 101.036 102.06L100.936 102.673L102.358 103.364L102.546 102.963C102.546 102.963 102.931 102.862 102.882 102.595C102.832 102.327 103.139 102.171 103.139 102.171C103.139 102.171 103.197 101.758 103.395 101.58C103.593 101.402 103.899 100.643 103.899 100.643C103.899 100.643 104.075 100.22 104.324 100.042C104.573 99.8636 104.768 98.9938 104.768 98.9938L104.916 93.0059C104.916 93.0059 104.374 91.1668 103.307 91.4345Z" fill="black"/>
<path opacity="0.1" d="M103.623 91.4345C103.623 91.4345 102.125 92.2593 102.237 92.9284C102.237 92.9284 102.428 93.1623 102.339 93.4187C102.25 93.6751 102.171 95.4811 102.28 95.6149C102.389 95.7488 102.507 96.0721 102.448 96.2953C102.389 96.5186 102.537 97.5217 102.537 97.5217C102.537 97.5217 102.754 98.0232 102.498 98.1351C102.241 98.2471 102.468 98.6141 102.468 98.6141C102.468 98.6141 102.471 99.0713 102.228 99.0938C101.984 99.1163 102.181 99.696 102.181 99.696C102.181 99.696 102.064 100.086 101.875 100.052C101.686 100.019 101.984 100.61 101.984 100.61C101.984 100.61 101.263 101.156 101.352 102.06L101.253 102.673L102.676 103.364L102.863 102.963C102.863 102.963 103.248 102.862 103.199 102.595C103.149 102.327 103.456 102.171 103.456 102.171C103.456 102.171 103.514 101.758 103.713 101.58C103.911 101.402 104.216 100.643 104.216 100.643C104.216 100.643 104.392 100.22 104.641 100.042C104.89 99.8636 105.086 98.9938 105.086 98.9938L105.233 93.0059C105.233 93.0059 104.692 91.1668 103.623 91.4345Z" fill="black"/>
<path d="M103.465 91.4345C103.465 91.4345 101.967 92.2593 102.079 92.9284C102.079 92.9284 102.27 93.1623 102.181 93.4187C102.092 93.6751 102.013 95.4811 102.122 95.6149C102.231 95.7488 102.349 96.0721 102.29 96.2953C102.231 96.5186 102.379 97.5217 102.379 97.5217C102.379 97.5217 102.596 98.0232 102.339 98.1351C102.082 98.2471 102.31 98.6141 102.31 98.6141C102.31 98.6141 102.313 99.0713 102.069 99.0938C101.826 99.1163 102.024 99.696 102.024 99.696C102.024 99.696 101.906 100.086 101.717 100.052C101.528 100.019 101.826 100.61 101.826 100.61C101.826 100.61 101.105 101.156 101.194 102.06L101.095 102.673L102.517 103.364L102.705 102.963C102.705 102.963 103.09 102.862 103.041 102.595C102.991 102.327 103.298 102.171 103.298 102.171C103.298 102.171 103.356 101.758 103.554 101.58C103.752 101.402 104.058 100.643 104.058 100.643C104.058 100.643 104.234 100.22 104.483 100.042C104.731 99.8636 104.927 98.9938 104.927 98.9938L105.075 93.0059C105.075 93.0059 104.531 91.1668 103.465 91.4345Z" fill="#FFC33E"/>
<path opacity="0.1" d="M102.428 99.0063C102.428 99.0063 102.833 99.4416 102.833 99.5642C102.833 99.6868 102.299 99.3409 102.299 99.3409L102.428 99.0063Z" fill="black"/>
<path opacity="0.1" d="M102.191 100.075C102.191 100.075 102.586 100.576 102.457 100.599C102.329 100.622 102.191 100.075 102.191 100.075Z" fill="black"/>
<path opacity="0.1" d="M102.833 101.647C102.833 101.647 101.934 101.814 102.142 101.881C102.349 101.948 102.833 101.647 102.833 101.647Z" fill="black"/>
<path opacity="0.1" d="M103.085 98.3358C103.085 98.3358 104.709 99.1606 104.435 99.3839C104.16 99.6072 103.085 98.3358 103.085 98.3358Z" fill="black"/>
<path opacity="0.1" d="M104.713 89.0215C104.674 88.9877 102.079 88.3901 102.079 88.3901L102.251 88.361C103.047 88.361 104.693 88.9486 104.693 88.9486C104.697 88.9737 104.704 88.9981 104.713 89.0215V89.0215Z" fill="black"/>
<path opacity="0.1" d="M102.862 84.7404C102.862 84.7404 103.639 85.8965 104.008 85.6016C104.376 85.3068 103.429 84.6516 102.862 84.7404Z" fill="black"/>
<path opacity="0.1" d="M101.094 91.4901C101.094 91.4901 101.754 91.2668 101.809 91.2251C101.865 91.1834 101.094 91.4901 101.094 91.4901Z" fill="black"/>
<path opacity="0.1" d="M104.18 90.3691C104.18 90.3691 104.866 90.4355 104.932 90.4149C104.997 90.3944 104.18 90.3691 104.18 90.3691Z" fill="black"/>
<path opacity="0.1" d="M104.539 89.5721C104.539 89.5721 105.225 89.6385 105.291 89.6173C105.357 89.596 104.539 89.5721 104.539 89.5721Z" fill="black"/>
<path opacity="0.1" d="M102.619 89.5231C102.619 89.5231 103.305 89.5895 103.371 89.5689C103.437 89.5483 102.619 89.5231 102.619 89.5231Z" fill="black"/>
<path opacity="0.1" d="M100.936 91.0906C100.936 91.0906 101.595 90.8673 101.65 90.8256C101.706 90.7838 100.936 91.0906 100.936 91.0906Z" fill="black"/>
<path d="M123.544 110.713L123.097 118.782C123.08 119.084 122.962 119.366 122.767 119.573C122.572 119.78 122.315 119.895 122.048 119.895H116.665C116.398 119.895 116.141 119.78 115.946 119.573C115.751 119.366 115.633 119.084 115.616 118.782L115.169 110.713C115.167 110.673 115.173 110.633 115.185 110.595C115.198 110.557 115.217 110.523 115.242 110.493C115.266 110.464 115.296 110.441 115.329 110.425C115.362 110.41 115.397 110.401 115.433 110.402H123.286C123.322 110.402 123.357 110.41 123.39 110.427C123.422 110.443 123.452 110.466 123.476 110.496C123.501 110.525 123.519 110.56 123.532 110.597C123.544 110.635 123.549 110.675 123.547 110.716L123.544 110.713Z" fill="#464A5F"/>
<path d="M118.426 110.222C118.563 110.284 118.799 110.4 118.799 110.181C118.799 110.089 118.732 110.082 118.669 110.058C118.431 109.96 118.227 109.778 118.09 109.538C117.841 109.123 117.783 108.709 117.783 108.213C117.783 107.114 119.124 106.915 119.124 105.816C119.124 105.396 118.889 105.272 118.889 105.154C118.889 105.078 118.91 105.078 118.977 105.078C119.219 105.078 119.556 105.534 119.659 105.757C119.716 105.872 119.742 106.004 119.732 106.136C119.732 106.376 119.711 106.623 119.711 106.865C119.711 107.789 120.678 107.543 120.678 107.098C120.678 106.892 120.569 106.7 120.569 106.501C120.569 106.477 120.569 106.46 120.591 106.46C120.693 106.46 120.875 106.725 120.927 106.806C121.103 107.111 121.184 107.518 121.184 107.881C121.184 108.99 120.29 109.558 120.29 109.798C120.29 109.832 120.378 110.063 120.657 109.864C121.558 109.348 122.267 108.234 122.267 106.79C122.267 105.64 122.003 104.815 121.294 103.963C121.176 103.822 120.797 103.384 120.612 103.384C120.363 103.384 120.83 104.021 120.83 104.452C120.833 104.508 120.825 104.565 120.808 104.617C120.79 104.67 120.763 104.718 120.727 104.757C120.692 104.797 120.65 104.828 120.603 104.848C120.556 104.868 120.506 104.876 120.457 104.873C120.105 104.873 120.017 104.004 119.975 103.733C119.799 102.576 119.586 101.741 118.566 101.197C118.251 101.026 117.459 100.792 117.459 101.122C117.459 101.204 117.541 101.261 117.599 101.296C117.878 101.487 118.194 102.029 118.194 102.604C118.194 104.182 116.443 105.623 116.443 107.266C116.438 108.645 117.296 109.751 118.424 110.217L118.426 110.222Z" fill="#FFC33E"/>
</g>
<g clip-path="url(#clip2_108_333)">
<path d="M69.6569 38.6846C77.3829 38.6846 83.6461 37.9342 83.6461 37.0086C83.6461 36.0829 77.3829 35.3325 69.6569 35.3325C61.9309 35.3325 55.6678 36.0829 55.6678 37.0086C55.6678 37.9342 61.9309 38.6846 69.6569 38.6846Z" fill="#F2F2F2"/>
<path d="M78.4462 31.0756C78.5959 31.1185 78.7563 31.1334 78.9146 31.1192C79.0729 31.1049 79.2248 31.0618 79.3584 30.9933C79.492 30.9249 79.6036 30.8329 79.6844 30.7246C79.7652 30.6163 79.813 30.4947 79.824 30.3694C79.8351 30.244 79.809 30.1184 79.748 30.0024C79.6869 29.8863 79.5925 29.783 79.4722 29.7007C79.3519 29.6183 79.209 29.5591 79.0547 29.5277C78.9004 29.4963 78.739 29.4936 78.5832 29.5198L78.6089 29.9373L78.3584 29.5795C78.1125 29.6706 77.9226 29.8349 77.8303 30.0364C77.7975 30.107 77.7776 30.1809 77.7711 30.2559C77.7553 30.4318 77.8127 30.607 77.9345 30.7549C78.0563 30.9028 78.2359 31.0154 78.4462 31.0756V31.0756Z" fill="#57B894"/>
<path d="M79.6858 35.9183C79.5974 35.5632 79.9806 35.2484 80.3591 35.0437C80.7376 34.8391 81.1799 34.6381 81.3091 34.2908C81.4947 33.7917 80.9418 33.3347 80.5115 32.9405C80.1922 32.648 79.918 32.3267 79.6947 31.9833C79.6052 31.8457 79.5229 31.7017 79.4993 31.5481C79.4654 31.3269 79.5555 31.1068 79.6463 30.8957C79.9488 30.1928 80.2722 29.4957 80.6166 28.8046" stroke="#3F3D56" stroke-miterlimit="10"/>
<path d="M78.4885 30.9681C78.6383 31.011 78.7986 31.0259 78.9569 31.0116C79.1152 30.9973 79.2672 30.9543 79.4007 30.8858C79.5343 30.8173 79.6459 30.7253 79.7267 30.617C79.8075 30.5088 79.8553 30.3872 79.8664 30.2618C79.8774 30.1365 79.8514 30.0109 79.7903 29.8948C79.7293 29.7788 79.6349 29.6755 79.5146 29.5931C79.3943 29.5107 79.2514 29.4515 79.0971 29.4201C78.9428 29.3887 78.7814 29.386 78.6256 29.4122L78.6513 29.8298L78.4008 29.4719C78.1549 29.563 77.9649 29.7274 77.8727 29.9289C77.8399 29.9994 77.82 30.0733 77.8135 30.1483C77.7977 30.3242 77.855 30.4994 77.9768 30.6474C78.0987 30.7953 78.2783 30.9079 78.4885 30.9681Z" stroke="#3F3D56" stroke-miterlimit="10"/>
<path d="M79.5601 28.6605C79.6189 28.5326 79.7175 28.4185 79.8469 28.3286C79.9763 28.2387 80.1323 28.1759 80.3006 28.1461L80.3853 28.543L80.5423 28.1261C80.7604 28.1286 80.9718 28.1858 81.146 28.2892C81.3202 28.3927 81.4481 28.5371 81.5115 28.7017C81.5748 28.8662 81.5701 29.0424 81.4982 29.2047C81.4263 29.367 81.2908 29.5071 81.1113 29.6048C80.9318 29.7024 80.7176 29.7526 80.4996 29.748C80.2816 29.7434 80.0711 29.6843 79.8985 29.5792C79.7258 29.4741 79.6 29.3285 79.5392 29.1633C79.4784 28.9982 79.4857 28.8221 79.5601 28.6605V28.6605Z" fill="#57B894"/>
<path d="M79.6166 28.517C79.6753 28.3892 79.774 28.275 79.9034 28.1851C80.0328 28.0952 80.1888 28.0325 80.357 28.0026L80.4418 28.3996L80.5988 27.9827C80.8168 27.9852 81.0282 28.0423 81.2024 28.1458C81.3766 28.2492 81.5046 28.3937 81.5679 28.5582C81.6312 28.7228 81.6266 28.8989 81.5546 29.0613C81.4827 29.2236 81.3472 29.3637 81.1677 29.4614C80.9882 29.559 80.774 29.6092 80.556 29.6046C80.338 29.6 80.1275 29.5408 79.9549 29.4358C79.7823 29.3307 79.6565 29.1851 79.5957 29.0199C79.5349 28.8548 79.5422 28.6787 79.6166 28.517H79.6166Z" stroke="#3F3D56" stroke-miterlimit="10"/>
<path d="M80.3309 32.9487C80.5684 33.0166 80.8293 33.0132 81.0638 32.9392C81.2983 32.8652 81.4901 32.7258 81.6027 32.5474C81.7152 32.3691 81.7406 32.1643 81.6739 31.9722C81.6073 31.7801 81.4533 31.614 81.2414 31.5056L81.1207 31.826L81.0351 31.4243C81.0343 31.424 81.0334 31.4238 81.0325 31.4235C80.9055 31.3871 80.7706 31.3708 80.6356 31.3756C80.5006 31.3803 80.3681 31.4059 80.2457 31.451C80.1232 31.4961 80.0132 31.5598 79.922 31.6385C79.8308 31.7171 79.7602 31.8091 79.7141 31.9093C79.668 32.0095 79.6474 32.1158 79.6534 32.2223C79.6595 32.3288 79.6921 32.4332 79.7494 32.5298C79.8067 32.6263 79.8875 32.713 79.9873 32.7848C80.0871 32.8567 80.2038 32.9124 80.3309 32.9487H80.3309Z" fill="#57B894"/>
<path d="M80.3798 32.8034C80.6173 32.8713 80.8782 32.868 81.1127 32.794C81.3473 32.72 81.5391 32.5805 81.6516 32.4022C81.7641 32.2239 81.7895 32.0191 81.7229 31.827C81.6562 31.6348 81.5023 31.4687 81.2903 31.3603L81.1697 31.6807L81.0841 31.2791C81.0832 31.2788 81.0824 31.2785 81.0815 31.2783C80.9544 31.2419 80.8196 31.2256 80.6845 31.2303C80.5495 31.235 80.417 31.2606 80.2945 31.3057C80.1721 31.3508 80.0621 31.4145 79.9709 31.4932C79.8797 31.5718 79.809 31.6639 79.7629 31.764C79.7168 31.8642 79.6962 31.9706 79.7023 32.0771C79.7083 32.1835 79.7409 32.288 79.7982 32.3845C79.8555 32.4811 79.9364 32.5677 80.0362 32.6396C80.136 32.7115 80.2528 32.7672 80.3798 32.8034V32.8034Z" stroke="#3F3D56" stroke-miterlimit="10"/>
<path d="M79.2598 34.2959C79.3007 34.4791 79.4201 34.6456 79.5982 34.7676C79.7763 34.8896 80.0022 34.9596 80.2379 34.9659C80.4737 34.9721 80.705 34.9143 80.8931 34.802C81.0812 34.6897 81.2146 34.5299 81.271 34.3493C81.3274 34.1686 81.3033 33.9782 81.2027 33.81C81.1022 33.6417 80.9313 33.5058 80.7188 33.4251C80.5063 33.3443 80.265 33.3237 80.0355 33.3666C79.8059 33.4095 79.6021 33.5133 79.4581 33.6606L79.9164 34.2046L79.2901 33.9159C79.2416 34.0388 79.2312 34.1691 79.2598 34.2959Z" fill="#57B894"/>
<path d="M79.3022 34.1883C79.3431 34.3715 79.4626 34.5381 79.6406 34.6601C79.8187 34.7821 80.0446 34.8521 80.2804 34.8583C80.5161 34.8646 80.7474 34.8067 80.9355 34.6945C81.1236 34.5822 81.2571 34.4223 81.3134 34.2417C81.3698 34.0611 81.3457 33.8707 81.2451 33.7024C81.1446 33.5341 80.9737 33.3982 80.7612 33.3175C80.5487 33.2368 80.3074 33.2161 80.0779 33.259C79.8483 33.3019 79.6445 33.4057 79.5005 33.5531L79.9589 34.0971L79.3326 33.8083C79.284 33.9313 79.2736 34.0616 79.3022 34.1883Z" stroke="#3F3D56" stroke-miterlimit="10"/>
<path d="M76.4279 13.0337C76.4666 12.4506 76.7876 11.9013 77.3248 11.4993C77.862 11.0973 78.5744 10.8732 79.315 10.8732C79.4028 10.8732 79.4896 10.8768 79.5755 10.8828C79.9132 10.4247 80.3975 10.0444 80.9799 9.78003C81.5623 9.51563 82.2225 9.37635 82.8946 9.3761C83.5666 9.37585 84.227 9.51464 84.8097 9.7786C85.3925 10.0426 85.8772 10.4225 86.2155 10.8804C86.2879 10.8761 86.3608 10.8732 86.4347 10.8732C87.1753 10.8732 87.8876 11.0973 88.4248 11.4993C88.962 11.9013 89.2831 12.4506 89.3218 13.0337" fill="#F2F2F2"/>
<path d="M77.03 12.8583C77.0687 12.2751 77.3898 11.7259 77.927 11.3239C78.4642 10.9219 79.1765 10.6978 79.9171 10.6978C80.005 10.6978 80.0918 10.7014 80.1776 10.7074C80.5154 10.2493 80.9996 9.86901 81.5821 9.60461C82.1645 9.34021 82.8247 9.20093 83.4967 9.20068C84.1688 9.20043 84.8292 9.33922 85.4119 9.60319C85.9946 9.86715 86.4794 10.2471 86.8176 10.705C86.8901 10.7007 86.963 10.6978 87.0369 10.6978C87.7775 10.6978 88.4898 10.9219 89.027 11.3239C89.5642 11.7259 89.8852 12.2751 89.924 12.8583" stroke="#3F3D56" stroke-miterlimit="10"/>
<path d="M55.4194 23.8696C55.4581 23.2864 55.7791 22.7371 56.3163 22.3351C56.8535 21.9331 57.5659 21.709 58.3065 21.709C58.3943 21.709 58.4811 21.7126 58.567 21.7187C58.9047 21.2605 59.389 20.8802 59.9714 20.6158C60.5538 20.3514 61.214 20.2122 61.8861 20.2119C62.5581 20.2117 63.2185 20.3505 63.8012 20.6144C64.384 20.8784 64.8687 21.2583 65.207 21.7162C65.2794 21.7119 65.3524 21.709 65.4262 21.709C66.1668 21.709 66.8792 21.9331 67.4163 22.3351C67.9535 22.7371 68.2746 23.2864 68.3133 23.8696" fill="#F2F2F2"/>
<path d="M56.0215 23.6943C56.0603 23.1111 56.3813 22.5618 56.9185 22.1598C57.4557 21.7578 58.168 21.5337 58.9087 21.5337C58.9965 21.5337 59.0833 21.5373 59.1692 21.5434C59.5069 21.0852 59.9911 20.705 60.5736 20.4406C61.156 20.1762 61.8162 20.0369 62.4883 20.0366C63.1603 20.0364 63.8207 20.1752 64.4034 20.4391C64.9862 20.7031 65.4709 21.083 65.8092 21.5409C65.8816 21.5366 65.9545 21.5337 66.0284 21.5337C66.769 21.5337 67.4813 21.7578 68.0185 22.1598C68.5557 22.5618 68.8768 23.1111 68.9155 23.6943" stroke="#3F3D56" stroke-miterlimit="10"/>
<path d="M49.2899 12.449C49.3286 11.8658 49.6496 11.3166 50.1868 10.9146C50.724 10.5126 51.4364 10.2885 52.177 10.2885C52.2648 10.2885 52.3516 10.2921 52.4375 10.2981C52.7752 9.83998 53.2595 9.45971 53.8419 9.19531C54.4243 8.93091 55.0845 8.79163 55.7566 8.79138C56.4286 8.79113 57.089 8.92992 57.6717 9.19388C58.2545 9.45785 58.7392 9.83775 59.0775 10.2957C59.1499 10.2914 59.2228 10.2885 59.2967 10.2885C60.0373 10.2885 60.7496 10.5126 61.2868 10.9146C61.824 11.3166 62.1451 11.8658 62.1838 12.449" fill="#F2F2F2"/>
<path d="M49.892 12.2737C49.9307 11.6905 50.2518 11.1413 50.789 10.7393C51.3261 10.3373 52.0385 10.1132 52.7791 10.1132C52.867 10.1132 52.9537 10.1168 53.0396 10.1228C53.3773 9.66468 53.8616 9.28442 54.444 9.02002C55.0264 8.75562 55.6867 8.61634 56.3587 8.61609C57.0308 8.61584 57.6911 8.75463 58.2739 9.01859C58.8566 9.28256 59.3413 9.66246 59.6796 10.1204C59.7521 10.1161 59.825 10.1132 59.8988 10.1132C60.6394 10.1132 61.3518 10.3373 61.889 10.7393C62.4262 11.1413 62.7472 11.6905 62.7859 12.2737" stroke="#3F3D56" stroke-miterlimit="10"/>
<path d="M62.0084 17.0732C62.0084 17.0732 67.2046 19.1078 68.1364 18.8252C69.0681 18.5426 69.3906 16.0277 69.3906 16.0277L65.5562 15.4625L62.0084 17.0732Z" fill="#FFC33E"/>
<path opacity="0.1" d="M62.0084 17.0732C62.0084 17.0732 67.2046 19.1078 68.1364 18.8252C69.0681 18.5426 69.3906 16.0277 69.3906 16.0277L65.5562 15.4625L62.0084 17.0732Z" fill="black"/>
<path d="M72.7771 14.0355H69.3727V16.3809H72.7771V14.0355Z" fill="#FF6584"/>
<path opacity="0.1" d="M72.7771 14.0355H69.3727V16.3809H72.7771V14.0355Z" fill="black"/>
<path d="M66.2729 24.0247C66.2729 24.0247 66.1295 26.4831 67.0971 26.4266C68.0647 26.3701 67.0971 24.1094 67.0971 24.1094L66.2729 24.0247Z" fill="#FBBEBE"/>
<path d="M70.2507 14.3888C70.2507 14.3888 70.4657 15.4626 70.0715 15.6039C69.6773 15.7452 69.4265 15.8582 69.4265 15.8582L70.3224 16.3386L71.9708 16.4234L72.4009 16.169L72.7951 15.8865C72.7951 15.8865 72.15 15.7734 72.15 15.5191C72.15 15.2648 72.1142 14.5018 72.1142 14.5018L70.2507 14.3888Z" fill="#FBBEBE"/>
<path opacity="0.1" d="M70.2507 14.3888C70.2507 14.3888 70.4657 15.4626 70.0715 15.6039C69.6773 15.7452 69.4265 15.8582 69.4265 15.8582L70.3224 16.3386L71.9708 16.4234L72.4009 16.169L72.7951 15.8865C72.7951 15.8865 72.15 15.7734 72.15 15.5191C72.15 15.2648 72.1142 14.5018 72.1142 14.5018L70.2507 14.3888Z" fill="black"/>
<path d="M67.993 24.4485C67.993 24.4485 66.9538 27.0765 66.9538 28.998C66.9538 28.998 65.2336 32.0498 65.3053 33.5475L64.8752 35.6103L65.4845 35.7798L65.9503 35.469C65.9503 35.469 66.0937 34.367 66.5596 33.8301C67.0254 33.2932 68.1005 30.75 68.1005 30.75C68.1005 30.75 70.9674 26.0027 70.8599 25.3245C70.7524 24.6463 67.993 24.4485 67.993 24.4485Z" fill="#FBBEBE"/>
<path d="M74.336 23.8551C74.336 23.8551 75.0169 24.1094 74.0493 28.6307C74.0493 28.6307 74.5869 31.626 74.121 33.2649L74.0493 34.9039H73.2967L73.1534 34.7343C73.1534 34.7343 73.1176 33.2649 72.8667 32.8693C72.6159 32.4737 72.4008 30.1848 72.4008 30.1848C72.4008 30.1848 71.2541 25.5223 71.5049 25.1267C71.7558 24.7311 74.336 23.8551 74.336 23.8551Z" fill="#FBBEBE"/>
<path d="M64.7678 35.1299C64.7678 35.1299 65.0186 35.582 65.4845 35.469C65.9504 35.3559 66.0579 35.3559 66.0579 35.3559C66.0579 35.3559 65.7353 36.6558 65.8429 37.2775C65.9504 37.8991 65.7712 38.2947 65.0545 38.2947C64.3377 38.2947 64.2302 37.6166 64.2302 37.6166L64.5527 36.0059L64.7678 35.1299Z" fill="#2F2E41"/>
<path d="M73.0101 34.4235C73.0101 34.4235 73.2609 34.8191 73.6551 34.7343C74.0493 34.6495 74.1927 34.5082 74.1927 34.5082C74.1927 34.5082 74.1568 35.3842 74.3002 35.7798C74.4435 36.1754 74.7661 37.3058 74.0135 37.3623C73.8068 37.3821 73.5975 37.3488 73.4168 37.2673C73.236 37.1859 73.0934 37.0606 73.0101 36.9101V34.4235L73.0101 34.4235Z" fill="#2F2E41"/>
<path d="M71.2183 15.1234C72.0891 15.1234 72.7951 14.5667 72.7951 13.8801C72.7951 13.1934 72.0891 12.6367 71.2183 12.6367C70.3474 12.6367 69.6415 13.1934 69.6415 13.8801C69.6415 14.5667 70.3474 15.1234 71.2183 15.1234Z" fill="#FBBEBE"/>
<path d="M74.121 16.1125C74.121 16.1125 72.872 15.7258 72.4214 15.7779C72.2272 15.908 72.0009 16.0049 71.7568 16.0625C71.5127 16.1201 71.2561 16.1371 71.0032 16.1125C70.1432 16.0277 69.8068 15.7023 69.8068 15.7023C69.8068 15.7023 67.4913 16.1125 67.6346 16.2821C67.778 16.4516 68.423 19.2209 68.423 19.2209C68.423 19.2209 68.8531 21.6228 68.3514 22.4422C67.8496 23.2617 67.5988 24.6181 67.8138 24.7311C68.0288 24.8441 70.4299 25.3528 70.7165 25.4941C71.0032 25.6354 71.1107 25.155 71.2899 25.2398C71.4691 25.3245 71.8633 25.4658 72.1142 25.3528C72.365 25.2398 74.8019 24.2225 74.7302 24.0247C74.6585 23.8269 73.7268 21.425 73.4043 20.9446C73.0817 20.4642 73.3326 19.4469 73.5118 19.2491C73.691 19.0513 74.0493 18.8252 74.121 18.2601C74.1927 17.6949 74.121 16.1125 74.121 16.1125Z" fill="#2F2E41"/>
<path d="M67.7137 16.1947C67.7137 16.1947 67.4197 16.3668 67.3121 16.7342C67.2046 17.1015 67.0613 20.0403 67.0613 20.0403C67.0613 20.0403 65.7353 24.0812 66.022 24.1659C66.3087 24.2507 67.133 24.4203 67.2405 24.3355C67.348 24.2507 68.5664 20.8315 68.4589 20.4642C68.3514 20.0968 68.6022 19.023 68.6022 19.023L67.7137 16.1947Z" fill="#2F2E41"/>
<path d="M74.336 21.4532C74.336 21.4532 72.4008 20.6903 72.1858 21.1989C71.9708 21.7075 74.2285 22.2444 74.2285 22.2444C74.2285 22.2444 75.0169 22.0184 75.0169 21.8771C75.0169 21.7358 74.336 21.4532 74.336 21.4532Z" fill="#FBBEBE"/>
<path d="M73.7268 16.2255L74.121 16.1124C74.121 16.1124 74.336 15.9994 74.5869 16.4233C74.8377 16.8471 77.5613 19.3338 77.0596 20.125C76.5579 20.9162 74.9094 22.5269 74.8377 22.4139C74.766 22.3009 73.9418 21.4531 74.0851 21.3684C74.2285 21.2836 75.877 20.125 75.6619 19.9555C75.4469 19.7859 74.551 18.3448 74.0493 18.2883C73.5476 18.2318 73.7268 16.2255 73.7268 16.2255Z" fill="#2F2E41"/>
<path d="M69.4802 13.8377C69.4802 13.8377 64.0156 12.1051 59.2852 10.4379C59.2852 10.4379 56.8125 9.95753 55.5224 10.8618C55.5224 10.8618 56.5975 10.7487 56.5975 11.2291C56.5975 11.2291 57.5292 12.1899 54.6265 12.3594C52.6049 12.4775 51.8001 13.4316 51.4977 14C51.2616 14.4563 50.8466 14.841 50.3134 15.098C49.6147 15.4273 48.6021 15.6696 47.4234 15.2417C47.4234 15.2417 47.4904 15.323 47.6175 15.4583C49.8933 17.8817 58.368 19.9907 61.3606 18.1134C63.2101 16.9532 66.1421 15.4869 68.2439 16.2255C71.5408 17.384 72.15 16.8754 72.15 16.8754L72.2934 16.5646C72.2934 16.5646 69.1039 15.8864 69.0323 15.0104C68.9606 14.1344 69.4802 13.8377 69.4802 13.8377Z" fill="#FFC33E"/>
<path d="M72.6697 14.0637C72.6697 14.0637 73.4401 14.3039 73.5835 15.0951C73.5835 15.0951 74.4077 16.3667 73.476 16.6776C72.5442 16.9884 72.3651 16.9036 72.3651 16.9036V16.7623C72.3651 16.7623 73.3685 16.282 73.1534 15.9146C72.9384 15.5473 72.6697 14.0637 72.6697 14.0637Z" fill="#FFC33E"/>
<path d="M71.2899 17.6667C71.2899 17.6667 71.5408 17.158 71.4691 17.158C71.3974 17.158 71.7607 16.8452 71.9016 16.9592C72.0425 17.0732 72.2933 17.4123 72.0066 17.4971C71.72 17.5819 71.2899 17.6667 71.2899 17.6667Z" fill="#FFC33E"/>
<path d="M73.0561 17.3647C73.0561 17.3647 72.401 17.1886 72.404 17.245C72.4071 17.3015 71.9953 17.0286 72.1338 16.9127C72.2724 16.7969 72.6914 16.5849 72.811 16.8072C72.9305 17.0295 73.0561 17.3647 73.0561 17.3647Z" fill="#FFC33E"/>
<path d="M72.0067 16.5929C72.0067 16.5929 72.3339 16.448 72.5286 16.6759C72.7234 16.9037 72.2934 17.2993 72.0067 17.2993C71.72 17.2993 71.72 16.8189 71.72 16.8189L72.0067 16.5929Z" fill="#FFC33E"/>
<path opacity="0.1" d="M72.0067 16.5929C72.0067 16.5929 72.3339 16.448 72.5286 16.6759C72.7234 16.9037 72.2934 17.2993 72.0067 17.2993C71.72 17.2993 71.72 16.8189 71.72 16.8189L72.0067 16.5929Z" fill="black"/>
<path d="M69.8512 11.8511C69.6622 11.9739 69.483 12.1115 69.3655 12.2809C69.3039 12.376 69.2524 12.4748 69.2115 12.5766C69.0666 12.9054 68.7064 13.2385 68.8589 13.5652C68.9024 13.6585 68.9702 13.7568 68.9312 13.8512C68.8966 13.9351 68.7897 13.9841 68.7123 14.0479C68.5464 14.1847 68.5185 14.3901 68.5083 14.5793C68.4898 14.9258 68.7314 15.3341 69.0233 15.5934C69.0867 15.6422 69.1454 15.6946 69.199 15.7503C69.2351 15.7946 69.2587 15.8446 69.2682 15.8968C69.2777 15.9489 69.2729 16.0021 69.254 16.0527L69.6793 15.9827C69.6947 16.1065 69.6995 16.231 69.6937 16.3553C69.7945 16.364 69.8961 16.3451 69.9813 16.3017C70.0665 16.2583 70.1301 16.193 70.1614 16.1169C70.1855 16.2056 70.2248 16.2912 70.2783 16.3715C70.403 16.2484 70.4987 16.1087 70.5607 15.959C70.6421 15.7672 70.6596 15.5621 70.6114 15.3635C70.5664 15.2184 70.5051 15.0767 70.4283 14.9402C70.2781 14.6407 70.1553 14.3332 70.0328 14.026C69.9691 13.8665 69.9047 13.7017 69.924 13.5352L70.0751 13.5222C70.0768 13.4564 70.0929 13.3913 70.1228 13.3299C70.2114 13.3447 70.2966 13.37 70.3755 13.4049L70.5497 13.0563C70.6647 13.1504 70.8297 13.1929 70.9877 13.2321L71.5882 13.3812L71.5918 13.2875C71.8453 13.4645 72.134 13.6073 72.4464 13.7102C72.4288 13.6934 72.4159 13.6738 72.4086 13.6528C72.4013 13.6318 72.3998 13.6097 72.4042 13.5882C72.5522 13.7973 72.493 14.0577 72.4017 14.286C72.3103 14.5143 72.1892 14.7468 72.2259 14.9844C72.2534 15.1622 72.3689 15.3321 72.3475 15.5104C72.337 15.5982 72.2934 15.6817 72.2799 15.7692C72.2476 15.978 72.3868 16.1768 72.5211 16.3584L72.7824 16.0755C72.878 15.972 72.9766 15.8661 73.112 15.7954C73.251 15.7227 73.4232 15.6901 73.5443 15.5997C73.7605 15.4384 73.7331 15.1635 73.6628 14.9355C73.6254 14.8142 73.5802 14.6913 73.5939 14.5669C73.6172 14.3562 73.8029 14.1819 73.9075 13.9871C73.982 13.8451 74.0144 13.6915 74.002 13.5381C73.9896 13.3847 73.9328 13.2356 73.836 13.1022C73.7062 12.9266 73.5101 12.7853 73.3878 12.6064C73.2661 12.4284 73.2196 12.2166 73.0528 12.063C72.9714 11.9931 72.8766 11.9335 72.772 11.8866C72.2979 11.662 71.7654 11.525 71.2146 11.4859C70.6922 11.4428 70.2515 11.5909 69.8512 11.8511Z" fill="#FF6584"/>
</g>
</g>
<defs>
<clipPath id="clip0_108_333">
<rect width="234" height="226" fill="white"/>
</clipPath>
<clipPath id="clip1_108_333">
<rect width="63.4538" height="42.3043" fill="white" transform="translate(61.2274 79.1792)"/>
</clipPath>
<clipPath id="clip2_108_333">
<rect width="42.5252" height="30.0881" fill="white" transform="translate(47.4234 8.59656)"/>
</clipPath>
</defs>
</svg>
