<svg width="317" height="215" viewBox="0 0 317 215" fill="none" xmlns="http://www.w3.org/2000/svg">
<path d="M46.7932 35.749C46.3202 35.0497 42.7841 28.1159 41.733 25.4938C41.6249 26.0617 41.5567 26.6368 41.5289 27.2149L41.5184 27.4303L41.3118 27.458C41.0011 27.499 33.6622 28.4213 29.8429 23.9376C27.5801 21.2817 27.0669 17.2981 28.3156 12.0949C28.0885 12.0488 27.8709 11.962 27.6725 11.8385C27.3423 11.6018 27.0658 11.2934 26.8625 10.9348C26.6592 10.5762 26.5339 10.1759 26.4954 9.76202L26.2839 9.82072C19.4892 6.39759 25.343 -3.61622 31.5493 1.36245C32.0937 1.23651 32.6611 1.27028 33.188 1.45994C33.6961 1.67396 34.1389 2.02634 34.4692 2.47971C34.7996 2.93308 35.0054 3.47055 35.0647 4.03516C38.2713 2.28894 42.5153 2.5731 44.7102 3.88326C45.6292 4.43192 46.157 5.1229 46.2506 5.89373C48.8432 6.04361 51.6316 8.65816 51.6316 12.3625V12.6204H51.3824C50.3394 12.6434 49.3221 12.9597 48.4394 13.5353C47.5566 14.111 46.8418 14.9244 46.3713 15.8884C45.7338 17.0809 45.4182 18.4292 45.4579 19.7916C45.4975 21.154 45.8909 22.4801 46.5966 23.6308C47.3648 24.8512 47.8892 26.2184 48.1391 27.6519C48.389 29.0855 48.3593 30.5562 48.0517 31.9777L47.1154 36.2251L46.7932 35.749Z" fill="#2F2E41"/>
<path d="M16.6849 102.094C16.3107 101.74 16.016 101.306 15.8214 100.822C15.6268 100.338 15.5372 99.8151 15.5587 99.2911C15.5803 98.7671 15.7126 98.2544 15.9463 97.789C16.1799 97.3237 16.5093 96.9171 16.9112 96.5978L13.0314 84.4983L19.2113 86.2172L21.9482 97.4435C22.4215 98.1781 22.6182 99.0669 22.5008 99.9415C22.3835 100.816 21.9604 101.616 21.3116 102.189C20.6629 102.762 19.8335 103.069 18.9808 103.052C18.1281 103.034 17.3112 102.693 16.6849 102.094V102.094Z" fill="#A0616A"/>
<path d="M27.8853 36.3549C28.9107 36.9635 34.9776 35.4556 36.1624 35.8845C35.5084 40.0161 39.0607 38.4657 35.2031 43.8915C31.3455 49.3173 23.5759 65.5854 21.8108 71.6655C20.0458 77.7456 21.7928 86.3142 21.5284 89.1958C21.4007 90.8654 21.4087 92.5431 21.5523 94.2114C19.468 94.1841 17.4137 94.6319 15.2969 94.3459C13.0395 87.7327 11.5217 78.3195 10.4911 73.1171C9.46042 67.9148 9.42272 70.1148 9.89542 67.5135C10.3681 64.9122 10.4826 66.8025 9.98602 64.3139C9.48945 61.8253 11.4977 58.6985 13.3532 56.9156C14.1532 54.5333 15.1872 52.3119 15.9792 49.9545C21.7833 44.7124 22.165 41.6842 27.8853 36.3549Z" fill="#FFC33E"/>
<path d="M48.9538 79.6317L54.687 106.12L17.948 103.754L27.9385 77.7397L48.9538 79.6317Z" fill="#A0616A"/>
<path d="M42.8362 201.887L46.963 201.887L48.9263 185.407H42.8354L42.8362 201.887Z" fill="#A0616A"/>
<path d="M41.4385 199.779L47.9623 199.376V202.27L54.1647 206.705C54.4711 206.924 54.7018 207.239 54.8232 207.603C54.9446 207.967 54.9503 208.362 54.8395 208.73C54.7287 209.098 54.5072 209.42 54.2073 209.648C53.9075 209.877 53.5449 210 53.1726 210H45.4058L44.067 207.138L43.5443 210H40.6159L41.4385 199.779Z" fill="#2F2E41"/>
<path d="M3.83081 199.761L7.86419 200.667L13.1575 184.992L7.20502 183.656L3.83081 199.761Z" fill="#A0616A"/>
<path d="M2.8968 197.395L9.35486 198.433L8.7623 201.261L13.9155 206.956C14.1701 207.238 14.3311 207.596 14.3752 207.978C14.4192 208.361 14.3439 208.748 14.1603 209.084C13.9767 209.419 13.6943 209.685 13.3545 209.842C13.0146 210 12.6351 210.04 12.2713 209.959L4.68097 208.254L3.95882 205.163L2.86185 207.845L0 207.203L2.8968 197.395Z" fill="#2F2E41"/>
<path d="M55.625 128.271C52.7287 144.75 52.0046 151.866 52.0046 151.866C52.0046 151.866 54.1769 154.487 52.7287 155.987C51.2806 157.486 52.7287 160.48 52.7287 160.48L49.4724 196.811L46.8511 196.371L40.5367 195.32L38.2593 194.939L39.7074 160.857C39.7074 160.857 38.2593 157.859 38.9834 157.109C39.7075 156.359 38.2593 151.866 38.2593 151.866L36.4511 116.285L25.234 155.237C25.234 155.237 26.3221 156.736 25.234 157.859C24.1499 158.981 21.9817 164.601 21.9817 164.601L15.3113 188.766L14.7449 190.818L11.2661 190.144L7.47991 189.407L6.78413 189.273L5.54632 189.03L4.74945 188.875L4.4784 188.824L3.16779 188.569L3.56423 186.747L3.77051 185.788L9.41348 159.84L9.54293 159.241L9.68047 158.608C9.68047 158.608 8.95639 156.736 10.0405 155.61C10.3576 155.266 10.5893 154.848 10.7154 154.391C10.8416 153.935 10.8585 153.453 10.7646 152.988C10.7291 152.949 10.6966 152.907 10.6675 152.862C10.5394 152.68 10.4511 152.472 10.4086 152.251C10.3115 151.782 10.3964 151.124 11.1286 150.366C11.3348 150.14 11.5079 149.883 11.6424 149.604C12.7426 147.447 13.2968 142.878 13.2968 142.878C13.2968 142.878 14.2758 106.69 17.4795 101.162C17.6494 100.873 21.0504 95.3254 21.2284 95.2124C24.8448 92.9676 53.0194 96.0681 53.0194 96.0681C53.0194 96.0681 54.7259 100.814 54.8028 101.309C55.2194 104.085 58.0804 114.291 55.625 128.271Z" fill="#2F2E41"/>
<path d="M47.0641 41.1033C47.0641 41.1033 47.6737 37.827 41.8156 31.762C38.7143 30.6917 33.3407 31.3155 31.4778 31.762C22.8629 43.5351 24.4054 41.4579 22.1629 48.0359C21.5814 49.7416 21.2907 51.3805 21.5491 52.7184C22.5829 58.0698 24.2612 85.5399 23.9166 86.967C23.572 88.394 21.1599 90.1778 23.572 90.1778C25.9842 90.1778 57.0911 89.6141 56.4019 88.5438C55.7127 87.4735 47.0641 41.1033 47.0641 41.1033Z" fill="#FFC33E"/>
<path d="M84.0081 84.6334C83.5357 84.8228 83.0289 84.9026 82.5235 84.8673C82.018 84.832 81.5262 84.6823 81.0827 84.4289C80.6392 84.1755 80.2547 83.8246 79.9563 83.4007C79.658 82.9768 79.4531 82.4904 79.356 81.9756L67.1643 80.1828L71.4034 75.22L82.3309 77.6834C83.1769 77.5718 84.0332 77.7854 84.7373 78.2837C85.4414 78.782 85.9445 79.5304 86.1512 80.3871C86.358 81.2438 86.254 82.1492 85.859 82.9318C85.464 83.7145 84.8054 84.3199 84.0081 84.6334L84.0081 84.6334Z" fill="#A0616A"/>
<path d="M32.4282 38.9944C33.4113 38.315 34.5278 37.9959 35.4265 37.0887C38.7081 39.5352 38.9496 35.5519 41.9236 41.5443C44.8976 47.5368 55.5054 61.9847 59.9773 66.3289C64.4491 70.6732 72.6372 72.8703 75.0115 74.3989C76.3984 75.2609 77.8529 76.0008 79.3595 76.6108C78.4076 78.5306 77.8799 80.6342 76.6897 82.469C69.9652 81.6159 61.1487 78.8301 56.1907 77.4683C51.2327 76.1065 53.1185 77.1213 51.0794 75.5245C49.0403 73.9277 50.7261 74.6636 48.3528 74.0154C45.9794 73.3672 44.1699 70.113 43.4546 67.599C41.7507 65.7963 40.2902 63.8485 38.6042 62.0643C36.6562 54.3493 34.4891 46.6705 32.4282 38.9944Z" fill="#FFC33E"/>
<path d="M40.1265 27.1959C45.6373 27.1959 50.1047 22.5707 50.1047 16.8653C50.1047 11.1598 45.6373 6.53467 40.1265 6.53467C34.6156 6.53467 30.1482 11.1598 30.1482 16.8653C30.1482 22.5707 34.6156 27.1959 40.1265 27.1959Z" fill="#A0616A"/>
<path d="M192.809 91.7612H160.203V92.1488L192.809 92.1488V91.7612Z" fill="#3F3D56"/>
<path d="M201.119 116.89L153.687 116.89C153.411 116.89 153.139 116.848 152.877 116.766L152.849 116.754C137.996 109.392 125.262 105.373 113.919 104.469L113.876 104.461C112.754 104.107 112 103.08 112 101.906L112 38.6816C112 37.8183 112.401 37.0305 113.099 36.5203C113.797 36.0101 114.671 35.867 115.496 36.1271L152.994 47.9576C153.218 48.0284 153.451 48.0643 153.687 48.0643L201.119 48.0643C202.6 48.0643 203.805 49.2662 203.805 50.7436V114.211C203.805 115.688 202.6 116.89 201.119 116.89V116.89ZM153.008 116.401C153.228 116.468 153.456 116.503 153.687 116.503L201.119 116.503C202.386 116.503 203.417 115.475 203.417 114.211L203.417 50.7436C203.417 49.4799 202.386 48.4518 201.119 48.4518L153.687 48.4518C153.412 48.4518 153.139 48.4099 152.877 48.3271L115.379 36.4967C114.673 36.2737 113.926 36.3966 113.328 36.8329C112.731 37.2694 112.389 37.9432 112.389 38.6816V101.906C112.389 102.903 113.024 103.776 113.973 104.085C125.357 104.996 138.126 109.025 153.008 116.401L153.008 116.401Z" fill="#3F3D56"/>
<path d="M154.953 114.019C167.886 109.454 182.314 109.978 197.642 113.564C199.566 114.014 201.411 112.569 201.411 110.598V52.8284C201.411 51.4256 200.452 50.199 199.086 49.8658C182.916 45.9218 167.813 45.1962 154.503 49.8827C153.528 50.2261 152.446 50.04 151.623 49.4153C140.408 40.8993 128.929 36.6295 117.108 37.8973C115.561 38.0631 114.395 39.3777 114.395 40.9292V99.3284C114.395 100.892 115.581 102.2 117.14 102.361C129.864 103.681 141.556 107.682 152.429 113.808C153.199 114.242 154.12 114.314 154.953 114.019V114.019Z" fill="#F2F2F2"/>
<path d="M154.538 110.78C153.657 110.78 152.79 110.538 152.025 110.065C142.893 104.408 132.944 101.103 122.455 100.242C119.996 100.041 118.069 97.9483 118.069 95.4791V45.5966C118.069 43.0363 120.06 40.9385 122.601 40.8207C130.238 40.4655 139.511 43.8626 151.782 51.5079C152.82 52.1544 154.082 52.3464 155.245 52.0353C166.907 48.9128 179.549 48.8216 193.893 51.7564C196.12 52.2121 197.736 54.1836 197.736 56.4444V105.134C197.736 106.604 197.074 107.968 195.918 108.878C194.755 109.795 193.257 110.124 191.81 109.78C178.241 106.559 166.589 106.792 156.188 110.493C155.648 110.685 155.09 110.78 154.538 110.78ZM123.691 41.1833C123.33 41.1833 122.973 41.1914 122.619 41.2079C120.286 41.316 118.458 43.2437 118.458 45.5966V95.4791C118.458 97.7481 120.227 99.6708 122.487 99.856C133.038 100.722 143.045 104.046 152.23 109.736C153.373 110.444 154.768 110.586 156.057 110.128L156.123 110.31L156.057 110.128C166.531 106.401 178.255 106.164 191.9 109.403C193.231 109.719 194.608 109.417 195.678 108.574C196.739 107.738 197.348 106.484 197.348 105.134V56.4444C197.348 54.3668 195.862 52.5549 193.815 52.1361C179.531 49.2134 166.948 49.3029 155.346 52.4096C154.079 52.7485 152.705 52.5399 151.576 51.8366C139.947 44.5914 131.042 41.1833 123.691 41.1833Z" fill="white"/>
<path d="M153.656 52.3247L153.267 52.3282L153.808 110.691L154.196 110.687L153.656 52.3247Z" fill="white"/>
<path d="M121.857 48.4732L121.735 48.8411L148.94 57.8199L149.062 57.452L121.857 48.4732Z" fill="#3F3D56"/>
<path d="M121.857 55.6563L121.735 56.0242L148.94 65.003L149.062 64.6351L121.857 55.6563Z" fill="#3F3D56"/>
<path d="M121.857 62.8393L121.735 63.2072L148.94 72.186L149.062 71.8181L121.857 62.8393Z" fill="#3F3D56"/>
<path d="M121.857 70.0223L121.735 70.3901L148.94 79.3689L149.062 79.0011L121.857 70.0223Z" fill="#3F3D56"/>
<path d="M192.809 57.8413L160.203 57.8413V58.2289L192.809 58.2289V57.8413Z" fill="#3F3D56"/>
<path d="M192.809 64.6252H160.203V65.0128L192.809 65.0128V64.6252Z" fill="#3F3D56"/>
<path d="M192.809 71.4091H160.203V71.7966L192.809 71.7966V71.4091Z" fill="#3F3D56"/>
<path d="M192.809 78.1934H160.203V78.5809L192.809 78.5809V78.1934Z" fill="#3F3D56"/>
<path d="M192.809 84.9772H160.203V85.3647L192.809 85.3647V84.9772Z" fill="#3F3D56"/>
<path d="M314.601 38.4804C319.442 42.3636 313.229 64.0848 313.229 64.0848C312.267 63.0121 311.149 78.8664 309.973 78.3266C306.631 76.7923 300.505 71.5016 298.144 71.9328C296.793 72.1794 298.208 61.446 298.208 61.446C298.208 61.446 298.468 55.2916 298.958 47.38C299.055 45.1406 299.708 42.9627 300.857 41.049C302.006 39.1353 303.612 37.548 305.527 36.4349C305.527 36.4349 309.76 34.5971 314.601 38.4804Z" fill="#3F3D56"/>
<path d="M298.411 209.58H293.163L290.667 189.012H298.413L298.411 209.58Z" fill="#FFB6B6"/>
<path d="M299.75 214.749L282.828 214.748V214.531C282.828 212.756 283.522 211.054 284.757 209.799C285.992 208.544 287.668 207.839 289.414 207.838H289.415L292.506 205.456L298.273 207.839L299.75 207.839L299.75 214.749Z" fill="#2F2E41"/>
<path d="M274.03 209.58H268.782L266.285 189.012H274.031L274.03 209.58Z" fill="#FFB6B6"/>
<path d="M275.368 214.749L258.446 214.748V214.531C258.446 212.756 259.14 211.054 260.375 209.799C261.611 208.544 263.286 207.839 265.033 207.838H265.033L268.124 205.456L273.891 207.839L275.369 207.839L275.368 214.749Z" fill="#2F2E41"/>
<path d="M271.758 97.1343L305.894 98.0014C312.377 101.579 312.476 109.323 310.351 118.517C310.351 118.517 311.068 123.982 309.634 125.439C308.2 126.896 307.483 126.896 308.2 129.447C308.917 131.997 305.128 136.162 305.589 136.63C306.049 137.097 307.124 139.647 307.124 139.647L303.539 160.413C303.539 160.413 301.029 196.48 300.312 197.209C299.595 197.937 298.878 197.209 299.595 199.03C300.312 200.852 301.029 200.123 300.312 200.852C299.677 201.548 299.078 202.278 298.519 203.038H289.85C289.85 203.038 289.197 199.395 289.197 199.03C289.197 198.666 288.48 196.48 288.48 196.116C288.48 195.752 289.113 195.108 289.113 195.108C289.332 194.367 289.48 193.607 289.555 192.837C289.555 192.108 291.707 164.056 291.707 164.056L287.404 127.625L277.006 163.328C277.006 163.328 277.006 194.659 276.289 195.387C275.572 196.116 275.572 195.752 275.93 197.209C276.289 198.666 277.723 198.302 276.647 199.395C275.572 200.488 275.213 198.666 275.572 200.488L275.93 202.309L265.174 202.466C265.174 202.466 263.739 199.395 264.456 198.302C265.174 197.209 265.131 197.507 264.256 195.719C263.381 193.93 263.022 193.566 263.381 193.201C263.739 192.837 263.739 190.899 263.739 190.899L265.532 156.041C265.532 156.041 265.891 119.246 265.891 118.153C265.918 117.59 265.816 117.029 265.593 116.514V115.03L266.966 109.774L271.758 97.1343Z" fill="#2F2E41"/>
<path d="M292.264 25.0138C298.122 25.0138 302.87 20.189 302.87 14.2373C302.87 8.28553 298.122 3.46069 292.264 3.46069C286.406 3.46069 281.658 8.28553 281.658 14.2373C281.658 20.189 286.406 25.0138 292.264 25.0138Z" fill="#FFB6B6"/>
<path d="M286.961 32.1364C284.676 33.5167 283.309 36.0527 282.524 38.6333C281.072 43.411 280.197 48.3507 279.921 53.3433L279.092 68.2901L268.828 100.116C277.723 107.764 311.16 101.854 311.16 101.854C311.16 101.854 312.187 101.507 311.16 100.464C310.134 99.4209 309.135 100.345 310.161 99.302C311.187 98.259 310.48 99.4209 310.138 98.378C309.796 97.3351 310.138 98.0304 310.48 97.6827C310.822 97.3351 307.831 94.2064 307.831 94.2064L310.568 75.938L313.99 39.089C309.884 33.8746 301.627 30.8007 301.627 30.8007L299.494 26.8987L288.826 27.7658L286.961 32.1364Z" fill="#3F3D56"/>
<path d="M285.506 7.9128C285.917 7.91606 286.325 7.97051 286.722 8.07495C287.506 8.26628 288.301 8.40181 289.103 8.48057C291.558 8.71527 293.865 9.77923 295.656 11.5025C297.446 13.2258 298.617 15.5089 298.98 17.9874C299.597 17.4414 300.999 16.4371 302.148 17.3705C302.166 17.3853 302.176 17.3929 302.216 17.3735C302.98 17.0055 304.335 12.4765 304.376 8.48881C304.398 6.37229 304.07 3.66957 302.385 2.81369L302.296 2.7686L302.273 2.67058C302.16 2.19447 300.903 1.38178 298.717 0.749233C294.745 -0.400275 288.942 -0.566457 285.608 2.72901C285.355 3.83999 284.417 4.14441 283.588 4.41389C282.67 4.71218 281.877 4.96959 281.752 6.11401C281.648 7.74262 281.655 9.37665 281.775 11.0042C282.086 10.0083 282.697 9.1366 283.521 8.5119C284.107 8.11098 284.8 7.90192 285.506 7.9128V7.9128Z" fill="#2F2E41"/>
<path d="M265.765 67.4581L283.09 56.1843L274.364 44.3981L265.748 55.1675L238.9 56.8406C238.194 56.1313 237.3 55.6462 236.327 55.4443C235.354 55.2423 234.345 55.3324 233.422 55.7034C232.498 56.0744 231.701 56.7104 231.127 57.5338C230.554 58.3572 230.228 59.3324 230.19 60.3405C230.153 61.3486 230.404 62.3461 230.915 63.2114C231.426 64.0766 232.173 64.7722 233.066 65.2133C233.959 65.6544 234.959 65.822 235.944 65.6957C236.929 65.5693 237.857 65.1545 238.614 64.5017L265.765 67.4581Z" fill="#FFB6B6"/>
<path d="M299.171 40.4482C300.176 46.6314 281.187 58.4386 281.187 58.4386C281.187 56.9874 269.853 67.9436 269.342 66.74C267.888 63.3191 266.866 55.2167 264.834 53.9198C263.672 53.1781 271.831 46.2109 271.831 46.2109C271.831 46.2109 276.102 41.839 281.707 36.3246C283.263 34.7357 285.19 33.5727 287.307 32.9438C289.425 32.3149 291.665 32.2406 293.818 32.7277C293.818 32.7277 298.165 34.2651 299.171 40.4482Z" fill="#3F3D56"/>
<path d="M307.805 81.3046L313.142 61.116L298.879 58.3728L299.646 72.2301L280.907 91.8356C279.915 91.7944 278.932 92.0474 278.079 92.5637C277.226 93.08 276.539 93.8374 276.103 94.7434C275.666 95.6494 275.498 96.665 275.62 97.6663C275.741 98.6675 276.147 99.6113 276.787 100.382C277.427 101.153 278.274 101.719 279.225 102.009C280.176 102.299 281.19 102.302 282.142 102.017C283.095 101.733 283.945 101.172 284.59 100.405C285.234 99.6374 285.645 98.6961 285.772 97.6955L307.805 81.3046Z" fill="#FFB6B6"/>
</svg>
