<svg width="31" height="25" viewBox="0 0 31 25" fill="none" xmlns="http://www.w3.org/2000/svg">
<path d="M22.7529 22.495C22.9659 24.334 23.9528 25.1975 25.803 24.962L27.9673 24.7153C29.8176 24.4798 30.6138 23.4818 30.4119 21.6427L28.6065 5.30414C28.4046 3.46508 27.3954 2.5904 25.5563 2.8371L23.3921 3.0838C22.9099 3.13987 22.5062 3.25201 22.1698 3.42022V2.79225C22.1698 0.941962 21.2502 0 19.3999 0H16.3946C14.5331 0 13.6136 0.941962 13.6136 2.79225V7.18807C13.423 7.16564 13.2211 7.15443 12.9968 7.15443H7.81604C7.59177 7.15443 7.37871 7.16564 7.18807 7.18807V5.96576C7.18807 4.10426 6.26854 3.1623 4.41825 3.1623H2.78103C0.919535 3.1623 0 4.10426 0 5.96576V22.1361C0 23.9864 0.919535 24.9284 2.78103 24.9284H19.3999C21.2502 24.9284 22.1698 23.9864 22.1698 22.1361V17.2693L22.7529 22.495ZM16.7198 2.14184H19.0747C19.7139 2.14184 20.0279 2.47826 20.0279 3.0838V21.8333C20.0279 22.4501 19.7139 22.7865 19.0747 22.7865H15.7667V3.0838C15.7667 2.47826 16.0806 2.14184 16.7198 2.14184ZM24.8499 21.9679L23.1005 6.21247C23.0332 5.60692 23.3136 5.2705 23.9415 5.18079L25.4554 5.00137C26.0834 4.91166 26.4422 5.22565 26.5095 5.81998L28.2589 21.5754C28.3262 22.1922 28.0458 22.5286 27.4178 22.6183L25.8927 22.7977C25.2648 22.8874 24.9171 22.5847 24.8499 21.9679ZM3.09502 22.7865C2.46704 22.7865 2.14184 22.4501 2.14184 21.8333V6.24611C2.14184 5.64056 2.46704 5.31536 3.09502 5.31536H4.08184C4.73224 5.31536 5.03501 5.64056 5.03501 6.24611V22.7865H3.09502ZM8.14125 9.29627H12.6604C13.3108 9.29627 13.6136 9.62147 13.6136 10.227V22.7865H7.18807V10.227C7.18807 9.62147 7.50206 9.29627 8.14125 9.29627ZM8.8365 12.1222H12.01C12.4137 12.1222 12.7277 11.797 12.7277 11.3933C12.7277 10.9896 12.4137 10.6756 12.01 10.6756H8.8365C8.41038 10.6756 8.1076 10.9896 8.1076 11.3933C8.1076 11.797 8.42159 12.1222 8.8365 12.1222ZM8.8365 21.4184H12.01C12.4137 21.4184 12.7277 21.0932 12.7277 20.6783C12.7277 20.2858 12.4137 19.9606 12.01 19.9606H8.8365C8.42159 19.9606 8.1076 20.2858 8.1076 20.6783C8.1076 21.0932 8.41038 21.4184 8.8365 21.4184Z" fill="#1C1C1E"/>
</svg>
