<svg width="25" height="25" viewBox="0 0 25 25" fill="none" xmlns="http://www.w3.org/2000/svg">
<circle cx="12.5" cy="12.5" r="12.5" fill="url(#paint0_linear_215_1433)"/>
<path d="M6.99555 17H17.9984C19.3085 17 20 16.4206 20 15.3135V9.88153C20 8.77444 19.3085 8.19503 17.9984 8.19503H16.3425C15.8694 8.19503 15.7178 8.12778 15.4205 7.86394L14.9414 7.42421C14.626 7.13968 14.3045 7 13.6858 7H11.2778C10.6591 7 10.3437 7.13968 10.0222 7.42421L9.54307 7.86394C9.25192 8.12261 9.09422 8.19503 8.62111 8.19503H6.99555C5.6854 8.19503 5 8.77444 5 9.88153V15.3135C5 16.4206 5.6854 17 6.99555 17ZM7.0744 15.9705C6.52244 15.9705 6.20704 15.7222 6.20704 15.2204V9.97465C6.20704 9.47801 6.52244 9.22969 7.0744 9.22969H8.97291C9.5188 9.22969 9.79782 9.14692 10.1072 8.86239L10.5681 8.42783C10.9078 8.11226 11.0898 8.02949 11.6235 8.02949H13.3401C13.8738 8.02949 14.0558 8.11226 14.3894 8.42266L14.8565 8.86239C15.1658 9.14692 15.4448 9.22969 15.9907 9.22969H17.9195C18.4776 9.22969 18.7869 9.47801 18.7869 9.97465V15.2204C18.7869 15.7222 18.4776 15.9705 17.9195 15.9705H7.0744ZM12.497 15.2876C14.3166 15.2876 15.7723 14.046 15.7723 12.4889C15.7723 10.9317 14.3166 9.69012 12.497 9.69012C10.6834 9.69012 9.22766 10.9317 9.22766 12.4889C9.22766 14.046 10.6834 15.2876 12.497 15.2876ZM15.9786 10.6368C15.9786 11.0145 16.3364 11.3094 16.7732 11.3042C17.1977 11.3042 17.5556 11.0093 17.5556 10.6368C17.5556 10.2747 17.1917 9.9643 16.7732 9.9643C16.3364 9.9643 15.9786 10.2747 15.9786 10.6368ZM12.497 14.3461C11.3021 14.3461 10.3255 13.5184 10.3255 12.4889C10.3255 11.4542 11.296 10.6317 12.497 10.6317C13.704 10.6317 14.6745 11.4542 14.6745 12.4889C14.6745 13.5184 13.704 14.3461 12.497 14.3461Z" fill="white"/>
<defs>
<linearGradient id="paint0_linear_215_1433" x1="12.5" y1="0" x2="12.5" y2="25" gradientUnits="userSpaceOnUse">
<stop stop-color="#287DC0" stop-opacity="0.8"/>
<stop offset="1" stop-color="#13A484" stop-opacity="0.83"/>
</linearGradient>
</defs>
</svg>
