<svg width="30" height="25" viewBox="0 0 30 25" fill="none" xmlns="http://www.w3.org/2000/svg">
<path d="M26.25 25H3.75C2.75584 24.9983 1.80279 24.504 1.09981 23.6252C0.396836 22.7465 0.00132327 21.5552 3.70734e-07 20.3125V4.6875C-0.000218673 4.07185 0.0966284 3.46219 0.285006 2.89335C0.473384 2.32451 0.749598 1.80766 1.09786 1.37233C1.44612 0.936998 1.85961 0.591729 2.31468 0.356257C2.76975 0.120786 3.25748 -0.000273341 3.75 4.63418e-07H26.25C26.7425 -0.000273341 27.2303 0.120786 27.6853 0.356257C28.1404 0.591729 28.5539 0.936998 28.9021 1.37233C29.2504 1.80766 29.5266 2.32451 29.715 2.89335C29.9034 3.46219 30.0002 4.07185 30 4.6875V20.3125C29.9987 21.5552 29.6032 22.7465 28.9002 23.6252C28.1972 24.504 27.2442 24.9983 26.25 25ZM2.5 5.75833V20.3125C2.5 20.7271 2.63164 21.1247 2.86602 21.4181C3.10039 21.7114 3.41833 21.8765 3.75 21.8771H26.25C26.5817 21.8765 26.8996 21.7114 27.134 21.4181C27.3684 21.1247 27.5 20.7271 27.5 20.3125V5.75833L16.7967 13.05C16.2459 13.4262 15.6284 13.6233 15.0008 13.6233C14.3732 13.6233 13.7557 13.4262 13.205 13.05L2.5 5.75833ZM3.86 3.125L14.4017 10.3125C14.5851 10.438 14.7909 10.5037 15 10.5037C15.2091 10.5037 15.4149 10.438 15.5983 10.3125L26.14 3.125H3.86Z" fill="black"/>
</svg>
