<svg width="12" height="15" viewBox="0 0 12 15" fill="none" xmlns="http://www.w3.org/2000/svg">
<path d="M6 9.81868C7.77487 9.81868 9.01571 8.66954 9.01571 7.02402V2.79465C9.01571 1.14914 7.77487 0 6 0C4.23298 0 2.98429 1.14914 2.98429 2.79465V7.02402C2.98429 8.66954 4.23298 9.81868 6 9.81868ZM6 8.56074C5.08115 8.56074 4.5 7.94878 4.5 7.05122V2.76745C4.5 1.8699 5.08115 1.25793 6 1.25793C6.91885 1.25793 7.5 1.8699 7.5 2.76745V7.05122C7.5 7.94878 6.91885 8.56074 6 8.56074ZM2.38743 15H9.61257C10.0288 15 10.3743 14.7076 10.3743 14.354C10.3743 13.9937 10.0288 13.7081 9.61257 13.7081H6.73037V12.3277C9.83246 12.0694 12 10.1451 12 7.33001V5.99048C12 5.6301 11.6702 5.35131 11.2539 5.35131C10.8377 5.35131 10.4921 5.6301 10.4921 5.99048V7.28241C10.4921 9.60109 8.67801 11.1242 6 11.1242C3.32199 11.1242 1.50785 9.60109 1.50785 7.28241V5.99048C1.50785 5.6301 1.17016 5.35131 0.753927 5.35131C0.337696 5.35131 0 5.6301 0 5.99048V7.33001C0 10.1451 2.16754 12.0694 5.26963 12.3277V13.7081H2.38743C1.9712 13.7081 1.62565 13.9937 1.62565 14.354C1.62565 14.7076 1.9712 15 2.38743 15Z" fill="#1C1C1E"/>
</svg>
