<svg width="313" height="255" viewBox="0 0 313 255" fill="none" xmlns="http://www.w3.org/2000/svg">
<path d="M38.3574 218.037L37.4785 218.143C37.2559 218.143 37.0859 218.066 36.9688 217.914C36.8516 217.762 36.793 217.609 36.793 217.457C36.793 217.305 36.8164 217.17 36.8633 217.053C36.9219 216.924 37.0156 216.807 37.1445 216.701C37.4609 216.443 37.877 216.314 38.3926 216.314C38.9199 216.314 39.3477 216.326 39.6758 216.35C40.0039 216.373 40.3203 216.402 40.625 216.438C41.3398 216.52 42.0664 216.561 42.8047 216.561C43.5547 216.561 44.2227 216.531 44.8086 216.473C45.4062 216.414 45.9922 216.355 46.5664 216.297C48.1836 216.109 49.4375 216.016 50.3281 216.016C55.7539 216.016 59.8672 217.328 62.668 219.953C65.2812 222.402 66.5879 225.818 66.5879 230.201C66.5879 232.908 65.8672 235.363 64.4258 237.566C63.0547 239.676 61.1562 241.346 58.7305 242.576C56.293 243.807 53.5918 244.422 50.627 244.422C49.2324 244.422 48.0195 244.375 46.9883 244.281L44.6152 244.07C44.0645 244.023 43.5254 244 42.998 244C42.4707 244 42.043 244.012 41.7148 244.035C41.3984 244.07 41.0762 244.105 40.748 244.141C39.8691 244.234 39.1836 244.281 38.6914 244.281C38.2109 244.281 37.8652 244.24 37.6543 244.158C37.4434 244.088 37.2734 244 37.1445 243.895C36.9102 243.707 36.793 243.502 36.793 243.279C36.793 242.729 37.0215 242.453 37.4785 242.453L38.6211 242.559C39.418 242.559 39.9512 242.242 40.2207 241.609C40.4668 241.035 40.5898 239.992 40.5898 238.48V222.344C40.5898 220.809 40.4785 219.795 40.2559 219.303C40.0449 218.811 39.793 218.477 39.5 218.301C39.207 218.125 38.8262 218.037 38.3574 218.037ZM44.791 239.271C44.791 240.268 45.1719 240.941 45.9336 241.293C46.6953 241.633 48.0957 241.803 50.1348 241.803C52.1855 241.803 53.9258 241.621 55.3555 241.258C56.7852 240.895 57.998 240.279 58.9941 239.412C61.0332 237.643 62.0527 234.701 62.0527 230.588C62.0527 226.58 60.9688 223.551 58.8008 221.5C56.7383 219.555 53.7793 218.582 49.9238 218.582C48.1777 218.582 47 218.688 46.3906 218.898C45.7812 219.109 45.3594 219.35 45.125 219.619C44.9023 219.877 44.791 220.205 44.791 220.604V239.271ZM72.002 241.926C71.0879 241.105 70.3613 240.109 69.8223 238.938C69.2949 237.766 69.0312 236.5 69.0312 235.141C69.0312 233.781 69.2715 232.533 69.752 231.396C70.2324 230.26 70.9121 229.258 71.791 228.391C73.7363 226.457 76.1504 225.49 79.0332 225.49C80.9551 225.49 82.6367 225.988 84.0781 226.984C85.1211 227.699 85.9883 228.637 86.6797 229.797C87.1602 230.641 87.4004 231.18 87.4004 231.414C87.4004 231.637 87.3887 231.812 87.3652 231.941C87.3535 232.059 87.3184 232.176 87.2598 232.293C87.1309 232.574 86.8848 232.779 86.5215 232.908C83.5332 233.998 80.2109 234.977 76.5547 235.844L73.4785 236.582C73.877 238.293 74.7617 239.617 76.1328 240.555C77.3398 241.375 78.7637 241.785 80.4043 241.785C81.8223 241.785 83.123 241.328 84.3066 240.414C84.6816 240.133 84.9746 239.84 85.1855 239.535C85.5488 238.996 85.9355 238.727 86.3457 238.727C86.6035 238.727 86.8262 238.938 87.0137 239.359C87.0605 239.465 87.084 239.564 87.084 239.658C87.084 240.104 86.8555 240.625 86.3984 241.223C85.5898 242.289 84.5527 243.092 83.2871 243.631C82.0215 244.158 80.6621 244.422 79.209 244.422C77.7676 244.422 76.4316 244.211 75.2012 243.789C73.9824 243.355 72.916 242.734 72.002 241.926ZM73.2324 234.367L78.2422 233.066C81.2305 232.27 82.7891 231.766 82.918 231.555C82.9531 231.484 82.9707 231.35 82.9707 231.15C82.9707 230.939 82.8887 230.652 82.7246 230.289C82.5605 229.914 82.3086 229.568 81.9688 229.252C81.1836 228.525 80.1641 228.162 78.9102 228.162C77.6797 228.162 76.5195 228.514 75.4297 229.217C73.9531 230.178 73.2148 231.689 73.2148 233.752V234.051C73.2148 234.156 73.2207 234.262 73.2324 234.367ZM99.8633 242.559L100.777 242.436C100.977 242.436 101.135 242.518 101.252 242.682C101.369 242.846 101.428 242.998 101.428 243.139C101.428 243.279 101.398 243.414 101.34 243.543C101.293 243.66 101.205 243.771 101.076 243.877C100.654 244.229 99.8984 244.34 98.8086 244.211L97.1738 244.035C96.8926 244.012 96.4707 244 95.9082 244C95.3574 244 94.748 244.041 94.0801 244.123C93.4121 244.217 92.8848 244.264 92.498 244.264C92.1113 244.264 91.7949 244.223 91.5488 244.141C91.3145 244.07 91.1328 243.982 91.0039 243.877C90.7695 243.701 90.6523 243.496 90.6523 243.262C90.6523 243.027 90.7109 242.834 90.8281 242.682C90.957 242.518 91.1211 242.436 91.3203 242.436L92.252 242.559C92.9434 242.559 93.4062 242.242 93.6406 241.609C93.875 241.023 93.9922 239.816 93.9922 237.988V220.305C93.9922 218.289 93.8457 217.041 93.5527 216.561C93.2715 216.08 92.9375 215.764 92.5508 215.611C92.1641 215.459 91.7539 215.359 91.3203 215.312C90.4531 215.242 90.0195 214.949 90.0195 214.434C90.0195 214.27 90.1074 214.094 90.2832 213.906C90.4707 213.719 90.7227 213.625 91.0391 213.625C91.3555 213.625 91.6309 213.637 91.8652 213.66L92.5859 213.73C93.3477 213.801 93.9336 213.836 94.3438 213.836L97.0332 213.59C97.4785 213.59 97.7598 213.689 97.877 213.889C98.0645 214.24 98.1582 214.902 98.1582 215.875V237.988C98.1582 239.863 98.2637 241.041 98.4746 241.521C98.6855 242.002 98.8965 242.295 99.1074 242.4C99.3184 242.506 99.5703 242.559 99.8633 242.559ZM111.641 221.482C111.406 221.729 111.119 221.934 110.779 222.098C110.451 222.25 110.064 222.326 109.619 222.326C109.186 222.326 108.799 222.25 108.459 222.098C108.131 221.934 107.855 221.723 107.633 221.465C107.223 220.973 107.018 220.445 107.018 219.883C107.018 219.32 107.082 218.875 107.211 218.547C107.352 218.207 107.539 217.914 107.773 217.668C108.277 217.141 108.84 216.877 109.461 216.877C110.082 216.877 110.557 216.959 110.885 217.123C111.225 217.275 111.5 217.48 111.711 217.738C112.156 218.266 112.379 218.799 112.379 219.338C112.379 219.877 112.314 220.305 112.186 220.621C112.057 220.938 111.875 221.225 111.641 221.482ZM113.838 244.264L110.059 244C109.309 244 108.57 244.041 107.844 244.123C107.129 244.217 106.613 244.264 106.297 244.264C105.992 244.264 105.723 244.223 105.488 244.141C105.266 244.07 105.09 243.982 104.961 243.877C104.738 243.689 104.627 243.484 104.627 243.262C104.627 243.027 104.686 242.834 104.803 242.682C104.932 242.518 105.096 242.436 105.295 242.436L106.156 242.559C107.129 242.559 107.715 241.691 107.914 239.957C107.984 239.348 108.02 238.604 108.02 237.725V232.557C108.02 230.893 107.867 229.75 107.562 229.129C107.469 228.93 107.346 228.73 107.193 228.531C107.053 228.32 106.824 228.156 106.508 228.039C106.191 227.922 105.875 227.822 105.559 227.74C105.242 227.646 104.967 227.541 104.732 227.424C104.51 227.307 104.398 227.172 104.398 227.02C104.398 226.855 104.416 226.721 104.451 226.615C104.486 226.51 104.545 226.41 104.627 226.316C104.826 226.094 105.131 225.982 105.541 225.982L108.125 226.193L110.779 225.982C111.26 225.982 111.582 226.076 111.746 226.264C112.039 226.615 112.186 227.271 112.186 228.232V237.725C112.186 239.693 112.303 240.936 112.537 241.451C112.771 241.955 113.012 242.266 113.258 242.383C113.504 242.5 113.803 242.559 114.154 242.559L115.016 242.436C115.227 242.436 115.391 242.518 115.508 242.682C115.625 242.834 115.684 243.004 115.684 243.191C115.684 243.906 115.068 244.264 113.838 244.264ZM127.883 244.264L124.086 244C123.336 244 122.598 244.041 121.871 244.123C121.156 244.217 120.641 244.264 120.324 244.264C120.02 244.264 119.75 244.223 119.516 244.141C119.293 244.07 119.117 243.982 118.988 243.877C118.766 243.689 118.654 243.484 118.654 243.262C118.654 243.027 118.719 242.834 118.848 242.682C118.977 242.518 119.135 242.436 119.322 242.436L120.201 242.559C120.857 242.559 121.326 242.236 121.607 241.592C121.9 240.912 122.047 239.711 122.047 237.988V232.557C122.047 230.6 121.789 229.27 121.273 228.566C121.051 228.273 120.635 228.039 120.025 227.863C119.416 227.676 118.994 227.529 118.76 227.424C118.537 227.307 118.426 227.172 118.426 227.02C118.426 226.855 118.443 226.721 118.479 226.615C118.514 226.51 118.572 226.41 118.654 226.316C118.854 226.094 119.158 225.982 119.568 225.982L122.152 226.193L124.807 225.982C125.311 225.982 125.633 226.07 125.773 226.246C126.066 226.574 126.213 227.213 126.213 228.162V228.637C128.158 226.539 130.432 225.49 133.033 225.49C135.998 225.49 137.908 226.662 138.764 229.006C139.068 229.838 139.221 230.822 139.221 231.959V237.988C139.221 239.852 139.326 241.029 139.537 241.521C139.76 242.002 139.977 242.295 140.188 242.4C140.398 242.506 140.645 242.559 140.926 242.559L141.857 242.436C142.057 242.436 142.209 242.518 142.314 242.682C142.432 242.846 142.49 242.998 142.49 243.139C142.49 243.279 142.467 243.414 142.42 243.543C142.373 243.66 142.285 243.771 142.156 243.877C141.734 244.217 140.984 244.328 139.906 244.211C138.559 244.07 137.686 244 137.287 244L133.578 244.264C132.57 244.264 131.973 244.023 131.785 243.543C131.738 243.414 131.715 243.279 131.715 243.139C131.715 242.986 131.773 242.834 131.891 242.682C132.02 242.518 132.189 242.436 132.4 242.436L133.332 242.559C134.023 242.559 134.486 242.248 134.721 241.627C134.955 240.994 135.072 239.781 135.072 237.988V233.33C135.072 231.186 134.469 229.727 133.262 228.953C132.793 228.648 132.242 228.496 131.609 228.496C130.988 228.496 130.432 228.578 129.939 228.742C129.447 228.895 128.979 229.105 128.533 229.375C127.654 229.926 126.881 230.635 126.213 231.502V237.988C126.213 239.934 126.33 241.141 126.564 241.609C126.811 242.066 127.057 242.342 127.303 242.436C127.549 242.518 127.842 242.559 128.182 242.559L129.061 242.436C129.26 242.436 129.418 242.518 129.535 242.682C129.664 242.834 129.729 243.004 129.729 243.191C129.729 243.906 129.113 244.264 127.883 244.264ZM149.363 244.58C147.805 243.865 147.025 242.928 147.025 241.768C147.025 241.205 147.266 240.648 147.746 240.098C148.238 239.547 148.959 239.107 149.908 238.779C147.846 237.854 146.539 236.43 145.988 234.508C145.824 233.922 145.742 233.207 145.742 232.363C145.742 231.508 145.977 230.641 146.445 229.762C146.914 228.871 147.57 228.109 148.414 227.477C150.184 226.152 152.504 225.49 155.375 225.49C156.699 225.49 157.959 225.707 159.154 226.141C160.771 226.117 162.031 225.812 162.934 225.227L163.566 224.84C164.023 224.559 164.434 224.418 164.797 224.418C165.172 224.418 165.436 224.512 165.588 224.699C165.752 224.887 165.834 225.109 165.834 225.367C165.834 225.953 165.453 226.445 164.691 226.844C163.93 227.242 162.857 227.465 161.475 227.512C162.904 228.613 163.619 230.014 163.619 231.713C163.619 233.951 162.805 235.82 161.176 237.32C159.547 238.82 157.455 239.605 154.9 239.676C154.76 239.664 154.625 239.658 154.496 239.658C154.367 239.658 154.109 239.658 153.723 239.658C153.336 239.658 152.914 239.699 152.457 239.781C152.012 239.852 151.648 239.945 151.367 240.062C150.828 240.309 150.559 240.578 150.559 240.871C150.559 241.234 150.781 241.492 151.227 241.645C152.176 241.973 153.617 242.201 155.551 242.33C157.484 242.447 159.02 242.646 160.156 242.928C161.305 243.197 162.236 243.543 162.951 243.965C164.299 244.762 164.973 245.887 164.973 247.34C164.973 249.051 164.07 250.428 162.266 251.471C160.414 252.537 157.924 253.07 154.795 253.07C151.572 253.07 149.158 252.602 147.553 251.664C146.193 250.855 145.514 249.807 145.514 248.518C145.514 247.252 146.205 246.203 147.588 245.371C148.08 245.066 148.672 244.803 149.363 244.58ZM149.873 231.572C149.873 235.322 151.666 237.197 155.252 237.197C158.041 237.197 159.436 236.107 159.436 233.928C159.436 231.971 158.891 230.482 157.801 229.463C156.887 228.596 155.691 228.162 154.215 228.162C152.164 228.162 150.828 228.789 150.207 230.043C149.984 230.465 149.873 230.975 149.873 231.572ZM149.381 247.92C149.381 249.736 151.666 250.645 156.236 250.645C158.217 250.645 159.523 250.521 160.156 250.275C160.801 250.029 161.217 249.777 161.404 249.52C161.604 249.262 161.703 248.963 161.703 248.623C161.703 248.295 161.568 247.955 161.299 247.604C161.029 247.252 160.543 246.924 159.84 246.619C158.246 245.939 155.686 245.535 152.158 245.406C151.244 245.676 150.553 246.039 150.084 246.496C149.615 246.965 149.381 247.439 149.381 247.92ZM185.785 244L181.461 244.246C180.617 244.246 180.09 244 179.879 243.508C179.832 243.379 179.809 243.25 179.809 243.121C179.809 242.98 179.867 242.828 179.984 242.664C180.102 242.5 180.271 242.418 180.494 242.418L181.619 242.523C182.428 242.523 182.967 242.207 183.236 241.574C183.482 241 183.605 239.957 183.605 238.445V222.344C183.605 220.785 183.494 219.766 183.271 219.285C183.061 218.805 182.803 218.477 182.498 218.301C182.205 218.125 181.824 218.037 181.355 218.037L180.494 218.143C180.271 218.143 180.102 218.066 179.984 217.914C179.867 217.762 179.809 217.609 179.809 217.457C179.809 217.305 179.832 217.17 179.879 217.053C179.938 216.924 180.031 216.807 180.16 216.701C180.453 216.443 180.857 216.314 181.373 216.314C181.9 216.314 182.322 216.326 182.639 216.35C182.955 216.373 183.254 216.402 183.535 216.438C184.215 216.52 184.918 216.561 185.645 216.561C186.383 216.561 187.068 216.531 187.701 216.473C188.346 216.414 188.967 216.355 189.564 216.297L191.305 216.104C191.855 216.045 192.541 216.016 193.361 216.016C194.182 216.016 195.031 216.098 195.91 216.262C196.801 216.426 197.568 216.654 198.213 216.947C198.869 217.229 199.414 217.568 199.848 217.967C200.281 218.365 200.633 218.793 200.902 219.25C201.383 220.094 201.623 221.143 201.623 222.396C201.623 223.65 201.207 224.84 200.375 225.965C199.543 227.078 198.359 227.969 196.824 228.637C199.004 229.152 200.744 230.043 202.045 231.309C203.369 232.598 204.031 234.074 204.031 235.738C204.031 238.234 203.123 240.273 201.307 241.855C199.361 243.566 196.684 244.422 193.273 244.422C192.723 244.422 191.855 244.375 190.672 244.281C188.328 244.094 186.699 244 185.785 244ZM187.701 227.74C188.885 227.963 190.039 228.074 191.164 228.074C192.289 228.074 193.191 227.975 193.871 227.775C194.562 227.576 195.16 227.266 195.664 226.844C196.73 225.953 197.264 224.629 197.264 222.871C197.264 220.246 195.506 218.934 191.99 218.934C190.443 218.934 189.424 219.021 188.932 219.197C188.451 219.361 188.123 219.555 187.947 219.777C187.783 220 187.701 220.287 187.701 220.639V227.74ZM194.592 230.641C193.537 230.418 192.4 230.307 191.182 230.307C189.963 230.307 188.803 230.395 187.701 230.57V239.342C187.701 240.174 188.129 240.789 188.984 241.188C189.852 241.574 190.982 241.768 192.377 241.768C193.771 241.768 194.861 241.68 195.646 241.504C196.443 241.316 197.129 241 197.703 240.555C198.945 239.605 199.566 238.059 199.566 235.914C199.566 233.078 197.908 231.32 194.592 230.641ZM207.547 234.543C207.547 233.535 207.805 232.457 208.32 231.309C208.848 230.16 209.562 229.152 210.465 228.285C212.422 226.422 214.807 225.49 217.619 225.49C220.877 225.49 223.402 226.463 225.195 228.408C226.801 230.154 227.604 232.234 227.604 234.648C227.604 237.496 226.754 239.811 225.055 241.592C223.262 243.479 220.807 244.422 217.689 244.422C213.189 244.422 210.125 242.723 208.496 239.324C207.863 238 207.547 236.406 207.547 234.543ZM212.293 231.168C212.047 231.836 211.924 232.721 211.924 233.822C211.924 234.924 212.105 235.984 212.469 237.004C212.844 238.023 213.336 238.885 213.945 239.588C215.223 241.041 216.74 241.768 218.498 241.768C220.654 241.768 222.09 240.824 222.805 238.938C223.051 238.293 223.174 237.379 223.174 236.195C223.174 235.012 222.98 233.893 222.594 232.838C222.207 231.771 221.703 230.893 221.082 230.201C219.863 228.842 218.381 228.162 216.635 228.162C214.467 228.162 213.02 229.164 212.293 231.168ZM231.137 234.543C231.137 233.535 231.395 232.457 231.91 231.309C232.438 230.16 233.152 229.152 234.055 228.285C236.012 226.422 238.396 225.49 241.209 225.49C244.467 225.49 246.992 226.463 248.785 228.408C250.391 230.154 251.193 232.234 251.193 234.648C251.193 237.496 250.344 239.811 248.645 241.592C246.852 243.479 244.396 244.422 241.279 244.422C236.779 244.422 233.715 242.723 232.086 239.324C231.453 238 231.137 236.406 231.137 234.543ZM235.883 231.168C235.637 231.836 235.514 232.721 235.514 233.822C235.514 234.924 235.695 235.984 236.059 237.004C236.434 238.023 236.926 238.885 237.535 239.588C238.812 241.041 240.33 241.768 242.088 241.768C244.244 241.768 245.68 240.824 246.395 238.938C246.641 238.293 246.764 237.379 246.764 236.195C246.764 235.012 246.57 233.893 246.184 232.838C245.797 231.771 245.293 230.893 244.672 230.201C243.453 228.842 241.971 228.162 240.225 228.162C238.057 228.162 236.609 229.164 235.883 231.168ZM260.668 244L256.924 244.264C255.916 244.264 255.318 244.023 255.131 243.543C255.084 243.414 255.061 243.279 255.061 243.139C255.061 242.986 255.119 242.834 255.236 242.682C255.354 242.518 255.518 242.436 255.729 242.436L256.66 242.559C257.586 242.559 258.148 241.75 258.348 240.133C258.418 239.547 258.453 238.832 258.453 237.988V220.305C258.453 218.301 258.312 217.059 258.031 216.578C257.75 216.086 257.416 215.764 257.029 215.611C256.643 215.459 256.227 215.359 255.781 215.312C254.926 215.242 254.498 214.949 254.498 214.434C254.498 214.27 254.586 214.094 254.762 213.906C254.949 213.719 255.201 213.625 255.518 213.625C255.834 213.625 256.115 213.637 256.361 213.66C256.607 213.684 256.854 213.707 257.1 213.73C257.838 213.801 258.406 213.836 258.805 213.836L261.494 213.59C261.986 213.59 262.285 213.689 262.391 213.889C262.543 214.182 262.619 214.844 262.619 215.875V233.506C264.717 232.779 266.609 231.871 268.297 230.781C270.008 229.691 270.863 228.895 270.863 228.391C270.863 227.887 270.418 227.635 269.527 227.635L268.49 227.758C268.303 227.758 268.145 227.676 268.016 227.512C267.898 227.336 267.84 227.189 267.84 227.072C267.84 226.943 267.857 226.814 267.893 226.686C267.939 226.557 268.021 226.434 268.139 226.316C268.408 226.047 268.871 225.912 269.527 225.912C270.184 225.912 270.84 225.959 271.496 226.053C272.152 226.146 272.773 226.193 273.359 226.193C273.945 226.193 274.467 226.146 274.924 226.053C275.393 225.959 275.902 225.912 276.453 225.912C277.496 225.912 278.018 226.287 278.018 227.037C278.018 227.178 277.953 227.336 277.824 227.512C277.707 227.676 277.549 227.758 277.35 227.758L276.365 227.635C275.861 227.635 275.117 228.068 274.133 228.936C271.73 231.045 269.316 232.703 266.891 233.91L273.623 240.256C275.076 241.604 276.348 242.277 277.438 242.277L278.229 242.154C278.498 242.154 278.703 242.365 278.844 242.787C278.879 242.893 278.896 242.992 278.896 243.086C278.896 243.168 278.873 243.273 278.826 243.402C278.779 243.531 278.703 243.648 278.598 243.754C278.328 244.023 278.012 244.158 277.648 244.158C277.285 244.158 276.98 244.146 276.734 244.123C276.5 244.111 276.26 244.094 276.014 244.07C275.779 244.059 275.551 244.041 275.328 244.018C275.117 244.006 274.941 244 274.801 244L272.656 244.158C272.223 244.158 271.848 244.059 271.531 243.859C271.227 243.66 270.863 243.379 270.441 243.016C270.02 242.652 269.469 242.137 268.789 241.469L266.258 238.973L262.619 235.229V238.357C262.619 239.869 262.76 240.947 263.041 241.592C263.322 242.236 263.75 242.559 264.324 242.559L265.256 242.436C265.443 242.436 265.596 242.518 265.713 242.682C265.83 242.846 265.889 242.998 265.889 243.139C265.889 243.279 265.859 243.414 265.801 243.543C265.754 243.66 265.666 243.771 265.537 243.877C265.115 244.217 264.359 244.328 263.27 244.211L261.617 244.035C261.336 244.012 261.02 244 260.668 244Z" fill="#13A484"/>
<g filter="url(#filter0_d_101_2)">
<path d="M77 192V2C77 0.89543 77.8954 0 79 0H96.1155H118.218H146.891H167.054C167.152 0 167.25 0.00720953 167.347 0.0215702L179.149 1.769L188.706 4.12766L200.056 8.25532L206.627 11.2036L209.087 12.6604C210.518 13.5081 210.349 15.6306 208.802 16.2415L206.981 16.9605C206.747 17.0529 206.498 17.1003 206.247 17.1003H200.24C200.118 17.1003 199.996 17.1115 199.876 17.1337L190.498 18.8693L181.177 21.1697C181.02 21.2084 180.859 21.228 180.697 21.228H174.12C173.89 21.228 173.661 21.1882 173.445 21.1104L167.4 18.9408C167.268 18.8933 167.131 18.8598 166.992 18.8411L154.059 17.1003H150.942C150.635 17.1003 150.332 17.171 150.057 17.3069L149.216 17.722C148.04 18.3021 147.731 19.837 148.591 20.8267L150.114 22.5807C150.35 22.8531 150.656 23.0565 150.999 23.1693L155.851 24.766L169.575 27.5883C169.97 27.6695 170.323 27.8913 170.567 28.2124C171.259 29.1236 170.848 30.4456 169.761 30.8033L164.812 32.4316L150.475 35.9696L138.67 38.0883C137.863 38.2331 137.226 38.856 137.064 39.6597L136.502 42.4301C136.296 43.4459 136.901 44.4506 137.895 44.7449L141.592 45.8398C141.933 45.9407 142.294 45.949 142.639 45.8639L153.823 43.1038C153.98 43.0652 154.141 43.0456 154.303 43.0456H164.812H170.947C172.186 43.0456 172.949 44.4009 172.305 45.4597C172.096 45.803 171.765 46.0546 171.378 46.1636L163.617 48.3526L148.823 54.7781C148.73 54.8186 148.634 54.8519 148.536 54.8778L140.45 57.0061C139.981 57.1295 139.573 57.4191 139.302 57.8209L138.123 59.5661C137.65 60.2672 137.669 61.1905 138.17 61.8717L141.155 65.923C141.714 66.681 142.725 66.9468 143.584 66.5614L148.683 64.2736L163.617 59.5562L170.267 57.5364C172.203 56.9483 173.543 59.45 171.98 60.7356L161.825 67.2219L156.114 71.1682C155.94 71.2883 155.786 71.4353 155.658 71.6036L152.675 75.5305C152.41 75.8785 152.267 76.3035 152.267 76.7405V78.2126C152.267 79.0494 152.788 79.7977 153.573 80.0882L156.077 81.015C156.685 81.2401 157.364 81.1565 157.9 80.7907L164.812 76.0669L179.149 67.2219L196.007 57.4665C196.312 57.2903 196.657 57.1976 197.009 57.1976H204.014C204.54 57.1976 205.045 57.4047 205.419 57.7742L207.694 60.0195C208.149 60.4693 208.362 61.1102 208.266 61.7433L206.65 72.3795C206.635 72.4789 206.627 72.5794 206.627 72.68V80.7618C206.627 81.1607 206.746 81.5505 206.97 81.8811L209.616 85.8002C209.988 86.3509 210.609 86.6808 211.274 86.6808H212.99C214.095 86.6808 214.99 85.7854 214.99 84.6809V79.9334C214.99 79.7158 215.026 79.4997 215.095 79.2936L217.38 72.5289L219.769 67.2219L223.353 57.1976L225.145 51.3009L226.843 43.4785C226.905 43.1934 227.029 42.9252 227.205 42.6928L230.163 38.8004C230.397 38.4923 230.715 38.2587 231.08 38.1279L235.777 36.4419C236.567 36.1583 237.45 36.3984 237.988 37.0431L245.278 45.7806C245.396 45.9221 245.493 46.0793 245.569 46.2476L252.026 60.7356L255.611 72.5289L257.964 84.7241C257.988 84.849 258 84.9759 258 85.1031V105.914C258 106.064 257.983 106.214 257.95 106.36L253.854 124.263C253.83 124.367 253.798 124.469 253.758 124.568L245.558 144.806C245.49 144.973 245.4 145.13 245.29 145.273L232.422 162.016C232.35 162.111 232.269 162.198 232.181 162.278L217.569 175.548C217.443 175.663 217.303 175.76 217.153 175.839L198.427 185.659C198.319 185.716 198.205 185.763 198.088 185.799L179.149 191.641L164.973 193.973C164.866 193.991 164.757 194 164.648 194H158.68C156.718 194 155.929 191.47 157.543 190.355L170.188 181.617L185.412 171.213C185.615 171.074 185.843 170.974 186.082 170.918L198.264 168.055L218.298 162.561C219.167 162.323 219.769 161.534 219.769 160.633V157.082C219.769 155.977 218.874 155.082 217.769 155.082H210.592C210.34 155.082 210.091 155.129 209.857 155.222L198.441 159.729C198.323 159.776 198.201 159.811 198.077 159.835L186.614 161.99C186.046 162.097 185.459 161.952 185.005 161.594L184.147 160.916C183.343 160.282 183.149 159.142 183.697 158.277L185.54 155.365C185.659 155.178 185.808 155.011 185.981 154.873L198.264 145.058L217.062 129.401C217.271 129.227 217.443 129.011 217.566 128.768L219.006 125.926C219.447 125.056 219.196 123.995 218.412 123.415L216.023 121.646C215.394 121.18 214.551 121.124 213.865 121.503L200.222 129.045C200.112 129.106 200.007 129.178 199.91 129.258L181.497 144.595C181.137 144.894 180.684 145.058 180.217 145.058H175.772C174.668 145.058 173.772 144.162 173.772 143.058V142.857C173.772 142.375 173.946 141.909 174.262 141.545L180.941 133.854L202.446 111.447L206.001 106.935C206.395 106.435 206.527 105.778 206.358 105.164L205.24 101.121C205.001 100.254 204.212 99.6535 203.313 99.6535H199.017C198.532 99.6535 198.063 99.83 197.698 100.15L176.759 118.523L164.795 130.805C163.712 131.917 161.825 131.151 161.825 129.598C161.825 129.296 161.904 128.999 162.055 128.737L171.98 111.447L180.667 96.5831C180.846 96.2769 180.941 95.9286 180.941 95.5739V92.4352C180.941 91.7849 180.624 91.1753 180.093 90.8006L177.838 89.2106C177.184 88.7492 176.317 88.7226 175.635 89.1431L172.352 91.1688C172.107 91.3199 171.898 91.5222 171.738 91.7617L157.046 113.805L139.723 137.392L133.147 144.424C132.769 144.828 132.24 145.058 131.686 145.058H125.976C125.244 145.058 124.571 144.658 124.22 144.016L120.741 137.638C120.652 137.475 120.587 137.3 120.546 137.119L118.272 127.021C118.236 126.86 118.18 126.704 118.105 126.556L114.184 118.813C114.086 118.621 113.958 118.445 113.804 118.294L109.548 114.092C109.356 113.903 109.128 113.754 108.878 113.655L104.25 111.828C103.644 111.589 102.96 111.66 102.416 112.018L100.6 113.213C100.038 113.583 99.6997 114.211 99.6997 114.884V117.963C99.6997 118.329 99.8003 118.688 99.9906 119.001L102.993 123.941C103.183 124.254 103.284 124.613 103.284 124.98V132.085L105.062 154.903C105.071 155.022 105.091 155.14 105.122 155.256L109.192 170.753C109.235 170.919 109.257 171.09 109.257 171.261V180.839C109.257 181.339 109.07 181.822 108.732 182.19L98.5021 193.351C98.1233 193.765 97.5884 194 97.0277 194H79C77.8954 194 77 193.105 77 192Z" fill="url(#paint0_linear_101_2)" shape-rendering="crispEdges"/>
</g>
<defs>
<filter id="filter0_d_101_2" x="73" y="0" width="189" height="202" filterUnits="userSpaceOnUse" color-interpolation-filters="sRGB">
<feFlood flood-opacity="0" result="BackgroundImageFix"/>
<feColorMatrix in="SourceAlpha" type="matrix" values="0 0 0 0 0 0 0 0 0 0 0 0 0 0 0 0 0 0 127 0" result="hardAlpha"/>
<feOffset dy="4"/>
<feGaussianBlur stdDeviation="2"/>
<feComposite in2="hardAlpha" operator="out"/>
<feColorMatrix type="matrix" values="0 0 0 0 0 0 0 0 0 0 0 0 0 0 0 0 0 0 0.25 0"/>
<feBlend mode="normal" in2="BackgroundImageFix" result="effect1_dropShadow_101_2"/>
<feBlend mode="normal" in="SourceGraphic" in2="effect1_dropShadow_101_2" result="shape"/>
</filter>
<linearGradient id="paint0_linear_101_2" x1="167.5" y1="0" x2="167.5" y2="194" gradientUnits="userSpaceOnUse">
<stop stop-color="#287DC0"/>
<stop offset="1" stop-color="#13A484" stop-opacity="0.83"/>
</linearGradient>
</defs>
</svg>
