<svg width="189" height="202" viewBox="0 0 189 202" fill="none" xmlns="http://www.w3.org/2000/svg">
<g filter="url(#filter0_d_18_2)">
<path d="M4 192V2C4 0.89543 4.89543 0 6 0H23.1155H45.2178H73.8911H94.0541C94.1521 0 94.25 0.00720953 94.347 0.0215702L106.149 1.769L115.706 4.12766L127.056 8.25532L133.627 11.2036L136.087 12.6604C137.518 13.5081 137.349 15.6306 135.802 16.2415L133.981 16.9605C133.747 17.0529 133.498 17.1003 133.247 17.1003H127.24C127.118 17.1003 126.996 17.1115 126.876 17.1337L117.498 18.8693L108.177 21.1697C108.02 21.2084 107.859 21.228 107.697 21.228H101.12C100.89 21.228 100.661 21.1882 100.445 21.1104L94.4005 18.9408C94.2681 18.8933 94.131 18.8598 93.9916 18.8411L81.0594 17.1003H77.9419C77.6349 17.1003 77.3321 17.171 77.0568 17.3069L76.2157 17.722C75.0404 18.3021 74.7314 19.837 75.5908 20.8267L77.1138 22.5807C77.3504 22.8531 77.6562 23.0565 77.9989 23.1693L82.8515 24.766L96.5754 27.5883C96.9704 27.6695 97.3226 27.8913 97.5666 28.2124C98.2589 29.1236 97.8477 30.4456 96.7606 30.8033L91.8119 32.4316L77.4752 35.9696L65.6704 38.0883C64.8633 38.2331 64.2264 38.856 64.0636 39.6597L63.5023 42.4301C63.2965 43.4459 63.9008 44.4506 64.8945 44.7449L68.5919 45.8398C68.9326 45.9407 69.294 45.949 69.639 45.8639L80.8233 43.1038C80.9801 43.0652 81.141 43.0456 81.3025 43.0456H91.8119H97.9472C99.1863 43.0456 99.9485 44.4009 99.3049 45.4597C99.0962 45.803 98.7652 46.0546 98.3785 46.1636L90.6172 48.3526L75.8232 54.7781C75.73 54.8186 75.6338 54.8519 75.5355 54.8778L67.4501 57.0061C66.9812 57.1295 66.5732 57.4191 66.3018 57.8209L65.1232 59.5661C64.6496 60.2672 64.6685 61.1905 65.1704 61.8717L68.1553 65.923C68.7137 66.681 69.7252 66.9468 70.5842 66.5614L75.6832 64.2736L90.6172 59.5562L97.2672 57.5364C99.2035 56.9483 100.543 59.45 98.9802 60.7356L88.8251 67.2219L83.114 71.1682C82.9401 71.2883 82.7863 71.4353 82.6584 71.6036L79.6748 75.5305C79.4105 75.8785 79.2673 76.3035 79.2673 76.7405V78.2126C79.2673 79.0494 79.7883 79.7977 80.573 80.0882L83.0769 81.015C83.6849 81.2401 84.3643 81.1565 84.8996 80.7907L91.8119 76.0669L106.149 67.2219L123.007 57.4665C123.312 57.2903 123.657 57.1976 124.009 57.1976H131.014C131.54 57.1976 132.045 57.4047 132.419 57.7742L134.694 60.0195C135.149 60.4693 135.362 61.1102 135.266 61.7433L133.65 72.3795C133.635 72.4789 133.627 72.5794 133.627 72.68V80.7618C133.627 81.1607 133.746 81.5505 133.97 81.8811L136.616 85.8002C136.988 86.3509 137.609 86.6808 138.274 86.6808H139.99C141.095 86.6808 141.99 85.7854 141.99 84.6809V79.9334C141.99 79.7158 142.026 79.4997 142.095 79.2936L144.38 72.5289L146.769 67.2219L150.353 57.1976L152.145 51.3009L153.843 43.4785C153.905 43.1934 154.029 42.9252 154.205 42.6928L157.163 38.8004C157.397 38.4923 157.715 38.2587 158.08 38.1279L162.777 36.4419C163.567 36.1583 164.45 36.3984 164.988 37.0431L172.278 45.7806C172.396 45.9221 172.493 46.0793 172.569 46.2476L179.026 60.7356L182.611 72.5289L184.964 84.7241C184.988 84.849 185 84.9759 185 85.1031V105.914C185 106.064 184.983 106.214 184.95 106.36L180.854 124.263C180.83 124.367 180.798 124.469 180.758 124.568L172.558 144.806C172.49 144.973 172.4 145.13 172.29 145.273L159.422 162.016C159.35 162.111 159.269 162.198 159.181 162.278L144.569 175.548C144.443 175.663 144.303 175.76 144.153 175.839L125.427 185.659C125.319 185.716 125.205 185.763 125.088 185.799L106.149 191.641L91.9731 193.973C91.8658 193.991 91.7572 194 91.6485 194H85.6799C83.7183 194 82.9291 191.47 84.543 190.355L97.1881 181.617L112.412 171.213C112.615 171.074 112.843 170.974 113.082 170.918L125.264 168.055L145.298 162.561C146.167 162.323 146.769 161.534 146.769 160.633V157.082C146.769 155.977 145.874 155.082 144.769 155.082H137.592C137.34 155.082 137.091 155.129 136.857 155.222L125.441 159.729C125.323 159.776 125.201 159.811 125.077 159.835L113.614 161.99C113.046 162.097 112.459 161.952 112.005 161.594L111.147 160.916C110.343 160.282 110.149 159.142 110.697 158.277L112.54 155.365C112.659 155.178 112.808 155.011 112.981 154.873L125.264 145.058L144.062 129.401C144.271 129.227 144.443 129.011 144.566 128.768L146.006 125.926C146.447 125.056 146.196 123.995 145.412 123.415L143.023 121.646C142.394 121.18 141.551 121.124 140.865 121.503L127.222 129.045C127.112 129.106 127.007 129.178 126.91 129.258L108.497 144.595C108.137 144.894 107.684 145.058 107.217 145.058H102.772C101.668 145.058 100.772 144.162 100.772 143.058V142.857C100.772 142.375 100.946 141.909 101.262 141.545L107.941 133.854L129.446 111.447L133.001 106.935C133.395 106.435 133.527 105.778 133.358 105.164L132.24 101.121C132.001 100.254 131.212 99.6535 130.313 99.6535H126.017C125.532 99.6535 125.063 99.83 124.698 100.15L103.759 118.523L91.7948 130.805C90.7115 131.917 88.8251 131.151 88.8251 129.598C88.8251 129.296 88.9043 128.999 89.0548 128.737L98.9802 111.447L107.667 96.5831C107.846 96.2769 107.941 95.9286 107.941 95.5739V92.4352C107.941 91.7849 107.624 91.1753 107.093 90.8006L104.838 89.2106C104.184 88.7492 103.317 88.7226 102.635 89.1431L99.352 91.1688C99.107 91.3199 98.8975 91.5222 98.7379 91.7617L84.0462 113.805L66.7228 137.392L60.1473 144.424C59.7691 144.828 59.2402 145.058 58.6865 145.058H52.976C52.2441 145.058 51.5707 144.658 51.2202 144.016L47.7412 137.638C47.6523 137.475 47.5866 137.3 47.5458 137.119L45.2724 127.021C45.2362 126.86 45.1801 126.704 45.1054 126.556L41.1835 118.813C41.086 118.621 40.958 118.445 40.8044 118.294L36.5481 114.092C36.3563 113.903 36.1282 113.754 35.8776 113.655L31.25 111.828C30.6443 111.589 29.9601 111.66 29.4161 112.018L27.6002 113.213C27.0381 113.583 26.6997 114.211 26.6997 114.884V117.963C26.6997 118.329 26.8003 118.688 26.9906 119.001L29.9929 123.941C30.1832 124.254 30.2838 124.613 30.2838 124.98V132.085L32.062 154.903C32.0712 155.022 32.0912 155.14 32.1215 155.256L36.1918 170.753C36.2354 170.919 36.2574 171.09 36.2574 171.261V180.839C36.2574 181.339 36.0699 181.822 35.7318 182.19L25.5021 193.351C25.1233 193.765 24.5884 194 24.0277 194H6C4.89543 194 4 193.105 4 192Z" fill="url(#paint0_linear_18_2)" shape-rendering="crispEdges"/>
</g>
<defs>
<filter id="filter0_d_18_2" x="0" y="0" width="189" height="202" filterUnits="userSpaceOnUse" color-interpolation-filters="sRGB">
<feFlood flood-opacity="0" result="BackgroundImageFix"/>
<feColorMatrix in="SourceAlpha" type="matrix" values="0 0 0 0 0 0 0 0 0 0 0 0 0 0 0 0 0 0 127 0" result="hardAlpha"/>
<feOffset dy="4"/>
<feGaussianBlur stdDeviation="2"/>
<feComposite in2="hardAlpha" operator="out"/>
<feColorMatrix type="matrix" values="0 0 0 0 0 0 0 0 0 0 0 0 0 0 0 0 0 0 0.25 0"/>
<feBlend mode="normal" in2="BackgroundImageFix" result="effect1_dropShadow_18_2"/>
<feBlend mode="normal" in="SourceGraphic" in2="effect1_dropShadow_18_2" result="shape"/>
</filter>
<linearGradient id="paint0_linear_18_2" x1="94.5" y1="0" x2="94.5" y2="194" gradientUnits="userSpaceOnUse">
<stop stop-color="#287DC0"/>
<stop offset="1" stop-color="#13A484" stop-opacity="0.83"/>
</linearGradient>
</defs>
</svg>
