<svg width="25" height="25" viewBox="0 0 25 25" fill="none" xmlns="http://www.w3.org/2000/svg">
<path d="M24.7039 24.7042C24.8935 24.5139 25 24.2562 25 23.9875C25 23.7188 24.8935 23.4611 24.7039 23.2708L17.4026 15.9722C18.8235 14.2283 19.5978 12.0467 19.5942 9.79722C19.5913 7.19974 18.5581 4.70949 16.7215 2.87279C14.8848 1.03609 12.3946 0.00294083 9.79711 0C7.19966 0.00294083 4.70943 1.03609 2.87275 2.87279C1.03608 4.70949 0.00294079 7.19974 0 9.79722C0.00294079 12.3947 1.03608 14.885 2.87275 16.7217C4.70943 18.5584 7.19966 19.5915 9.79711 19.5944C12.0466 19.598 14.2281 18.8237 15.972 17.4028L23.2733 24.7042C23.4628 24.8933 23.7195 24.9996 23.9872 25C24.1203 25.0002 24.252 24.9742 24.375 24.9234C24.498 24.8726 24.6097 24.7981 24.7039 24.7042ZM17.5678 9.79722C17.5656 11.8571 16.7464 13.832 15.2898 15.2886C13.8333 16.7452 11.8584 17.5645 9.7985 17.5667C7.73837 17.5648 5.76313 16.7457 4.30627 15.2891C2.84941 13.8325 2.02996 11.8574 2.02775 9.79722C2.02996 7.73731 2.84922 5.76241 4.30578 4.30583C5.76234 2.84926 7.73722 2.02998 9.79711 2.02778C11.8572 2.02962 13.8325 2.84873 15.2893 4.30534C16.7462 5.76196 17.5656 7.73707 17.5678 9.79722Z" fill="#141124"/>
</svg>
