<svg width="30" height="20" viewBox="0 0 30 20" fill="none" xmlns="http://www.w3.org/2000/svg">
<path d="M8.16947 19.4979L0.428154 11.0848L0.402994 11.0575L0.389447 11.0449L0.377835 11.0302L0.364288 11.0133L0.354611 11.0007L0.339129 10.9818L0.323646 10.9608L0.294616 10.9166L0.273327 10.8871L0.253974 10.8577L0.234621 10.8261V10.8135L0.217203 10.7946V10.7799V10.763L0.195914 10.7441V10.7315L0.170755 10.7063C0.0207346 10.4003 -0.0324989 10.0492 0.019264 9.70712C0.0710269 9.36503 0.224911 9.05095 0.457184 8.81332L8.16947 0.4423C8.44335 0.155092 8.81008 -0.00372156 9.19065 6.62318e-05C9.57123 0.00385403 9.93521 0.16994 10.2042 0.462551C10.4732 0.755163 10.6257 1.15089 10.6288 1.56449C10.6319 1.9781 10.4855 2.3765 10.2209 2.67387L4.95876 8.39266H28.5485C28.9335 8.39266 29.3027 8.55886 29.5749 8.85469C29.8471 9.15052 30 9.55175 30 9.97012C30 10.3885 29.8471 10.7897 29.5749 11.0855C29.3027 11.3814 28.9335 11.5476 28.5485 11.5476H4.95876L10.2209 17.2685C10.3635 17.4129 10.4779 17.587 10.5572 17.7805C10.6366 17.974 10.6792 18.1829 10.6827 18.3947C10.6861 18.6065 10.6503 18.8169 10.5773 19.0133C10.5043 19.2098 10.3956 19.3882 10.2578 19.538C10.1199 19.6878 9.95576 19.8059 9.77502 19.8852C9.59428 19.9645 9.40069 20.0035 9.2058 19.9998C9.01091 19.996 8.8187 19.9497 8.64065 19.8634C8.4626 19.7772 8.30236 19.6529 8.16947 19.4979Z" fill="black"/>
</svg>
