<svg width="18" height="21" viewBox="0 0 18 21" fill="none" xmlns="http://www.w3.org/2000/svg">
<path d="M15.5127 14.915L15.9258 5.93262H16.8926C17.3408 5.93262 17.6836 5.58984 17.6836 5.15039C17.6836 4.71973 17.3408 4.37695 16.8926 4.37695H12.9902V3.18164C12.9902 1.82812 12.0498 0.958008 10.582 0.958008H7.40039C5.93262 0.958008 5.00098 1.82812 5.00098 3.18164V4.14844H4.74609L6.53906 5.93262H14.2822L13.9395 13.3506L15.5127 14.915ZM16.4795 19.4326C16.7607 19.7051 17.209 19.7051 17.4727 19.4326C17.7363 19.1602 17.7451 18.7207 17.4727 18.4395L1.51172 2.47852C1.23926 2.20605 0.791016 2.19727 0.518555 2.47852C0.246094 2.74219 0.246094 3.19922 0.518555 3.46289L16.4795 19.4326ZM6.64453 4.37695V3.26074C6.64453 2.77734 7.00488 2.43457 7.53223 2.43457H10.459C10.9863 2.43457 11.3467 2.77734 11.3467 3.26074V4.37695H6.64453ZM4.96582 20.7686H13.043C13.9834 20.7686 14.6689 20.3555 15.0205 19.6699L15.0293 19.5381L13.6934 18.2021L13.6846 18.4219C13.6582 18.8613 13.3154 19.1953 12.8496 19.1953H5.1416C4.6582 19.1953 4.30664 18.835 4.28027 18.3164L3.79688 8.30566L2.10938 6.61816L2.66309 18.5977C2.7334 19.96 3.59473 20.7686 4.96582 20.7686ZM9.62402 9.01758V8.00684C9.62402 7.65527 9.36914 7.41797 9 7.41797C8.8418 7.41797 8.66602 7.47949 8.56055 7.59375V7.96289L9.62402 9.01758ZM12.3574 11.7598L12.4629 8.00684C12.4717 7.65527 12.2344 7.42676 11.8652 7.42676C11.5049 7.42676 11.2588 7.65527 11.25 8.00684L11.1797 10.582L12.3574 11.7598ZM6.40723 17.7803C6.78516 17.7803 7.02246 17.543 7.01367 17.1914L6.84668 11.3555L5.59863 10.1074L5.80078 17.2002C5.80957 17.5518 6.05566 17.7803 6.40723 17.7803ZM9 17.7803C9.36914 17.7803 9.62402 17.5518 9.62402 17.2002V14.1328L8.38477 12.8936V17.2002C8.38477 17.5518 8.63086 17.7803 9 17.7803ZM11.5928 17.7891C11.8916 17.7891 12.1113 17.6045 12.1465 17.3232L12.1729 16.6816L11.0303 15.5479L10.9863 17.2002C10.9775 17.543 11.2148 17.7891 11.5928 17.7891Z" fill="#1E1C1C"/>
</svg>
