<svg width="29" height="25" viewBox="0 0 29 25" fill="none" xmlns="http://www.w3.org/2000/svg">
<path d="M4.09084 25C3.00642 24.9989 1.96664 24.4622 1.19969 23.5076C0.43274 22.5529 0.00127997 21.2584 0 19.9081V5.09389C0.00085342 3.74323 0.432125 2.4482 1.19912 1.49314C1.96612 0.53808 3.00614 0.00106267 4.09084 0L17.4751 0C18.532 0.00152883 19.5476 0.51181 20.3094 1.42414C21.0712 2.33647 21.5203 3.58021 21.5627 4.89527L25.4296 2.96726C26.0706 2.64825 26.7871 2.65925 27.4215 2.99785C28.056 3.33644 28.5565 3.97491 28.8131 4.77289C28.9369 5.15546 29.0004 5.56417 29 5.97665V19.0173C29.0003 19.5472 28.8961 20.0691 28.6968 20.5372C28.4974 21.0054 28.2089 21.4055 27.8565 21.7025C27.5041 21.9996 27.0986 22.1844 26.6755 22.2409C26.2523 22.2975 25.8246 22.2239 25.4296 22.0267L21.5627 20.1007C21.5203 21.4158 21.0712 22.6595 20.3094 23.5718C19.5476 24.4842 18.532 24.9945 17.4751 24.996L4.09084 25ZM2.2299 5.09389V19.9081C2.23075 20.5222 2.42714 21.1107 2.776 21.5448C3.12485 21.9788 3.5977 22.2228 4.09084 22.2233H17.4751C17.9681 22.2228 18.4408 21.9787 18.7894 21.5446C19.1379 21.1106 19.334 20.522 19.3344 19.9081V5.09389C19.334 4.47984 19.138 3.89105 18.7894 3.45666C18.4409 3.02227 17.9682 2.77773 17.4751 2.77666H4.09084C3.59755 2.77772 3.12471 3.0222 2.7759 3.45654C2.42709 3.89087 2.23075 4.47965 2.2299 5.09389ZM26.2626 19.4607C26.3189 19.4885 26.3799 19.4987 26.4401 19.4905C26.5003 19.4822 26.558 19.4558 26.6082 19.4135C26.6584 19.3712 26.6995 19.3143 26.728 19.2477C26.7565 19.1811 26.7715 19.1068 26.7717 19.0314V5.99069C26.7715 5.91523 26.7565 5.84098 26.728 5.77438C26.6995 5.70779 26.6584 5.65086 26.6082 5.60855C26.558 5.56624 26.5003 5.53982 26.4401 5.5316C26.3799 5.52337 26.3189 5.53359 26.2626 5.56135L21.5659 7.8846V17.1134L26.2626 19.4607Z" fill="#141124"/>
</svg>
