<svg width="81" height="60" viewBox="0 0 81 60" fill="none" xmlns="http://www.w3.org/2000/svg">
<path d="M0.460052 29.8927C0.688406 21.9765 5.02691 14.4521 12.5248 8.96852C20.0226 3.48496 30.0682 0.489521 40.4601 0.638677C50.8519 0.489521 60.8975 3.48496 68.3953 8.96852C75.8932 14.4521 80.2317 21.9765 80.4601 29.8927C80.2317 37.8089 75.8932 45.3333 68.3953 50.8169C60.8975 56.3004 50.8519 59.2959 40.4601 59.1467C30.0682 59.2959 20.0226 56.3004 12.5248 50.8169C5.02691 45.3333 0.688406 37.8089 0.460052 29.8927H0.460052ZM6.6139 29.8927C6.80778 36.5909 10.479 42.9574 16.8232 47.5972C23.1674 52.237 31.6672 54.7718 40.4601 54.6461C46.4586 54.6567 52.3583 53.483 57.5842 51.2394C40.3616 34.1745 27.0406 20.9758 17.6211 11.6433C14.1826 13.9102 11.4211 16.7118 9.52253 19.8596C7.62391 23.0074 6.63213 26.4285 6.6139 29.8927V29.8927ZM62.6467 48.5703C66.2739 46.3021 69.1996 43.4521 71.215 40.2236C73.2303 36.9951 74.2859 33.4677 74.3062 29.8927C74.1123 23.1945 70.4411 16.828 64.0969 12.1882C57.7527 7.54836 49.2529 5.0136 40.4601 5.1393C34.1668 5.13115 27.9892 6.42763 22.5893 8.88981L62.6467 48.5703Z" fill="#C53E3E"/>
</svg>
