<svg width="112" height="104" viewBox="0 0 112 104" fill="none" xmlns="http://www.w3.org/2000/svg">
<g clip-path="url(#clip0_105_4)">
<path d="M86.4824 5.55511C86.8078 5.25293 87.066 4.89421 87.2421 4.4994C87.4182 4.10459 87.5088 3.68144 87.5088 3.25411C87.5088 2.82677 87.4182 2.40362 87.2421 2.00881C87.066 1.61401 86.8078 1.25528 86.4824 0.953105C86.157 0.650933 85.7707 0.411238 85.3455 0.247704C84.9203 0.0841702 84.4646 0 84.0044 0C83.5442 0 83.0885 0.0841702 82.6633 0.247704C82.2382 0.411238 81.8518 0.650933 81.5264 0.953105L35.0044 44.1586L12.9824 23.7031C12.657 23.4009 12.2707 23.1612 11.8455 22.9977C11.4203 22.8342 10.9646 22.75 10.5044 22.75C9.57499 22.75 8.68363 23.0928 8.02642 23.7031C7.36922 24.3134 7 25.1411 7 26.0041C7 26.8671 7.36922 27.6948 8.02642 28.3051L32.5264 51.0551C32.8515 51.3578 33.2378 51.5979 33.663 51.7617C34.0882 51.9256 34.5441 52.0099 35.0044 52.0099C35.4648 52.0099 35.9206 51.9256 36.3459 51.7617C36.7711 51.5979 37.1573 51.3578 37.4824 51.0551L86.4824 5.55511V5.55511ZM57.0264 51.0551L50.7544 45.2246L55.7034 40.6291L59.5044 44.1586L106.026 0.953105C106.684 0.342842 107.575 -2.0334e-08 108.504 0C109.434 2.0334e-08 110.325 0.342841 110.982 0.953105C111.64 1.56337 112.009 2.39106 112.009 3.25411C112.009 4.11715 111.64 4.94484 110.982 5.55511L61.9824 51.0551C61.6573 51.3578 61.2711 51.5979 60.8459 51.7617C60.4206 51.9256 59.9648 52.0099 59.5044 52.0099C59.0441 52.0099 58.5882 51.9256 58.163 51.7617C57.7378 51.5979 57.3515 51.3578 57.0264 51.0551V51.0551Z" fill="#07AB18"/>
</g>
<defs>
<clipPath id="clip0_105_4">
<rect width="112" height="104" fill="white"/>
</clipPath>
</defs>
</svg>
