<svg width="26" height="25" viewBox="0 0 26 25" fill="none" xmlns="http://www.w3.org/2000/svg">
<path d="M12.5 25C19.3544 25 25.0121 19.3424 25.0121 12.5C25.0121 5.65764 19.3424 0 12.4879 0C5.64555 0 0 5.65764 0 12.5C0 19.3424 5.65764 25 12.5 25ZM12.5 22.5097C6.95116 22.5097 2.51451 18.0488 2.51451 12.5C2.51451 6.95116 6.95116 2.50242 12.4879 2.50242C18.0368 2.50242 22.4976 6.95116 22.5097 12.5C22.5218 18.0488 18.0488 22.5097 12.5 22.5097ZM9.79207 18.4599C10.1426 18.8104 10.8559 18.7863 11.2307 18.4236L16.1509 13.7935C16.8883 13.1165 16.8883 11.9197 16.1509 11.2427L11.2307 6.61267C10.8196 6.22582 10.191 6.21373 9.80416 6.5764C9.38104 6.97534 9.36896 7.65232 9.77998 8.03917L14.5551 12.5121L9.77998 16.9971C9.38104 17.3839 9.36896 18.0488 9.79207 18.4599Z" fill="url(#paint0_linear_305_943)"/>
<defs>
<linearGradient id="paint0_linear_305_943" x1="12.506" y1="0" x2="12.506" y2="25" gradientUnits="userSpaceOnUse">
<stop stop-color="#287DC0" stop-opacity="0.8"/>
<stop offset="1" stop-color="#13A484" stop-opacity="0.83"/>
</linearGradient>
</defs>
</svg>
