<svg width="147" height="129" viewBox="0 0 147 129" fill="none" xmlns="http://www.w3.org/2000/svg">
<g clip-path="url(#clip0_106_11)">
<path d="M9.1875 22.8008C17.3184 19.8176 28.9774 16.6007 40.3148 15.6009C52.5341 14.5206 62.8976 16.1089 68.9062 21.6639V100.241C60.3159 95.9679 49.4288 95.3794 39.3868 96.2663C28.5456 97.2338 17.6124 99.9831 9.1875 102.805V22.8008ZM78.0938 21.6639C84.1024 16.1089 94.4659 14.5206 106.685 15.6009C118.023 16.6007 129.682 19.8176 137.812 22.8008V102.805C129.378 99.9831 118.454 97.2257 107.613 96.2743C97.5621 95.3794 86.6841 95.9599 78.0938 100.241V21.6639ZM73.5 14.3754C64.4503 7.5465 51.3306 6.53063 39.3868 7.57875C25.4769 8.81231 11.4384 12.9968 2.69194 16.4878C1.8894 16.8081 1.20885 17.3243 0.731518 17.9748C0.254188 18.6253 0.000244125 19.3826 0 20.1563L0 108.844C0.000212801 109.518 0.193279 110.182 0.561513 110.774C0.929748 111.366 1.46138 111.868 2.10771 112.233C2.75404 112.598 3.49442 112.814 4.26101 112.863C5.0276 112.912 5.79591 112.791 6.49556 112.512C14.5989 109.287 27.6544 105.409 40.3056 104.288C53.2508 103.144 64.1012 104.99 69.9169 111.359C70.3473 111.83 70.8927 112.21 71.5129 112.471C72.1331 112.732 72.8122 112.868 73.5 112.868C74.1878 112.868 74.8669 112.732 75.4871 112.471C76.1072 112.21 76.6527 111.83 77.0831 111.359C82.8988 104.99 93.7493 103.144 106.685 104.288C119.346 105.409 132.41 109.287 140.504 112.512C141.204 112.791 141.972 112.912 142.739 112.863C143.506 112.814 144.246 112.598 144.892 112.233C145.539 111.868 146.07 111.366 146.438 110.774C146.807 110.182 147 109.518 147 108.844V20.1563C147 19.3826 146.746 18.6253 146.268 17.9748C145.791 17.3243 145.111 16.8081 144.308 16.4878C135.562 12.9968 121.523 8.81231 107.613 7.57875C95.6694 6.52256 82.5497 7.5465 73.5 14.3754Z" fill="black"/>
</g>
<defs>
<clipPath id="clip0_106_11">
<rect width="147" height="129" fill="white"/>
</clipPath>
</defs>
</svg>
