<svg width="22" height="17" viewBox="0 0 22 17" fill="none" xmlns="http://www.w3.org/2000/svg">
<path d="M13.5801 4.49339L13.5801 4.49336L13.5757 4.48681L11.0342 0.720332C10.9413 0.582573 10.786 0.500001 10.6198 0.5C10.4536 0.499999 10.2983 0.582569 10.2053 0.720328L7.6638 4.48677L7.66375 4.48674L7.65943 4.49336C7.52879 4.69372 7.33079 4.87995 7.07088 5.02869C6.81105 5.17739 6.50245 5.28089 6.16917 5.32548L6.16916 5.32539L6.15991 5.3268L0.92444 6.12718C0.734996 6.15614 0.578773 6.29084 0.522245 6.47396C0.465717 6.65707 0.518831 6.85639 0.658987 6.9871L4.31408 10.3958C4.31924 10.4006 4.32449 10.4053 4.32985 10.4099C4.52321 10.5755 4.65815 10.7622 4.73648 10.9526C4.81419 11.1415 4.83707 11.3357 4.80789 11.5255C4.80785 11.5257 4.80781 11.526 4.80777 11.5263L4.11242 15.9219C4.08459 16.0978 4.15242 16.2752 4.29049 16.3877C4.42856 16.5001 4.61602 16.5307 4.78266 16.4679L9.60321 14.6505L9.60322 14.6506L9.60802 14.6487C9.90023 14.5351 10.2723 14.4711 10.6198 14.4711C10.9546 14.4711 11.2487 14.5307 11.5522 14.6487C11.5549 14.6497 11.5575 14.6507 11.5602 14.6517C11.5635 14.6529 11.5667 14.6541 11.57 14.6552L16.5004 16.3596C16.6666 16.417 16.8506 16.383 16.9853 16.2699C17.1199 16.1569 17.1853 15.9815 17.1575 15.8079L16.4623 11.4698C16.4622 11.4694 16.4622 11.469 16.4621 11.4686C16.433 11.2789 16.4559 11.0849 16.5336 10.8961C16.6119 10.7057 16.7468 10.519 16.9402 10.3534C16.945 10.3493 16.9498 10.345 16.9544 10.3407L20.579 6.98854C20.72 6.85817 20.7738 6.65857 20.7176 6.47498C20.6613 6.29138 20.5049 6.15623 20.3151 6.12721L15.0796 5.32684L15.0796 5.32675L15.0703 5.32551C14.737 5.28092 14.4284 5.17742 14.1686 5.02872C13.9087 4.87998 13.7107 4.69375 13.5801 4.49339Z" fill="#F0CE3E" stroke="#3E3E3E" stroke-linecap="round" stroke-linejoin="round"/>
</svg>
